<svg width="30" height="30" viewBox="0 0 30 30" fill="none" xmlns="http://www.w3.org/2000/svg">
<circle cx="15" cy="15" r="12" fill="#DDC9A3"/>
<path d="M15.0001 3C12.915 3 10.8658 3.54333 9.05456 4.57644C7.24332 5.60955 5.73254 7.09678 4.67111 8.89156C3.60968 10.6863 3.03423 12.7267 3.00148 14.8116C2.96873 16.8965 3.4798 18.954 4.48433 20.7812C5.48887 22.6085 6.95218 24.1424 8.73007 25.2319C10.508 26.3214 12.5391 26.9288 14.6232 26.9943C16.7073 27.0598 18.7725 26.5811 20.6153 25.6054C22.4581 24.6297 24.0149 23.1907 25.1322 21.4301L15.0001 15.0001L15.0001 3Z" fill="#9F2241"/>
<circle cx="15" cy="15" r="9" fill="white"/>
<path d="M12.128 10.2V20H10.308V11.726H8.23602V10.2H12.128ZM18.1601 20.14C17.3761 20.14 16.6761 19.944 16.0601 19.552C15.4441 19.1507 14.9587 18.572 14.6041 17.816C14.2494 17.0507 14.0721 16.1453 14.0721 15.1C14.0721 14.0547 14.2494 13.154 14.6041 12.398C14.9587 11.6327 15.4441 11.054 16.0601 10.662C16.6761 10.2607 17.3761 10.06 18.1601 10.06C18.9441 10.06 19.6441 10.2607 20.2601 10.662C20.8854 11.054 21.3754 11.6327 21.7301 12.398C22.0847 13.154 22.2621 14.0547 22.2621 15.1C22.2621 16.1453 22.0847 17.0507 21.7301 17.816C21.3754 18.572 20.8854 19.1507 20.2601 19.552C19.6441 19.944 18.9441 20.14 18.1601 20.14ZM18.1601 18.558C18.8601 18.558 19.4107 18.2687 19.8121 17.69C20.2227 17.1113 20.4281 16.248 20.4281 15.1C20.4281 13.952 20.2227 13.0887 19.8121 12.51C19.4107 11.9313 18.8601 11.642 18.1601 11.642C17.4694 11.642 16.9187 11.9313 16.5081 12.51C16.1067 13.0887 15.9061 13.952 15.9061 15.1C15.9061 16.248 16.1067 17.1113 16.5081 17.69C16.9187 18.2687 17.4694 18.558 18.1601 18.558Z" fill="#666666"/>
</svg>
