<svg width="30" height="30" viewBox="0 0 30 30" fill="none" xmlns="http://www.w3.org/2000/svg">
<circle cx="15" cy="15" r="12" fill="#DDC9A3"/>
<path d="M15.0001 3C12.915 3 10.8658 3.54333 9.05456 4.57644C7.24332 5.60955 5.73254 7.09678 4.67111 8.89156C3.60968 10.6863 3.03423 12.7267 3.00148 14.8116C2.96873 16.8965 3.4798 18.954 4.48433 20.7812C5.48887 22.6085 6.95218 24.1424 8.73007 25.2319C10.508 26.3214 12.5391 26.9288 14.6232 26.9943C16.7073 27.0598 18.7725 26.5811 20.6153 25.6054C22.4581 24.6297 24.0149 23.1907 25.1322 21.4301L15.0001 15.0001L15.0001 3Z" fill="#9F2241"/>
<circle cx="15" cy="15" r="9" fill="white"/>
<path d="M12.2638 10.2V20H10.4438V11.726H8.37177V10.2H12.2638ZM21.3058 18.46V20H14.0818V18.782L17.9738 15.086C18.4125 14.666 18.7065 14.302 18.8558 13.994C19.0145 13.6767 19.0938 13.364 19.0938 13.056C19.0938 12.5987 18.9398 12.2487 18.6318 12.006C18.3238 11.7633 17.8711 11.642 17.2738 11.642C16.2751 11.642 15.5098 11.9827 14.9778 12.664L13.7038 11.684C14.0865 11.1707 14.5998 10.774 15.2438 10.494C15.8971 10.2047 16.6251 10.06 17.4278 10.06C18.4918 10.06 19.3411 10.312 19.9758 10.816C20.6105 11.32 20.9278 12.006 20.9278 12.874C20.9278 13.406 20.8158 13.9053 20.5918 14.372C20.3678 14.8387 19.9385 15.3707 19.3038 15.968L16.6858 18.46H21.3058Z" fill="#666666"/>
</svg>
