<svg width="30" height="30" viewBox="0 0 30 30" fill="none" xmlns="http://www.w3.org/2000/svg">
<circle cx="15" cy="15" r="12" fill="#DDC9A3"/>
<path d="M15.0001 3C12.915 3 10.8658 3.54333 9.05456 4.57644C7.24332 5.60955 5.73254 7.09678 4.67111 8.89156C3.60968 10.6863 3.03423 12.7267 3.00148 14.8116C2.96873 16.8965 3.4798 18.954 4.48433 20.7812C5.48887 22.6085 6.95218 24.1424 8.73007 25.2319C10.508 26.3214 12.5391 26.9288 14.6232 26.9943C16.7073 27.0598 18.7725 26.5811 20.6153 25.6054C22.4581 24.6297 24.0149 23.1907 25.1322 21.4301L15.0001 15.0001L15.0001 3Z" fill="#9F2241"/>
<circle cx="15" cy="15" r="9" fill="white"/>
<path d="M12.2638 10.2V20H10.4438V11.726H8.37177V10.2H12.2638ZM18.3798 14.246C19.2851 14.358 19.9758 14.666 20.4518 15.17C20.9278 15.674 21.1658 16.304 21.1658 17.06C21.1658 17.6293 21.0211 18.1473 20.7318 18.614C20.4425 19.0807 20.0038 19.454 19.4158 19.734C18.8371 20.0047 18.1278 20.14 17.2878 20.14C16.5878 20.14 15.9111 20.042 15.2578 19.846C14.6138 19.6407 14.0631 19.3607 13.6058 19.006L14.3898 17.592C14.7445 17.8907 15.1738 18.1287 15.6778 18.306C16.1911 18.474 16.7185 18.558 17.2598 18.558C17.9038 18.558 18.4078 18.4273 18.7718 18.166C19.1451 17.8953 19.3318 17.5313 19.3318 17.074C19.3318 16.6167 19.1545 16.262 18.7998 16.01C18.4545 15.7487 17.9225 15.618 17.2038 15.618H16.3078V14.372L18.5338 11.726H14.0818V10.2H20.7598V11.418L18.3798 14.246Z" fill="#666666"/>
</svg>
