<svg width="30" height="30" viewBox="0 0 30 30" fill="none" xmlns="http://www.w3.org/2000/svg">
<circle cx="15" cy="15" r="12" fill="#DDC9A3"/>
<path d="M15.0001 3C12.915 3 10.8658 3.54333 9.05456 4.57644C7.24332 5.60955 5.73254 7.09678 4.67111 8.89156C3.60968 10.6863 3.03423 12.7267 3.00148 14.8116C2.96873 16.8965 3.4798 18.954 4.48433 20.7812C5.48887 22.6085 6.95218 24.1424 8.73007 25.2319C10.508 26.3214 12.5391 26.9288 14.6232 26.9943C16.7073 27.0598 18.7725 26.5811 20.6153 25.6054C22.4581 24.6297 24.0149 23.1907 25.1322 21.4301L15.0001 15.0001L15.0001 3Z" fill="#9F2241"/>
<circle cx="15" cy="15" r="9" fill="white"/>
<path d="M12.2501 10.2V20H10.4301V11.726H8.35809V10.2H12.2501ZM17.2601 13.994C18.6415 13.994 19.6635 14.2647 20.3261 14.806C20.9888 15.338 21.3201 16.066 21.3201 16.99C21.3201 17.578 21.1755 18.11 20.8861 18.586C20.5968 19.062 20.1628 19.44 19.5841 19.72C19.0055 20 18.2915 20.14 17.4421 20.14C16.7421 20.14 16.0655 20.042 15.4121 19.846C14.7588 19.6407 14.2081 19.3607 13.7601 19.006L14.5301 17.592C14.8941 17.8907 15.3281 18.1287 15.8321 18.306C16.3455 18.474 16.8728 18.558 17.4141 18.558C18.0581 18.558 18.5621 18.4273 18.9261 18.166C19.2995 17.8953 19.4861 17.5267 19.4861 17.06C19.4861 16.556 19.2855 16.178 18.8841 15.926C18.4921 15.6647 17.8155 15.534 16.8541 15.534H14.4881L14.9921 10.2H20.7461V11.726H16.5321L16.3221 13.994H17.2601Z" fill="#666666"/>
</svg>
