<svg xmlns="http://www.w3.org/2000/svg" width="30" height="30" fill="none" viewBox="0 0 30 30">
    <circle cx="15" cy="15" r="12" fill="#DDC9A3"/>
    <path fill="#9F2241" d="M15 3c-2.085 0-4.134.543-5.945 1.576C7.243 5.61 5.733 7.096 4.67 8.892c-1.061 1.794-1.637 3.835-1.67 5.92-.032 2.085.479 4.142 1.483 5.97 1.005 1.826 2.468 3.36 4.246 4.45 1.778 1.09 3.81 1.697 5.893 1.762 2.084.066 4.15-.413 5.992-1.389 1.843-.975 3.4-2.414 4.517-4.175L15 15V3z"/>
    <circle cx="15" cy="15" r="9" fill="#fff"/>
    <path fill="#666" d="M12.45 10.2V20h-1.82v-8.274H8.556V10.2h3.892zm6.395 3.752c.644 0 1.223.126 1.736.378.514.243.915.593 1.204 1.05.29.457.434.985.434 1.582 0 .635-.158 1.195-.476 1.68-.317.476-.746.845-1.288 1.106-.541.261-1.148.392-1.82.392-1.344 0-2.389-.42-3.136-1.26-.737-.84-1.106-2.044-1.106-3.612 0-1.101.201-2.04.602-2.814.402-.784.962-1.377 1.68-1.778.728-.41 1.568-.616 2.52-.616.504 0 .976.056 1.414.168.448.103.836.257 1.162.462l-.672 1.372c-.485-.317-1.106-.476-1.862-.476-.942 0-1.68.29-2.212.868-.532.579-.798 1.414-.798 2.506v.014c.29-.336.658-.588 1.106-.756.448-.177.952-.266 1.512-.266zm-.308 4.76c.57 0 1.032-.15 1.386-.448.355-.308.532-.714.532-1.218 0-.513-.177-.92-.532-1.218-.354-.299-.83-.448-1.428-.448-.588 0-1.068.159-1.442.476-.364.317-.546.719-.546 1.204 0 .476.178.873.532 1.19.364.308.864.462 1.498.462z"/>
</svg>
