<svg xmlns="http://www.w3.org/2000/svg" width="30" height="30" fill="none" viewBox="0 0 30 30">
    <circle cx="15" cy="15" r="12" fill="#DDC9A3"/>
    <path fill="#9F2241" d="M15 3c-2.085 0-4.134.543-5.945 1.576C7.243 5.61 5.733 7.096 4.67 8.892c-1.061 1.794-1.637 3.835-1.67 5.92-.032 2.085.479 4.142 1.483 5.97 1.005 1.826 2.468 3.36 4.246 4.45 1.778 1.09 3.81 1.697 5.893 1.762 2.084.066 4.15-.413 5.992-1.389 1.843-.975 3.4-2.414 4.517-4.175L15 15V3z"/>
    <circle cx="15" cy="15" r="9" fill="#fff"/>
    <path fill="#666" d="M12.272 10.2V20h-1.82v-8.274H8.38V10.2h3.892zm8.3 4.648c.513.233.905.55 1.176.952.28.392.42.854.42 1.386 0 .597-.168 1.12-.504 1.568-.327.448-.794.793-1.4 1.036-.607.233-1.312.35-2.114.35-.803 0-1.508-.117-2.114-.35-.598-.243-1.06-.588-1.386-1.036-.327-.448-.49-.97-.49-1.568 0-.532.135-.994.406-1.386.27-.401.658-.719 1.162-.952-.392-.215-.696-.495-.91-.84-.206-.355-.308-.76-.308-1.218 0-.55.149-1.031.448-1.442.308-.41.737-.728 1.288-.952.55-.224 1.185-.336 1.904-.336.728 0 1.367.112 1.918.336.55.224.98.541 1.288.952.308.41.462.891.462 1.442 0 .457-.108.859-.322 1.204-.215.345-.523.63-.924.854zm-2.422-3.36c-.57 0-1.022.121-1.358.364-.327.243-.49.583-.49 1.022 0 .42.163.756.49 1.008.336.243.788.364 1.358.364.578 0 1.036-.121 1.372-.364.336-.252.504-.588.504-1.008 0-.439-.173-.78-.518-1.022-.336-.243-.79-.364-1.358-.364zm0 7.224c.672 0 1.204-.14 1.596-.42.392-.28.588-.667.588-1.162 0-.485-.196-.868-.588-1.148-.392-.28-.924-.42-1.596-.42s-1.2.14-1.582.42c-.383.28-.574.663-.574 1.148 0 .495.19.882.574 1.162.382.28.91.42 1.582.42z"/>
</svg>
