<svg xmlns="http://www.w3.org/2000/svg" width="30" height="30" fill="none" viewBox="0 0 30 30">
    <circle cx="15" cy="15" r="12" fill="#DDC9A3"/>
    <path fill="#9F2241" d="M15 3c-2.085 0-4.134.543-5.945 1.576C7.243 5.61 5.733 7.096 4.67 8.892c-1.061 1.794-1.637 3.835-1.67 5.92-.032 2.085.479 4.142 1.483 5.97 1.005 1.826 2.468 3.36 4.246 4.45 1.778 1.09 3.81 1.697 5.893 1.762 2.084.066 4.15-.413 5.992-1.389 1.843-.975 3.4-2.414 4.517-4.175L15 15V3z"/>
    <circle cx="15" cy="15" r="9" fill="#fff"/>
    <path fill="#666" d="M12.45 10.2V20h-1.82v-8.274H8.556V10.2h3.892zm5.247-.14c1.344 0 2.385.42 3.122 1.26.747.84 1.12 2.044 1.12 3.612 0 1.101-.2 2.044-.602 2.828-.401.775-.966 1.367-1.694 1.778-.718.401-1.554.602-2.506.602-.504 0-.98-.051-1.428-.154-.438-.112-.821-.27-1.148-.476l.672-1.372c.486.317 1.106.476 1.862.476.943 0 1.68-.29 2.212-.868.532-.579.798-1.414.798-2.506v-.014c-.289.336-.658.593-1.106.77-.448.168-.952.252-1.512.252-.644 0-1.222-.121-1.736-.364-.513-.252-.914-.607-1.204-1.064-.289-.457-.434-.985-.434-1.582 0-.635.159-1.19.476-1.666.318-.485.747-.859 1.288-1.12.542-.261 1.148-.392 1.82-.392zm.14 4.76c.588 0 1.064-.159 1.428-.476.374-.317.56-.719.56-1.204 0-.476-.182-.868-.546-1.176-.354-.317-.849-.476-1.484-.476-.569 0-1.031.154-1.386.462-.354.299-.532.7-.532 1.204 0 .513.178.92.532 1.218.355.299.831.448 1.428.448z"/>
</svg>
