<svg xmlns="http://www.w3.org/2000/svg" width="25" height="25" fill="none" viewBox="0 0 25 25">
    <circle cx="12.281" cy="12.964" r="12" fill="#DDC9A3"/>
    <path fill="#9D2449" stroke="#9D2449" stroke-width=".1" d="M7.781 19.46l-2.514 3.18C-.22 18.96-.233 11.96.897 9.26l3.884 1.7c-.5 1.301-1.66 4.692 3 8.5z"/>
    <path fill="#9D2449" stroke="#9D2449" stroke-width=".1" d="M4.78 10.96L.837 9.46c2.03-6.5 7.93-8.5 11.43-8.5l.014 4c-2.5 0-5.39.8-7.5 6z"/>
    <circle cx="12.281" cy="12.961" r="8" fill="#fff"/>
    <path fill="#666" d="M16.421 16.42v1.54H9.197v-1.217l3.892-3.696c.439-.42.733-.784.882-1.092.159-.317.238-.63.238-.938 0-.457-.154-.807-.462-1.05-.308-.243-.76-.364-1.358-.364-.999 0-1.764.34-2.296 1.022l-1.274-.98c.383-.513.896-.91 1.54-1.19.653-.29 1.381-.434 2.184-.434 1.064 0 1.913.252 2.548.756s.952 1.19.952 2.058c0 .532-.112 1.031-.336 1.498-.224.467-.653.999-1.288 1.596l-2.618 2.492h4.62z"/>
</svg>
