<svg xmlns="http://www.w3.org/2000/svg" width="30" height="30" fill="none" viewBox="0 0 30 30">
    <circle cx="15" cy="15" r="12" fill="#DDC9A3"/>
    <path fill="#9F2241" d="M15 3c-2.085 0-4.134.543-5.945 1.576C7.243 5.61 5.733 7.096 4.67 8.892c-1.061 1.794-1.637 3.835-1.67 5.92-.032 2.085.479 4.142 1.483 5.97 1.005 1.826 2.468 3.36 4.246 4.45 1.778 1.09 3.81 1.697 5.893 1.762 2.084.066 4.15-.413 5.992-1.389 1.843-.975 3.4-2.414 4.517-4.175L15 15V3z"/>
    <circle cx="15" cy="15" r="9" fill="#fff"/>
    <path fill="#666" d="M13.95 18.46V20H6.726v-1.218l3.892-3.696c.439-.42.733-.784.882-1.092.159-.317.238-.63.238-.938 0-.457-.154-.807-.462-1.05-.308-.243-.76-.364-1.358-.364-.998 0-1.764.34-2.296 1.022l-1.274-.98c.383-.513.896-.91 1.54-1.19.654-.29 1.382-.434 2.184-.434 1.064 0 1.914.252 2.548.756.635.504.952 1.19.952 2.058 0 .532-.112 1.031-.336 1.498-.224.467-.653.999-1.288 1.596L9.33 18.46h4.62zm5.098 1.68c-.784 0-1.484-.196-2.1-.588-.616-.401-1.102-.98-1.456-1.736-.355-.765-.532-1.67-.532-2.716 0-1.045.177-1.946.532-2.702.354-.765.84-1.344 1.456-1.736.616-.401 1.316-.602 2.1-.602s1.484.2 2.1.602c.625.392 1.115.97 1.47 1.736.354.756.532 1.657.532 2.702s-.178 1.95-.532 2.716c-.355.756-.845 1.335-1.47 1.736-.616.392-1.316.588-2.1.588zm0-1.582c.7 0 1.25-.29 1.652-.868.41-.579.616-1.442.616-2.59s-.206-2.011-.616-2.59c-.402-.579-.952-.868-1.652-.868-.69 0-1.242.29-1.652.868-.402.579-.602 1.442-.602 2.59s.2 2.011.602 2.59c.41.579.961.868 1.652.868z"/>
</svg>
