<svg xmlns="http://www.w3.org/2000/svg" width="30" height="30" fill="none" viewBox="0 0 30 30">
    <circle cx="15" cy="15" r="12" fill="#DDC9A3"/>
    <path fill="#9F2241" d="M15 3c-2.085 0-4.134.543-5.945 1.576C7.243 5.61 5.733 7.096 4.67 8.892c-1.061 1.794-1.637 3.835-1.67 5.92-.032 2.085.479 4.142 1.483 5.97 1.005 1.826 2.468 3.36 4.246 4.45 1.778 1.09 3.81 1.697 5.893 1.762 2.084.066 4.15-.413 5.992-1.389 1.843-.975 3.4-2.414 4.517-4.175L15 15V3z"/>
    <circle cx="15" cy="15" r="9" fill="#fff"/>
    <path fill="#666" d="M15.066 18.46V20H7.842v-1.218l3.892-3.696c.438-.42.732-.784.882-1.092.158-.317.238-.63.238-.938 0-.457-.154-.807-.462-1.05-.308-.243-.761-.364-1.358-.364-1 0-1.764.34-2.296 1.022l-1.274-.98c.382-.513.896-.91 1.54-1.19.653-.29 1.38-.434 2.184-.434 1.064 0 1.913.252 2.548.756.634.504.952 1.19.952 2.058 0 .532-.112 1.031-.336 1.498-.224.467-.654.999-1.288 1.596l-2.618 2.492h4.62zm5.222-4.214c.905.112 1.596.42 2.072.924s.714 1.134.714 1.89c0 .57-.145 1.087-.434 1.554-.29.467-.728.84-1.316 1.12-.579.27-1.288.406-2.128.406-.7 0-1.377-.098-2.03-.294-.644-.205-1.195-.485-1.652-.84l.784-1.414c.355.299.784.537 1.288.714.513.168 1.04.252 1.582.252.644 0 1.148-.13 1.512-.392.373-.27.56-.635.56-1.092 0-.457-.177-.812-.532-1.064-.345-.261-.877-.392-1.596-.392h-.896v-1.246l2.226-2.646H15.99V10.2h6.678v1.218l-2.38 2.828z"/>
</svg>
