<svg xmlns="http://www.w3.org/2000/svg" width="30" height="30" fill="none" viewBox="0 0 30 30">
    <circle cx="15" cy="15" r="12" fill="#DDC9A3"/>
    <path fill="#9F2241" d="M15 3c-2.085 0-4.134.543-5.945 1.576C7.243 5.61 5.733 7.096 4.67 8.892c-1.061 1.794-1.637 3.835-1.67 5.92-.032 2.085.479 4.142 1.483 5.97 1.005 1.826 2.468 3.36 4.246 4.45 1.778 1.09 3.81 1.697 5.893 1.762 2.084.066 4.15-.413 5.992-1.389 1.843-.975 3.4-2.414 4.517-4.175L15 15V3z"/>
    <circle cx="15" cy="15" r="9" fill="#fff"/>
    <path fill="#666" d="M13.991 18.46V20H6.767v-1.218l3.892-3.696c.439-.42.733-.784.882-1.092.159-.317.238-.63.238-.938 0-.457-.154-.807-.462-1.05-.308-.243-.76-.364-1.358-.364-.998 0-1.764.34-2.296 1.022l-1.274-.98c.383-.513.896-.91 1.54-1.19.654-.29 1.382-.434 2.184-.434 1.064 0 1.914.252 2.548.756.635.504.952 1.19.952 2.058 0 .532-.112 1.031-.336 1.498-.224.467-.653.999-1.288 1.596L9.371 18.46h4.62zm9.582-.686h-1.736V20h-1.764v-2.226h-5.376v-1.26l4.83-6.314h1.946l-4.55 6.034h3.206V14.26h1.708v1.974h1.736v1.54z"/>
</svg>
