<svg xmlns="http://www.w3.org/2000/svg" width="30" height="30" fill="none" viewBox="0 0 30 30">
    <circle cx="15" cy="15" r="12" fill="#DDC9A3"/>
    <path fill="#9F2241" d="M15 3c-2.085 0-4.134.543-5.945 1.576C7.243 5.61 5.733 7.096 4.67 8.892c-1.061 1.794-1.637 3.835-1.67 5.92-.032 2.085.479 4.142 1.483 5.97 1.005 1.826 2.468 3.36 4.246 4.45 1.778 1.09 3.81 1.697 5.893 1.762 2.084.066 4.15-.413 5.992-1.389 1.843-.975 3.4-2.414 4.517-4.175L15 15V3z"/>
    <circle cx="15" cy="15" r="9" fill="#fff"/>
    <path fill="#666" d="M15.052 18.46V20H7.828v-1.218l3.892-3.696c.439-.42.733-.784.882-1.092.159-.317.238-.63.238-.938 0-.457-.154-.807-.462-1.05-.308-.243-.76-.364-1.358-.364-.999 0-1.764.34-2.296 1.022l-1.274-.98c.383-.513.896-.91 1.54-1.19.653-.29 1.381-.434 2.184-.434 1.064 0 1.913.252 2.548.756s.952 1.19.952 2.058c0 .532-.112 1.031-.336 1.498-.224.467-.653.999-1.288 1.596l-2.618 2.492h4.62zm4.116-4.466c1.382 0 2.404.27 3.066.812.663.532.994 1.26.994 2.184 0 .588-.144 1.12-.434 1.596-.289.476-.723.854-1.302 1.134-.578.28-1.292.42-2.142.42-.7 0-1.376-.098-2.03-.294-.653-.205-1.204-.485-1.652-.84l.77-1.414c.364.299.798.537 1.302.714.514.168 1.041.252 1.582.252.644 0 1.148-.13 1.512-.392.374-.27.56-.64.56-1.106 0-.504-.2-.882-.602-1.134-.392-.261-1.068-.392-2.03-.392h-2.366L16.9 10.2h5.754v1.526H18.44l-.21 2.268h.938z"/>
</svg>
