<svg width="30" height="30" viewBox="0 0 30 30" fill="none" xmlns="http://www.w3.org/2000/svg">
<circle cx="15" cy="15" r="12" fill="#DDC9A3"/>
<path d="M15.0001 3C12.8478 3 10.7352 3.57885 8.88345 4.67591C7.03175 5.77297 5.50918 7.34785 4.47527 9.23554C3.44136 11.1232 2.93417 13.2543 3.00684 15.4053C3.07952 17.5564 3.72938 19.6483 4.88833 21.4619C6.04729 23.2755 7.67268 24.744 9.59421 25.7136C11.5157 26.6832 13.6627 27.1181 15.81 26.9729C17.9574 26.8276 20.0262 26.1075 21.7997 24.888C23.5731 23.6684 24.9859 21.9944 25.89 20.0412L15.0001 15.0001L15.0001 3Z" fill="#9F2241"/>
<circle cx="15" cy="15" r="9" fill="white"/>
<path d="M14.9015 18.46V20H7.6775V18.782L11.5695 15.086C12.0082 14.666 12.3022 14.302 12.4515 13.994C12.6102 13.6767 12.6895 13.364 12.6895 13.056C12.6895 12.5987 12.5355 12.2487 12.2275 12.006C11.9195 11.7633 11.4668 11.642 10.8695 11.642C9.87083 11.642 9.1055 11.9827 8.5735 12.664L7.2995 11.684C7.68217 11.1707 8.1955 10.774 8.8395 10.494C9.49283 10.2047 10.2208 10.06 11.0235 10.06C12.0875 10.06 12.9368 10.312 13.5715 10.816C14.2062 11.32 14.5235 12.006 14.5235 12.874C14.5235 13.406 14.4115 13.9053 14.1875 14.372C13.9635 14.8387 13.5342 15.3707 12.8995 15.968L10.2815 18.46H14.9015ZM23.3029 10.2V11.418L19.4949 20H17.5489L21.2309 11.74H17.3809V13.406H15.6869V10.2H23.3029Z" fill="#666666"/>
</svg>
