<svg width="30" height="30" viewBox="0 0 30 30" fill="none" xmlns="http://www.w3.org/2000/svg">
<circle cx="15" cy="15" r="12" fill="#DDC9A3"/>
<path d="M15.0001 3C12.819 3 10.6792 3.59444 8.81063 4.71941C6.94206 5.84438 5.41542 7.45734 4.39483 9.38491C3.37423 11.3125 2.89828 13.4817 3.01813 15.6595C3.13798 17.8373 3.8491 19.9413 5.07505 21.7452C6.301 23.5491 7.99542 24.9848 9.97615 25.898C11.9569 26.8111 14.149 27.1671 16.3169 26.9278C18.4849 26.6884 20.5465 25.8628 22.2804 24.5396C24.0142 23.2163 25.3546 21.4456 26.1576 19.4177L15.0001 15.0001L15.0001 3Z" fill="#9F2241"/>
<circle cx="15" cy="15" r="9" fill="white"/>
<path d="M14.0734 18.46V20H6.84938V18.782L10.7414 15.086C11.18 14.666 11.474 14.302 11.6234 13.994C11.782 13.6767 11.8614 13.364 11.8614 13.056C11.8614 12.5987 11.7074 12.2487 11.3994 12.006C11.0914 11.7633 10.6387 11.642 10.0414 11.642C9.04271 11.642 8.27738 11.9827 7.74538 12.664L6.47138 11.684C6.85404 11.1707 7.36738 10.774 8.01138 10.494C8.66471 10.2047 9.39271 10.06 10.1954 10.06C11.2594 10.06 12.1087 10.312 12.7434 10.816C13.378 11.32 13.6954 12.006 13.6954 12.874C13.6954 13.406 13.5834 13.9053 13.3594 14.372C13.1354 14.8387 12.706 15.3707 12.0714 15.968L9.45338 18.46H14.0734ZM21.4798 14.848C21.9931 15.0813 22.3851 15.3987 22.6558 15.8C22.9358 16.192 23.0758 16.654 23.0758 17.186C23.0758 17.7833 22.9078 18.306 22.5718 18.754C22.2451 19.202 21.7785 19.5473 21.1718 19.79C20.5651 20.0233 19.8605 20.14 19.0578 20.14C18.2551 20.14 17.5505 20.0233 16.9438 19.79C16.3465 19.5473 15.8845 19.202 15.5578 18.754C15.2311 18.306 15.0678 17.7833 15.0678 17.186C15.0678 16.654 15.2031 16.192 15.4738 15.8C15.7445 15.3987 16.1318 15.0813 16.6358 14.848C16.2438 14.6333 15.9405 14.3533 15.7258 14.008C15.5205 13.6533 15.4178 13.2473 15.4178 12.79C15.4178 12.2393 15.5671 11.7587 15.8658 11.348C16.1738 10.9373 16.6031 10.62 17.1538 10.396C17.7045 10.172 18.3391 10.06 19.0578 10.06C19.7858 10.06 20.4251 10.172 20.9758 10.396C21.5265 10.62 21.9558 10.9373 22.2638 11.348C22.5718 11.7587 22.7258 12.2393 22.7258 12.79C22.7258 13.2473 22.6185 13.6487 22.4038 13.994C22.1891 14.3393 21.8811 14.624 21.4798 14.848ZM19.0578 11.488C18.4885 11.488 18.0358 11.6093 17.6998 11.852C17.3731 12.0947 17.2098 12.4353 17.2098 12.874C17.2098 13.294 17.3731 13.63 17.6998 13.882C18.0358 14.1247 18.4885 14.246 19.0578 14.246C19.6365 14.246 20.0938 14.1247 20.4298 13.882C20.7658 13.63 20.9338 13.294 20.9338 12.874C20.9338 12.4353 20.7611 12.0947 20.4158 11.852C20.0798 11.6093 19.6271 11.488 19.0578 11.488ZM19.0578 18.712C19.7298 18.712 20.2618 18.572 20.6538 18.292C21.0458 18.012 21.2418 17.6247 21.2418 17.13C21.2418 16.6447 21.0458 16.262 20.6538 15.982C20.2618 15.702 19.7298 15.562 19.0578 15.562C18.3858 15.562 17.8585 15.702 17.4758 15.982C17.0931 16.262 16.9018 16.6447 16.9018 17.13C16.9018 17.6247 17.0931 18.012 17.4758 18.292C17.8585 18.572 18.3858 18.712 19.0578 18.712Z" fill="#666666"/>
</svg>
