<svg width="30" height="30" viewBox="0 0 30 30" fill="none" xmlns="http://www.w3.org/2000/svg">
<circle cx="15" cy="15" r="12" fill="#DDC9A3"/>
<path d="M15.0001 3C12.7576 3 10.5599 3.62838 8.65636 4.81387C6.7528 5.99937 5.21951 7.69454 4.23038 9.70714C3.24125 11.7197 2.83586 13.9692 3.06019 16.2005C3.28452 18.4318 4.12958 20.5556 5.49955 22.331C6.86952 24.1064 8.70957 25.4625 10.811 26.2453C12.9125 27.0282 15.1912 27.2065 17.3889 26.7601C19.5865 26.3137 21.6151 25.2604 23.2446 23.7197C24.8741 22.179 26.0393 20.2125 26.608 18.0433L15.0001 15.0001L15.0001 3Z" fill="#9F2241"/>
<circle cx="15" cy="15" r="9" fill="white"/>
<path d="M14.7511 18.46V20H7.52711V18.782L11.4191 15.086C11.8578 14.666 12.1518 14.302 12.3011 13.994C12.4598 13.6767 12.5391 13.364 12.5391 13.056C12.5391 12.5987 12.3851 12.2487 12.0771 12.006C11.7691 11.7633 11.3164 11.642 10.7191 11.642C9.72044 11.642 8.95511 11.9827 8.42311 12.664L7.14911 11.684C7.53178 11.1707 8.04511 10.774 8.68911 10.494C9.34244 10.2047 10.0704 10.06 10.8731 10.06C11.9371 10.06 12.7864 10.312 13.4211 10.816C14.0558 11.32 14.3731 12.006 14.3731 12.874C14.3731 13.406 14.2611 13.9053 14.0371 14.372C13.8131 14.8387 13.3838 15.3707 12.7491 15.968L10.1311 18.46H14.7511ZM19.1055 10.06C20.4495 10.06 21.4902 10.48 22.2275 11.32C22.9742 12.16 23.3475 13.364 23.3475 14.932C23.3475 16.0333 23.1469 16.976 22.7455 17.76C22.3442 18.5347 21.7795 19.1273 21.0515 19.538C20.3329 19.9393 19.4975 20.14 18.5455 20.14C18.0415 20.14 17.5655 20.0887 17.1175 19.986C16.6789 19.874 16.2962 19.7153 15.9695 19.51L16.6415 18.138C17.1269 18.4553 17.7475 18.614 18.5035 18.614C19.4462 18.614 20.1835 18.3247 20.7155 17.746C21.2475 17.1673 21.5135 16.332 21.5135 15.24V15.226C21.2242 15.562 20.8555 15.8187 20.4075 15.996C19.9595 16.164 19.4555 16.248 18.8955 16.248C18.2515 16.248 17.6729 16.1267 17.1595 15.884C16.6462 15.632 16.2449 15.2773 15.9555 14.82C15.6662 14.3627 15.5215 13.8353 15.5215 13.238C15.5215 12.6033 15.6802 12.048 15.9975 11.572C16.3149 11.0867 16.7442 10.7133 17.2855 10.452C17.8269 10.1907 18.4335 10.06 19.1055 10.06ZM19.2455 14.82C19.8335 14.82 20.3095 14.6613 20.6735 14.344C21.0469 14.0267 21.2335 13.6253 21.2335 13.14C21.2335 12.664 21.0515 12.272 20.6875 11.964C20.3329 11.6467 19.8382 11.488 19.2035 11.488C18.6342 11.488 18.1722 11.642 17.8175 11.95C17.4629 12.2487 17.2855 12.65 17.2855 13.154C17.2855 13.6673 17.4629 14.0733 17.8175 14.372C18.1722 14.6707 18.6482 14.82 19.2455 14.82Z" fill="#666666"/>
</svg>
