<svg xmlns="http://www.w3.org/2000/svg" width="25" height="25" fill="none" viewBox="0 0 25 25">
    <circle cx="12.281" cy="12.967" r="12" fill="#DDC9A3"/>
    <path fill="#9D2449" stroke="#9D2449" stroke-width=".1" d="M7.781 19.464l-2.514 3.18c-5.486-3.68-5.5-10.68-4.37-13.38l3.884 1.7c-.5 1.3-1.66 4.69 3 8.5z"/>
    <path fill="#9D2449" stroke="#9D2449" stroke-width=".1" d="M7.781 19.464l-3 2.84c3 2.66 9.5 4.16 14.8.178l-2.8-3.518c-4.234 2.607-6.93 1.998-9 .5zM4.78 10.964l-3.944-1.5c2.03-6.5 7.93-8.5 11.43-8.5l.014 4c-2.5 0-5.39.8-7.5 6z"/>
    <circle cx="12.281" cy="12.964" r="8" fill="#fff"/>
    <path fill="#666" d="M13.495 12.21c.905.112 1.596.42 2.072.924s.714 1.134.714 1.89c0 .57-.145 1.087-.434 1.554-.29.466-.728.84-1.316 1.12-.579.27-1.288.406-2.128.406-.7 0-1.377-.098-2.03-.294-.644-.205-1.195-.485-1.652-.84l.784-1.414c.355.299.784.537 1.288.714.513.168 1.04.252 1.582.252.644 0 1.148-.13 1.512-.392.373-.27.56-.635.56-1.092 0-.457-.177-.812-.532-1.064-.345-.261-.877-.392-1.596-.392h-.896v-1.246l2.226-2.646H9.197V8.164h6.678v1.218l-2.38 2.828z"/>
</svg>
