<svg width="30" height="30" viewBox="0 0 30 30" fill="none" xmlns="http://www.w3.org/2000/svg">
<circle cx="15" cy="15" r="12" fill="#DDC9A3"/>
<path d="M15.0001 3C12.723 3 10.4928 3.64792 8.57014 4.86808C6.64747 6.08825 5.11165 7.83028 4.14209 9.89072C3.17252 11.9512 2.80922 14.2449 3.09462 16.5041C3.38003 18.7633 4.30235 20.8947 5.75387 22.6493C7.20539 24.4039 9.12617 25.7092 11.2919 26.4129C13.4576 27.1166 15.7788 27.1895 17.9844 26.6232C20.19 26.0569 22.189 24.8747 23.7478 23.2148C25.3067 21.5548 26.361 19.4855 26.7877 17.2487L15.0001 15.0001L15.0001 3Z" fill="#9F2241"/>
<circle cx="15" cy="15" r="9" fill="white"/>
<path d="M11.0038 14.246C11.9092 14.358 12.5998 14.666 13.0758 15.17C13.5518 15.674 13.7898 16.304 13.7898 17.06C13.7898 17.6293 13.6452 18.1473 13.3558 18.614C13.0665 19.0807 12.6278 19.454 12.0398 19.734C11.4612 20.0047 10.7518 20.14 9.91182 20.14C9.21182 20.14 8.53515 20.042 7.88182 19.846C7.23782 19.6407 6.68715 19.3607 6.22982 19.006L7.01382 17.592C7.36849 17.8907 7.79782 18.1287 8.30182 18.306C8.81515 18.474 9.34249 18.558 9.88382 18.558C10.5278 18.558 11.0318 18.4273 11.3958 18.166C11.7692 17.8953 11.9558 17.5313 11.9558 17.074C11.9558 16.6167 11.7785 16.262 11.4238 16.01C11.0785 15.7487 10.5465 15.618 9.82782 15.618H8.93182V14.372L11.1578 11.726H6.70582V10.2H13.3838V11.418L11.0038 14.246ZM19.0683 20.14C18.2843 20.14 17.5843 19.944 16.9683 19.552C16.3523 19.1507 15.8669 18.572 15.5123 17.816C15.1576 17.0507 14.9803 16.1453 14.9803 15.1C14.9803 14.0547 15.1576 13.154 15.5123 12.398C15.8669 11.6327 16.3523 11.054 16.9683 10.662C17.5843 10.2607 18.2843 10.06 19.0683 10.06C19.8523 10.06 20.5523 10.2607 21.1683 10.662C21.7936 11.054 22.2836 11.6327 22.6383 12.398C22.9929 13.154 23.1703 14.0547 23.1703 15.1C23.1703 16.1453 22.9929 17.0507 22.6383 17.816C22.2836 18.572 21.7936 19.1507 21.1683 19.552C20.5523 19.944 19.8523 20.14 19.0683 20.14ZM19.0683 18.558C19.7683 18.558 20.3189 18.2687 20.7203 17.69C21.1309 17.1113 21.3363 16.248 21.3363 15.1C21.3363 13.952 21.1309 13.0887 20.7203 12.51C20.3189 11.9313 19.7683 11.642 19.0683 11.642C18.3776 11.642 17.8269 11.9313 17.4163 12.51C17.0149 13.0887 16.8143 13.952 16.8143 15.1C16.8143 16.248 17.0149 17.1113 17.4163 17.69C17.8269 18.2687 18.3776 18.558 19.0683 18.558Z" fill="#666666"/>
</svg>
