<svg width="30" height="30" viewBox="0 0 30 30" fill="none" xmlns="http://www.w3.org/2000/svg">
<circle cx="15" cy="15" r="12" fill="#DDC9A3"/>
<path d="M15.0001 3C12.6909 3 10.4307 3.66628 8.49076 4.9189C6.5508 6.17151 5.01345 7.95727 4.06317 10.0619C3.11289 12.1665 2.79005 14.5007 3.13336 16.7842C3.47668 19.0678 4.47158 21.2038 5.9987 22.9359C7.52581 24.6681 9.52028 25.9229 11.7428 26.5497C13.9653 27.1765 16.3215 27.1488 18.5286 26.4698C20.7358 25.7908 22.7001 24.4893 24.186 22.7217C25.6719 20.954 26.6162 18.7951 26.9056 16.5041L15.0001 15.0001L15.0001 3Z" fill="#9F2241"/>
<circle cx="15" cy="15" r="9" fill="white"/>
<path d="M13.0478 14.246C13.9531 14.358 14.6438 14.666 15.1198 15.17C15.5958 15.674 15.8338 16.304 15.8338 17.06C15.8338 17.6293 15.6891 18.1473 15.3998 18.614C15.1104 19.0807 14.6718 19.454 14.0838 19.734C13.5051 20.0047 12.7958 20.14 11.9558 20.14C11.2558 20.14 10.5791 20.042 9.92577 19.846C9.28177 19.6407 8.7311 19.3607 8.27377 19.006L9.05777 17.592C9.41243 17.8907 9.84177 18.1287 10.3458 18.306C10.8591 18.474 11.3864 18.558 11.9278 18.558C12.5718 18.558 13.0758 18.4273 13.4398 18.166C13.8131 17.8953 13.9998 17.5313 13.9998 17.074C13.9998 16.6167 13.8224 16.262 13.4678 16.01C13.1224 15.7487 12.5904 15.618 11.8718 15.618H10.9758V14.372L13.2018 11.726H8.74977V10.2H15.4278V11.418L13.0478 14.246ZM20.4122 10.2V20H18.5922V11.726H16.5202V10.2H20.4122Z" fill="#666666"/>
</svg>
