<svg width="30" height="30" viewBox="0 0 30 30" fill="none" xmlns="http://www.w3.org/2000/svg">
<circle cx="15" cy="15" r="12" fill="#DDC9A3"/>
<path d="M15.0001 3C12.6588 3 10.3687 3.6849 8.41178 4.97033C6.4549 6.25576 4.9168 8.08556 3.98695 10.2343C3.05711 12.383 2.77615 14.7569 3.17869 17.0633C3.58123 19.3697 4.64968 21.508 6.25241 23.2148C7.85514 24.9215 9.92214 26.1221 12.1987 26.6687C14.4754 27.2152 16.8621 27.0839 19.065 26.2908C21.2679 25.4977 23.1907 24.0775 24.5964 22.2052C26.0022 20.3329 26.8296 18.0903 26.9766 15.7536L15.0001 15.0001L15.0001 3Z" fill="#9F2241"/>
<circle cx="15" cy="15" r="9" fill="white"/>
<path d="M12.1737 14.246C13.0791 14.358 13.7697 14.666 14.2457 15.17C14.7217 15.674 14.9597 16.304 14.9597 17.06C14.9597 17.6293 14.8151 18.1473 14.5257 18.614C14.2364 19.0807 13.7977 19.454 13.2097 19.734C12.6311 20.0047 11.9217 20.14 11.0817 20.14C10.3817 20.14 9.70508 20.042 9.05174 19.846C8.40774 19.6407 7.85708 19.3607 7.39974 19.006L8.18374 17.592C8.53841 17.8907 8.96774 18.1287 9.47174 18.306C9.98508 18.474 10.5124 18.558 11.0537 18.558C11.6977 18.558 12.2017 18.4273 12.5657 18.166C12.9391 17.8953 13.1257 17.5313 13.1257 17.074C13.1257 16.6167 12.9484 16.262 12.5937 16.01C12.2484 15.7487 11.7164 15.618 10.9977 15.618H10.1017V14.372L12.3277 11.726H7.87574V10.2H14.5537V11.418L12.1737 14.246ZM23.1798 18.46V20H15.9558V18.782L19.8478 15.086C20.2865 14.666 20.5805 14.302 20.7298 13.994C20.8885 13.6767 20.9678 13.364 20.9678 13.056C20.9678 12.5987 20.8138 12.2487 20.5058 12.006C20.1978 11.7633 19.7452 11.642 19.1478 11.642C18.1492 11.642 17.3838 11.9827 16.8518 12.664L15.5778 11.684C15.9605 11.1707 16.4738 10.774 17.1178 10.494C17.7712 10.2047 18.4992 10.06 19.3018 10.06C20.3658 10.06 21.2152 10.312 21.8498 10.816C22.4845 11.32 22.8018 12.006 22.8018 12.874C22.8018 13.406 22.6898 13.9053 22.4658 14.372C22.2418 14.8387 21.8125 15.3707 21.1778 15.968L18.5598 18.46H23.1798Z" fill="#666666"/>
</svg>
