<svg width="30" height="30" viewBox="0 0 30 30" fill="none" xmlns="http://www.w3.org/2000/svg">
<circle cx="15" cy="15" r="12" fill="#DDC9A3"/>
<path d="M15.0001 3C12.6267 3 10.3066 3.70379 8.33321 5.02239C6.3598 6.34098 4.82172 8.21514 3.91345 10.4079C3.00519 12.6006 2.76755 15.0134 3.23058 17.3412C3.69361 19.669 4.83651 21.8072 6.51475 23.4855C8.193 25.1637 10.3312 26.3066 12.659 26.7697C14.9868 27.2327 17.3996 26.9951 19.5924 26.0868C21.7851 25.1785 23.6593 23.6404 24.9779 21.667C26.2964 19.6936 27.0002 17.3735 27.0002 15.0001H15.0001L15.0001 3Z" fill="#9F2241"/>
<circle cx="15" cy="15" r="9" fill="white"/>
<path d="M12.1737 14.246C13.0791 14.358 13.7697 14.666 14.2457 15.17C14.7217 15.674 14.9597 16.304 14.9597 17.06C14.9597 17.6293 14.8151 18.1473 14.5257 18.614C14.2364 19.0807 13.7977 19.454 13.2097 19.734C12.6311 20.0047 11.9217 20.14 11.0817 20.14C10.3817 20.14 9.70508 20.042 9.05174 19.846C8.40774 19.6407 7.85708 19.3607 7.39974 19.006L8.18374 17.592C8.53841 17.8907 8.96774 18.1287 9.47174 18.306C9.98508 18.474 10.5124 18.558 11.0537 18.558C11.6977 18.558 12.2017 18.4273 12.5657 18.166C12.9391 17.8953 13.1257 17.5313 13.1257 17.074C13.1257 16.6167 12.9484 16.262 12.5937 16.01C12.2484 15.7487 11.7164 15.618 10.9977 15.618H10.1017V14.372L12.3277 11.726H7.87574V10.2H14.5537V11.418L12.1737 14.246ZM20.2538 14.246C21.1592 14.358 21.8498 14.666 22.3258 15.17C22.8018 15.674 23.0398 16.304 23.0398 17.06C23.0398 17.6293 22.8952 18.1473 22.6058 18.614C22.3165 19.0807 21.8778 19.454 21.2898 19.734C20.7112 20.0047 20.0018 20.14 19.1618 20.14C18.4618 20.14 17.7852 20.042 17.1318 19.846C16.4878 19.6407 15.9372 19.3607 15.4798 19.006L16.2638 17.592C16.6185 17.8907 17.0478 18.1287 17.5518 18.306C18.0652 18.474 18.5925 18.558 19.1338 18.558C19.7778 18.558 20.2818 18.4273 20.6458 18.166C21.0192 17.8953 21.2058 17.5313 21.2058 17.074C21.2058 16.6167 21.0285 16.262 20.6738 16.01C20.3285 15.7487 19.7965 15.618 19.0778 15.618H18.1818V14.372L20.4078 11.726H15.9558V10.2H22.6338V11.418L20.2538 14.246Z" fill="#666666"/>
</svg>
