<svg width="30" height="30" viewBox="0 0 30 30" fill="none" xmlns="http://www.w3.org/2000/svg">
<circle cx="15" cy="15" r="12" fill="#DDC9A3"/>
<path d="M15.0001 3C12.5946 3 10.2446 3.72295 8.25505 5.07505C6.2655 6.42716 4.72822 8.34599 3.84269 10.5826C2.95716 12.8192 2.76425 15.2703 3.289 17.6179C3.81375 19.9655 5.03193 22.1011 6.78547 23.7478C8.53902 25.3945 10.747 26.4762 13.1229 26.8525C15.4988 27.2288 17.9329 26.8824 20.1095 25.8582C22.2861 24.8339 24.1046 23.1792 25.3291 21.1087C26.5536 19.0382 27.1276 16.6474 26.9766 14.2466L15.0001 15.0001L15.0001 3Z" fill="#9F2241"/>
<circle cx="15" cy="15" r="9" fill="white"/>
<path d="M10.9628 14.246C11.8681 14.358 12.5588 14.666 13.0348 15.17C13.5108 15.674 13.7488 16.304 13.7488 17.06C13.7488 17.6293 13.6041 18.1473 13.3148 18.614C13.0255 19.0807 12.5868 19.454 11.9988 19.734C11.4201 20.0047 10.7108 20.14 9.8708 20.14C9.1708 20.14 8.49414 20.042 7.8408 19.846C7.1968 19.6407 6.64614 19.3607 6.1888 19.006L6.9728 17.592C7.32747 17.8907 7.7568 18.1287 8.2608 18.306C8.77414 18.474 9.30147 18.558 9.84281 18.558C10.4868 18.558 10.9908 18.4273 11.3548 18.166C11.7281 17.8953 11.9148 17.5313 11.9148 17.074C11.9148 16.6167 11.7375 16.262 11.3828 16.01C11.0375 15.7487 10.5055 15.618 9.7868 15.618H8.8908V14.372L11.1168 11.726H6.6648V10.2H13.3428V11.418L10.9628 14.246ZM23.6752 17.774H21.9392V20H20.1752V17.774H14.7992V16.514L19.6292 10.2H21.5752L17.0252 16.234H20.2312V14.26H21.9392V16.234H23.6752V17.774Z" fill="#666666"/>
</svg>
