<svg width="30" height="30" viewBox="0 0 30 30" fill="none" xmlns="http://www.w3.org/2000/svg">
<circle cx="15" cy="15" r="12" fill="#DDC9A3"/>
<path d="M15.0001 3C12.5625 3 10.1826 3.74238 8.17731 5.12834C6.172 6.51429 4.63633 8.47809 3.77468 10.7584C2.91303 13.0387 2.76627 15.5273 3.35393 17.8931C3.94158 20.2588 5.23579 22.3895 7.0643 24.0015C8.89281 25.6136 11.1689 26.6305 13.5897 26.9171C16.0104 27.2036 18.461 26.7461 20.6153 25.6054C22.7697 24.4648 24.5255 22.6951 25.6492 20.5319C26.7729 18.3687 27.2111 15.9145 26.9056 13.4961L15.0001 15.0001L15.0001 3Z" fill="#9F2241"/>
<circle cx="15" cy="15" r="9" fill="white"/>
<path d="M12.1943 14.246C13.0996 14.358 13.7903 14.666 14.2663 15.17C14.7423 15.674 14.9803 16.304 14.9803 17.06C14.9803 17.6293 14.8356 18.1473 14.5463 18.614C14.2569 19.0807 13.8183 19.454 13.2303 19.734C12.6516 20.0047 11.9423 20.14 11.1022 20.14C10.4023 20.14 9.72558 20.042 9.07225 19.846C8.42825 19.6407 7.87758 19.3607 7.42025 19.006L8.20425 17.592C8.55892 17.8907 8.98825 18.1287 9.49225 18.306C10.0056 18.474 10.5329 18.558 11.0743 18.558C11.7183 18.558 12.2223 18.4273 12.5863 18.166C12.9596 17.8953 13.1463 17.5313 13.1463 17.074C13.1463 16.6167 12.9689 16.262 12.6143 16.01C12.2689 15.7487 11.7369 15.618 11.0183 15.618H10.1223V14.372L12.3483 11.726H7.89625V10.2H14.5743V11.418L12.1943 14.246ZM19.1 13.994C20.4813 13.994 21.5033 14.2647 22.166 14.806C22.8286 15.338 23.16 16.066 23.16 16.99C23.16 17.578 23.0153 18.11 22.726 18.586C22.4366 19.062 22.0026 19.44 21.424 19.72C20.8453 20 20.1313 20.14 19.282 20.14C18.582 20.14 17.9053 20.042 17.252 19.846C16.5986 19.6407 16.048 19.3607 15.6 19.006L16.37 17.592C16.734 17.8907 17.168 18.1287 17.672 18.306C18.1853 18.474 18.7126 18.558 19.254 18.558C19.898 18.558 20.402 18.4273 20.766 18.166C21.1393 17.8953 21.326 17.5267 21.326 17.06C21.326 16.556 21.1253 16.178 20.724 15.926C20.332 15.6647 19.6553 15.534 18.694 15.534H16.328L16.832 10.2H22.586V11.726H18.372L18.162 13.994H19.1Z" fill="#666666"/>
</svg>
