<svg width="30" height="30" viewBox="0 0 30 30" fill="none" xmlns="http://www.w3.org/2000/svg">
<circle cx="15" cy="15" r="12" fill="#DDC9A3"/>
<path d="M15.0001 3C12.4434 3 9.9535 3.81659 7.89336 5.33074C5.83322 6.8449 4.31053 8.97746 3.54724 11.4176C2.78396 13.8577 2.81997 16.4779 3.65004 18.8961C4.48011 21.3143 6.06083 23.4042 8.16181 24.8612C10.2628 26.3181 12.7742 27.066 15.33 26.9957C17.8857 26.9254 20.3522 26.0407 22.37 24.4705C24.3877 22.9003 25.8512 20.7267 26.5471 18.2665C27.2431 15.8063 27.1351 13.1882 26.2388 10.7937L15.0001 15.0001L15.0001 3Z" fill="#9F2241"/>
<circle cx="15" cy="15" r="9" fill="white"/>
<path d="M11.1474 14.246C12.0527 14.358 12.7434 14.666 13.2194 15.17C13.6954 15.674 13.9334 16.304 13.9334 17.06C13.9334 17.6293 13.7887 18.1473 13.4994 18.614C13.21 19.0807 12.7714 19.454 12.1834 19.734C11.6047 20.0047 10.8954 20.14 10.0554 20.14C9.35538 20.14 8.67871 20.042 8.02538 19.846C7.38138 19.6407 6.83071 19.3607 6.37338 19.006L7.15738 17.592C7.51204 17.8907 7.94138 18.1287 8.44538 18.306C8.95871 18.474 9.48604 18.558 10.0274 18.558C10.6714 18.558 11.1754 18.4273 11.5394 18.166C11.9127 17.8953 12.0994 17.5313 12.0994 17.074C12.0994 16.6167 11.922 16.262 11.5674 16.01C11.222 15.7487 10.69 15.618 9.97138 15.618H9.07538V14.372L11.3014 11.726H6.84938V10.2H13.5274V11.418L11.1474 14.246ZM21.4798 14.848C21.9931 15.0813 22.3851 15.3987 22.6558 15.8C22.9358 16.192 23.0758 16.654 23.0758 17.186C23.0758 17.7833 22.9078 18.306 22.5718 18.754C22.2451 19.202 21.7785 19.5473 21.1718 19.79C20.5651 20.0233 19.8605 20.14 19.0578 20.14C18.2551 20.14 17.5505 20.0233 16.9438 19.79C16.3465 19.5473 15.8845 19.202 15.5578 18.754C15.2311 18.306 15.0678 17.7833 15.0678 17.186C15.0678 16.654 15.2031 16.192 15.4738 15.8C15.7445 15.3987 16.1318 15.0813 16.6358 14.848C16.2438 14.6333 15.9405 14.3533 15.7258 14.008C15.5205 13.6533 15.4178 13.2473 15.4178 12.79C15.4178 12.2393 15.5671 11.7587 15.8658 11.348C16.1738 10.9373 16.6031 10.62 17.1538 10.396C17.7045 10.172 18.3391 10.06 19.0578 10.06C19.7858 10.06 20.4251 10.172 20.9758 10.396C21.5265 10.62 21.9558 10.9373 22.2638 11.348C22.5718 11.7587 22.7258 12.2393 22.7258 12.79C22.7258 13.2473 22.6185 13.6487 22.4038 13.994C22.1891 14.3393 21.8811 14.624 21.4798 14.848ZM19.0578 11.488C18.4885 11.488 18.0358 11.6093 17.6998 11.852C17.3731 12.0947 17.2098 12.4353 17.2098 12.874C17.2098 13.294 17.3731 13.63 17.6998 13.882C18.0358 14.1247 18.4885 14.246 19.0578 14.246C19.6365 14.246 20.0938 14.1247 20.4298 13.882C20.7658 13.63 20.9338 13.294 20.9338 12.874C20.9338 12.4353 20.7611 12.0947 20.4158 11.852C20.0798 11.6093 19.6271 11.488 19.0578 11.488ZM19.0578 18.712C19.7298 18.712 20.2618 18.572 20.6538 18.292C21.0458 18.012 21.2418 17.6247 21.2418 17.13C21.2418 16.6447 21.0458 16.262 20.6538 15.982C20.2618 15.702 19.7298 15.562 19.0578 15.562C18.3858 15.562 17.8585 15.702 17.4758 15.982C17.0931 16.262 16.9018 16.6447 16.9018 17.13C16.9018 17.6247 17.0931 18.012 17.4758 18.292C17.8585 18.572 18.3858 18.712 19.0578 18.712Z" fill="#666666"/>
</svg>
