<svg xmlns="http://www.w3.org/2000/svg" width="25" height="25" fill="none" viewBox="0 0 25 25">
    <circle cx="12.281" cy="12.97" r="12" fill="#DDC9A3"/>
    <path fill="#9D2449" stroke="#9D2449" stroke-width=".1" d="M7.781 19.467l-2.514 3.18c-5.486-3.68-5.5-10.68-4.37-13.38l3.884 1.7c-.5 1.3-1.66 4.69 3 8.5z"/>
    <path fill="#9D2449" stroke="#9D2449" stroke-width=".1" d="M7.781 19.467l-3 2.84c4 3.16 10.5 3.66 14.8.12l-2.8-3.46c-4.234 2.607-6.93 1.998-9 .5z"/>
    <path fill="#9D2449" stroke="#9D2449" stroke-width=".1" d="M23.523 8.897c1.882 5.058.26 11.07-4.24 13.77l-2.5-3.2c2.178-1.828 3.942-3.806 2.5-9.3l4.24-1.27zM4.78 10.967l-3.944-1.5c2.03-6.5 7.93-8.5 11.43-8.5l.014 4c-2.5 0-5.39.8-7.5 6z"/>
    <circle cx="12.281" cy="12.967" r="8" fill="#fff"/>
    <path fill="#666" d="M16.882 15.74h-1.736v2.227h-1.764V15.74H8.006v-1.26l4.83-6.314h1.946l-4.55 6.034h3.206v-1.974h1.708V14.2h1.736v1.54z"/>
</svg>
