<svg width="30" height="30" viewBox="0 0 30 30" fill="none" xmlns="http://www.w3.org/2000/svg">
<circle cx="15" cy="15" r="12" fill="#DDC9A3"/>
<path d="M15.0001 3C12.915 3 10.8658 3.54333 9.05456 4.57644C7.24332 5.60955 5.73254 7.09678 4.67111 8.89156C3.60968 10.6863 3.03423 12.7267 3.00148 14.8116C2.96873 16.8965 3.4798 18.954 4.48433 20.7812C5.48887 22.6085 6.95218 24.1424 8.73007 25.2319C10.508 26.3214 12.5391 26.9288 14.6232 26.9943C16.7073 27.0598 18.7725 26.5811 20.6153 25.6054C22.4581 24.6297 24.0149 23.1907 25.1322 21.4301L15.0001 15.0001L15.0001 3Z" fill="#9F2241"/>
<circle cx="15" cy="15" r="9" fill="white"/>
<path d="M15.3911 17.774H13.6551V20H11.8911V17.774H6.51506V16.514L11.3451 10.2H13.2911L8.74106 16.234H11.9471V14.26H13.6551V16.234H15.3911V17.774ZM20.245 20.14C19.461 20.14 18.761 19.944 18.145 19.552C17.529 19.1507 17.0437 18.572 16.689 17.816C16.3343 17.0507 16.157 16.1453 16.157 15.1C16.157 14.0547 16.3343 13.154 16.689 12.398C17.0437 11.6327 17.529 11.054 18.145 10.662C18.761 10.2607 19.461 10.06 20.245 10.06C21.029 10.06 21.729 10.2607 22.345 10.662C22.9703 11.054 23.4603 11.6327 23.815 12.398C24.1697 13.154 24.347 14.0547 24.347 15.1C24.347 16.1453 24.1697 17.0507 23.815 17.816C23.4603 18.572 22.9703 19.1507 22.345 19.552C21.729 19.944 21.029 20.14 20.245 20.14ZM20.245 18.558C20.945 18.558 21.4957 18.2687 21.897 17.69C22.3077 17.1113 22.513 16.248 22.513 15.1C22.513 13.952 22.3077 13.0887 21.897 12.51C21.4957 11.9313 20.945 11.642 20.245 11.642C19.5543 11.642 19.0037 11.9313 18.593 12.51C18.1917 13.0887 17.991 13.952 17.991 15.1C17.991 16.248 18.1917 17.1113 18.593 17.69C19.0037 18.2687 19.5543 18.558 20.245 18.558Z" fill="#666666"/>
</svg>
