<svg xmlns="http://www.w3.org/2000/svg" width="25" height="25" fill="none" viewBox="0 0 25 25">
    <circle cx="12.281" cy="12.97" r="12" fill="#9D2449"/>
    <circle cx="12.281" cy="12.967" r="8" fill="#fff"/>
    <path fill="#666" d="M12.375 11.96c1.382 0 2.404.271 3.066.813.663.532.994 1.26.994 2.184 0 .588-.144 1.12-.434 1.596-.289.476-.723.854-1.302 1.134-.578.28-1.292.42-2.142.42-.7 0-1.376-.098-2.03-.294-.653-.205-1.204-.485-1.652-.84l.77-1.414c.364.299.798.537 1.302.714.514.168 1.041.252 1.582.252.644 0 1.148-.13 1.512-.392.374-.27.56-.64.56-1.106 0-.504-.2-.882-.602-1.134-.392-.261-1.068-.392-2.03-.392H9.603l.504-5.334h5.754v1.526h-4.214l-.21 2.268h.938z"/>
</svg>
