<svg width="30" height="30" viewBox="0 0 30 30" fill="none" xmlns="http://www.w3.org/2000/svg">
<circle cx="15" cy="15" r="12" fill="#DDC9A3"/>
<path d="M15.0001 3C12.915 3 10.8658 3.54333 9.05456 4.57644C7.24332 5.60955 5.73254 7.09678 4.67111 8.89156C3.60968 10.6863 3.03423 12.7267 3.00148 14.8116C2.96873 16.8965 3.4798 18.954 4.48433 20.7812C5.48887 22.6085 6.95218 24.1424 8.73007 25.2319C10.508 26.3214 12.5391 26.9288 14.6232 26.9943C16.7073 27.0598 18.7725 26.5811 20.6153 25.6054C22.4581 24.6297 24.0149 23.1907 25.1322 21.4301L15.0001 15.0001L15.0001 3Z" fill="#9F2241"/>
<circle cx="15" cy="15" r="9" fill="white"/>
<path d="M16.1793 13.952C16.8233 13.952 17.402 14.078 17.9153 14.33C18.4287 14.5727 18.83 14.9227 19.1193 15.38C19.4087 15.8373 19.5533 16.3647 19.5533 16.962C19.5533 17.5967 19.3947 18.1567 19.0773 18.642C18.76 19.118 18.3307 19.4867 17.7893 19.748C17.248 20.0093 16.6413 20.14 15.9693 20.14C14.6253 20.14 13.58 19.72 12.8333 18.88C12.096 18.04 11.7273 16.836 11.7273 15.268C11.7273 14.1667 11.928 13.2287 12.3293 12.454C12.7307 11.67 13.2907 11.0773 14.0093 10.676C14.7373 10.2653 15.5773 10.06 16.5293 10.06C17.0333 10.06 17.5047 10.116 17.9433 10.228C18.3913 10.3307 18.7787 10.4847 19.1053 10.69L18.4333 12.062C17.948 11.7447 17.3273 11.586 16.5713 11.586C15.6287 11.586 14.8913 11.8753 14.3593 12.454C13.8273 13.0327 13.5613 13.868 13.5613 14.96V14.974C13.8507 14.638 14.2193 14.386 14.6673 14.218C15.1153 14.0407 15.6193 13.952 16.1793 13.952ZM15.8713 18.712C16.4407 18.712 16.9027 18.5627 17.2573 18.264C17.612 17.956 17.7893 17.55 17.7893 17.046C17.7893 16.5327 17.612 16.1267 17.2573 15.828C16.9027 15.5293 16.4267 15.38 15.8293 15.38C15.2413 15.38 14.7607 15.5387 14.3873 15.856C14.0233 16.1733 13.8413 16.5747 13.8413 17.06C13.8413 17.536 14.0187 17.9327 14.3733 18.25C14.7373 18.558 15.2367 18.712 15.8713 18.712Z" fill="#666666"/>
</svg>
