<svg width="30" height="30" viewBox="0 0 30 30" fill="none" xmlns="http://www.w3.org/2000/svg">
<circle cx="15" cy="15" r="12" fill="#DDC9A3"/>
<path d="M15.0001 3C12.915 3 10.8658 3.54333 9.05456 4.57644C7.24332 5.60955 5.73254 7.09678 4.67111 8.89156C3.60968 10.6863 3.03423 12.7267 3.00148 14.8116C2.96873 16.8965 3.4798 18.954 4.48433 20.7812C5.48887 22.6085 6.95218 24.1424 8.73007 25.2319C10.508 26.3214 12.5391 26.9288 14.6232 26.9943C16.7073 27.0598 18.7725 26.5811 20.6153 25.6054C22.4581 24.6297 24.0149 23.1907 25.1322 21.4301L15.0001 15.0001L15.0001 3Z" fill="#9F2241"/>
<circle cx="15" cy="15" r="9" fill="white"/>
<path d="M17.4056 14.848C17.9189 15.0813 18.3109 15.3987 18.5816 15.8C18.8616 16.192 19.0016 16.654 19.0016 17.186C19.0016 17.7833 18.8336 18.306 18.4976 18.754C18.1709 19.202 17.7043 19.5473 17.0976 19.79C16.4909 20.0233 15.7863 20.14 14.9836 20.14C14.1809 20.14 13.4763 20.0233 12.8696 19.79C12.2723 19.5473 11.8103 19.202 11.4836 18.754C11.1569 18.306 10.9936 17.7833 10.9936 17.186C10.9936 16.654 11.1289 16.192 11.3996 15.8C11.6703 15.3987 12.0576 15.0813 12.5616 14.848C12.1696 14.6333 11.8663 14.3533 11.6516 14.008C11.4463 13.6533 11.3436 13.2473 11.3436 12.79C11.3436 12.2393 11.4929 11.7587 11.7916 11.348C12.0996 10.9373 12.5289 10.62 13.0796 10.396C13.6303 10.172 14.2649 10.06 14.9836 10.06C15.7116 10.06 16.3509 10.172 16.9016 10.396C17.4523 10.62 17.8816 10.9373 18.1896 11.348C18.4976 11.7587 18.6516 12.2393 18.6516 12.79C18.6516 13.2473 18.5443 13.6487 18.3296 13.994C18.1149 14.3393 17.8069 14.624 17.4056 14.848ZM14.9836 11.488C14.4143 11.488 13.9616 11.6093 13.6256 11.852C13.2989 12.0947 13.1356 12.4353 13.1356 12.874C13.1356 13.294 13.2989 13.63 13.6256 13.882C13.9616 14.1247 14.4143 14.246 14.9836 14.246C15.5623 14.246 16.0196 14.1247 16.3556 13.882C16.6916 13.63 16.8596 13.294 16.8596 12.874C16.8596 12.4353 16.6869 12.0947 16.3416 11.852C16.0056 11.6093 15.5529 11.488 14.9836 11.488ZM14.9836 18.712C15.6556 18.712 16.1876 18.572 16.5796 18.292C16.9716 18.012 17.1676 17.6247 17.1676 17.13C17.1676 16.6447 16.9716 16.262 16.5796 15.982C16.1876 15.702 15.6556 15.562 14.9836 15.562C14.3116 15.562 13.7843 15.702 13.4016 15.982C13.0189 16.262 12.8276 16.6447 12.8276 17.13C12.8276 17.6247 13.0189 18.012 13.4016 18.292C13.7843 18.572 14.3116 18.712 14.9836 18.712Z" fill="#666666"/>
</svg>
