<svg width="30" height="30" viewBox="0 0 30 30" fill="none" xmlns="http://www.w3.org/2000/svg">
<circle cx="15" cy="15" r="12" fill="#DDC9A3"/>
<path d="M15.0001 3C12.915 3 10.8658 3.54333 9.05456 4.57644C7.24332 5.60955 5.73254 7.09678 4.67111 8.89156C3.60968 10.6863 3.03423 12.7267 3.00148 14.8116C2.96873 16.8965 3.4798 18.954 4.48433 20.7812C5.48887 22.6085 6.95218 24.1424 8.73007 25.2319C10.508 26.3214 12.5391 26.9288 14.6232 26.9943C16.7073 27.0598 18.7725 26.5811 20.6153 25.6054C22.4581 24.6297 24.0149 23.1907 25.1322 21.4301L15.0001 15.0001L15.0001 3Z" fill="#9F2241"/>
<circle cx="15" cy="15" r="9" fill="white"/>
<path d="M15.0313 10.06C16.3753 10.06 17.416 10.48 18.1533 11.32C18.9 12.16 19.2733 13.364 19.2733 14.932C19.2733 16.0333 19.0727 16.976 18.6713 17.76C18.27 18.5347 17.7053 19.1273 16.9773 19.538C16.2587 19.9393 15.4233 20.14 14.4713 20.14C13.9673 20.14 13.4913 20.0887 13.0433 19.986C12.6047 19.874 12.222 19.7153 11.8953 19.51L12.5673 18.138C13.0527 18.4553 13.6733 18.614 14.4293 18.614C15.372 18.614 16.1093 18.3247 16.6413 17.746C17.1733 17.1673 17.4393 16.332 17.4393 15.24V15.226C17.15 15.562 16.7813 15.8187 16.3333 15.996C15.8853 16.164 15.3813 16.248 14.8213 16.248C14.1773 16.248 13.5987 16.1267 13.0853 15.884C12.572 15.632 12.1707 15.2773 11.8813 14.82C11.592 14.3627 11.4473 13.8353 11.4473 13.238C11.4473 12.6033 11.606 12.048 11.9233 11.572C12.2407 11.0867 12.67 10.7133 13.2113 10.452C13.7527 10.1907 14.3593 10.06 15.0313 10.06ZM15.1713 14.82C15.7593 14.82 16.2353 14.6613 16.5993 14.344C16.9727 14.0267 17.1593 13.6253 17.1593 13.14C17.1593 12.664 16.9773 12.272 16.6133 11.964C16.2587 11.6467 15.764 11.488 15.1293 11.488C14.56 11.488 14.098 11.642 13.7433 11.95C13.3887 12.2487 13.2113 12.65 13.2113 13.154C13.2113 13.6673 13.3887 14.0733 13.7433 14.372C14.098 14.6707 14.574 14.82 15.1713 14.82Z" fill="#666666"/>
</svg>
