<svg width="40" height="41" viewBox="0 0 40 41" fill="none" xmlns="http://www.w3.org/2000/svg">
    <circle cx="20" cy="20.561" r="20" fill="#F9F9F9"/>
    <path fill-rule="evenodd" clip-rule="evenodd" d="M14 14a1 1 0 0 0-1 1v14a1 1 0 0 0 1 1h12a1 1 0 0 0 1-1V15a1 1 0 0 0-1-1h-2a1 1 0 1 1 0-2h2a3 3 0 0 1 3 3v14a3 3 0 0 1-3 3H14a3 3 0 0 1-3-3V15a3 3 0 0 1 3-3h2a1 1 0 1 1 0 2h-2z" fill="#235B4E"/>
    <path fill-rule="evenodd" clip-rule="evenodd" d="M15 12a2 2 0 0 1 2-2h6a2 2 0 0 1 2 2v2a2 2 0 0 1-2 2h-6a2 2 0 0 1-2-2v-2zm8 0h-6v2h6v-2zM20.01 27a1 1 0 0 1-1-1v-4a1 1 0 1 1 2 0v4a1 1 0 0 1-1 1zM21.01 18a1 1 0 0 1-1 1H20a1 1 0 1 1 0-2h.01a1 1 0 0 1 1 1z" fill="#235B4E"/>
</svg>
