<svg width="30" height="30" viewBox="0 0 30 30" fill="none" xmlns="http://www.w3.org/2000/svg">
<path d="M19.1038 7.66848C19.3158 7.45654 19.5674 7.28843 19.8443 7.17373C20.1212 7.05903 20.418 7 20.7177 7C21.0174 7 21.3142 7.05903 21.5911 7.17373C21.868 7.28843 22.1196 7.45654 22.3315 7.66848C22.5435 7.88041 22.7116 8.13201 22.8263 8.40891C22.941 8.68582 23 8.9826 23 9.28232C23 9.58204 22.941 9.87882 22.8263 10.1557C22.7116 10.4326 22.5435 10.6842 22.3315 10.8962L11.4381 21.7896L7 23L8.21038 18.5619L19.1038 7.66848Z" stroke="#CCCCCC" stroke-width="2" stroke-linecap="round" stroke-linejoin="round"/>
</svg>
