<svg width="30" height="30" viewBox="0 0 30 30" fill="none" xmlns="http://www.w3.org/2000/svg">
<path d="M8 10.2H9.6H22.4" stroke="#CCCCCC" stroke-width="2" stroke-linecap="round" stroke-linejoin="round"/>
<path d="M12 10.2V8.6C12 8.17565 12.1685 7.76869 12.4686 7.46863C12.7687 7.16857 13.1756 7 13.6 7H16.8C17.2243 7 17.6313 7.16857 17.9313 7.46863C18.2314 7.76869 18.4 8.17565 18.4 8.6V10.2M20.8 10.2V21.4C20.8 21.8243 20.6314 22.2313 20.3313 22.5314C20.0313 22.8314 19.6243 23 19.2 23H11.2C10.7756 23 10.3687 22.8314 10.0686 22.5314C9.76855 22.2313 9.59998 21.8243 9.59998 21.4V10.2H20.8Z" stroke="#CCCCCC" stroke-width="2" stroke-linecap="round" stroke-linejoin="round"/>
<path d="M13.6 14.2V19" stroke="#CCCCCC" stroke-width="2" stroke-linecap="round" stroke-linejoin="round"/>
<path d="M16.8 14.2V19" stroke="#CCCCCC" stroke-width="2" stroke-linecap="round" stroke-linejoin="round"/>
</svg>
