<svg width="30" height="30" viewBox="0 0 30 30" fill="none" xmlns="http://www.w3.org/2000/svg">
<path d="M7 8H11.8C12.6487 8 13.4626 8.33714 14.0627 8.93726C14.6629 9.53737 15 10.3513 15 11.2V22.4C15 21.7635 14.7471 21.153 14.2971 20.7029C13.847 20.2529 13.2365 20 12.6 20H7V8Z" stroke="#CCCCCC" stroke-width="2" stroke-linecap="round" stroke-linejoin="round"/>
<path d="M23 8H18.2C17.3513 8 16.5374 8.33714 15.9373 8.93726C15.3371 9.53737 15 10.3513 15 11.2V22.4C15 21.7635 15.2529 21.153 15.7029 20.7029C16.153 20.2529 16.7635 20 17.4 20H23V8Z" stroke="#CCCCCC" stroke-width="2" stroke-linecap="round" stroke-linejoin="round"/>
</svg>
