<svg width="41" height="41" viewBox="0 0 41 41" fill="none" xmlns="http://www.w3.org/2000/svg">
<circle cx="20.5625" cy="20.2578" r="20" fill="#FAFAFA"/>
<path fill-rule="evenodd" clip-rule="evenodd" d="M10.027 23.7223C10.9646 22.7846 12.2364 22.2578 13.5625 22.2578H21.5625C22.8886 22.2578 24.1604 22.7846 25.098 23.7223C26.0357 24.66 26.5625 25.9317 26.5625 27.2578V29.2578C26.5625 29.8101 26.1148 30.2578 25.5625 30.2578C25.0102 30.2578 24.5625 29.8101 24.5625 29.2578V27.2578C24.5625 26.4622 24.2464 25.6991 23.6838 25.1365C23.1212 24.5739 22.3581 24.2578 21.5625 24.2578H13.5625C12.7669 24.2578 12.0038 24.5739 11.4412 25.1365C10.8786 25.6991 10.5625 26.4622 10.5625 27.2578V29.2578C10.5625 29.8101 10.1148 30.2578 9.5625 30.2578C9.01022 30.2578 8.5625 29.8101 8.5625 29.2578V27.2578C8.5625 25.9317 9.08928 24.66 10.027 23.7223Z" fill="#006455"/>
<path fill-rule="evenodd" clip-rule="evenodd" d="M17.5625 12.2578C15.9056 12.2578 14.5625 13.601 14.5625 15.2578C14.5625 16.9147 15.9056 18.2578 17.5625 18.2578C19.2194 18.2578 20.5625 16.9147 20.5625 15.2578C20.5625 13.601 19.2194 12.2578 17.5625 12.2578ZM12.5625 15.2578C12.5625 12.4964 14.8011 10.2578 17.5625 10.2578C20.3239 10.2578 22.5625 12.4964 22.5625 15.2578C22.5625 18.0192 20.3239 20.2578 17.5625 20.2578C14.8011 20.2578 12.5625 18.0192 12.5625 15.2578Z" fill="#006455"/>
<path fill-rule="evenodd" clip-rule="evenodd" d="M27.5945 23.1389C27.7326 22.6042 28.278 22.2826 28.8127 22.4207C29.8854 22.6976 30.8357 23.323 31.5144 24.1986C32.1932 25.0741 32.5619 26.1503 32.5627 27.2582L32.5627 29.2589C32.5627 29.8112 32.115 30.2589 31.5627 30.2589C31.0105 30.2589 30.5627 29.8112 30.5627 29.2589L30.5627 27.2597C30.5627 27.2596 30.5627 27.2598 30.5627 27.2597C30.5622 26.5951 30.3409 25.9492 29.9338 25.4239C29.5265 24.8986 28.9563 24.5233 28.3127 24.3572C27.778 24.2191 27.4564 23.6737 27.5945 23.1389Z" fill="#006455"/>
<path fill-rule="evenodd" clip-rule="evenodd" d="M23.594 11.1409C23.731 10.6058 24.2758 10.2832 24.8108 10.4202C25.8863 10.6955 26.8396 11.321 27.5203 12.1981C28.2011 13.0751 28.5706 14.1537 28.5706 15.2639C28.5706 16.3741 28.2011 17.4528 27.5203 18.3298C26.8396 19.2068 25.8863 19.8323 24.8108 20.1077C24.2758 20.2447 23.731 19.922 23.594 19.387C23.457 18.8519 23.7797 18.3072 24.3147 18.1702C24.96 18.0049 25.532 17.6296 25.9404 17.1034C26.3489 16.5772 26.5706 15.93 26.5706 15.2639C26.5706 14.5978 26.3489 13.9506 25.9404 13.4244C25.532 12.8982 24.96 12.5229 24.3147 12.3577C23.7797 12.2207 23.457 11.6759 23.594 11.1409Z" fill="#006455"/>
</svg>
