<svg width="32" height="32" viewBox="0 0 32 32" fill="none" xmlns="http://www.w3.org/2000/svg">
<path fill-rule="evenodd" clip-rule="evenodd" d="M16 29.0909C23.2299 29.0909 29.0909 23.2299 29.0909 16C29.0909 8.77009 23.2299 2.90909 16 2.90909C8.77009 2.90909 2.90909 8.77009 2.90909 16C2.90909 23.2299 8.77009 29.0909 16 29.0909ZM32 16C32 24.8366 24.8366 32 16 32C7.16344 32 -6.26248e-07 24.8366 -1.39876e-06 16C-2.17128e-06 7.16345 7.16344 2.17128e-06 16 1.39876e-06C24.8366 6.26248e-07 32 7.16344 32 16Z" fill="#FFB444"/>
<path fill-rule="evenodd" clip-rule="evenodd" d="M16 23.2727C15.1967 23.2727 14.5455 22.6215 14.5455 21.8182L14.5455 16C14.5455 15.1967 15.1967 14.5455 16 14.5455C16.8033 14.5455 17.4545 15.1967 17.4545 16L17.4545 21.8182C17.4545 22.6215 16.8033 23.2727 16 23.2727Z" fill="#FFB444"/>
<path fill-rule="evenodd" clip-rule="evenodd" d="M17.4545 10.1818C17.4545 10.9851 16.8033 11.6364 16 11.6364L15.9855 11.6364C15.1821 11.6364 14.5309 10.9851 14.5309 10.1818C14.5309 9.3785 15.1821 8.72727 15.9855 8.72727L16 8.72727C16.8033 8.72727 17.4545 9.3785 17.4545 10.1818Z" fill="#FFB444"/>
</svg>
