<svg xmlns="http://www.w3.org/2000/svg" width="21" height="20" fill="none" viewBox="0 0 21 20">
    <path fill="#D91948" fill-rule="evenodd" d="M10.164 3.456C6.55 3.456 3.62 6.386 3.62 10c0 3.615 2.93 6.545 6.545 6.545 3.615 0 6.545-2.93 6.545-6.545 0-3.615-2.93-6.545-6.545-6.545zm-8 6.545c0-4.418 3.582-8 8-8s8 3.582 8 8-3.582 8-8 8-8-3.582-8-8z" clip-rule="evenodd"/>
    <path fill="#D91948" fill-rule="evenodd" d="M10.164 6.365c.402 0 .727.325.727.727V10c0 .402-.325.727-.727.727-.402 0-.727-.325-.727-.727v-2.91c0-.4.325-.726.727-.726zM9.437 12.91c0-.402.325-.727.727-.727h.007c.402 0 .728.325.728.727 0 .402-.326.727-.728.727h-.007c-.402 0-.727-.325-.727-.727z" clip-rule="evenodd"/>
</svg>
