<svg width="40" height="40" viewBox="0 0 40 40" fill="none" xmlns="http://www.w3.org/2000/svg">
    <path fill-rule="evenodd" clip-rule="evenodd" d="M20 33.09c7.23 0 13.09-5.86 13.09-13.09 0-7.23-5.86-13.09-13.09-13.09-7.23 0-13.09 5.86-13.09 13.09 0 7.23 5.86 13.09 13.09 13.09zM36 20c0 8.837-7.163 16-16 16S4 28.837 4 20 11.163 4 20 4s16 7.163 16 16z" fill="#FFB444"/>
    <path fill-rule="evenodd" clip-rule="evenodd" d="M20 27.273a1.454 1.454 0 0 1-1.454-1.455V20a1.454 1.454 0 1 1 2.909 0v5.818c0 .803-.652 1.455-1.455 1.455zM21.454 14.182c0 .803-.65 1.454-1.454 1.454h-.015a1.455 1.455 0 0 1 0-2.909H20c.803 0 1.454.652 1.454 1.455z" fill="#FFB444"/>
</svg>
