<svg xmlns="http://www.w3.org/2000/svg" width="40" height="40" fill="none" viewBox="0 0 40 40">
    <path fill="#9F2241" fill-rule="evenodd" d="M13 13c-.552 0-1 .448-1 1v14c0 .552.448 1 1 1h14c.552 0 1-.448 1-1V14c0-.552-.448-1-1-1H13zm-3 1c0-1.657 1.343-3 3-3h14c1.657 0 3 1.343 3 3v14c0 1.657-1.343 3-3 3H13c-1.657 0-3-1.343-3-3V14z" clip-rule="evenodd"/>
    <path fill="#9F2241" fill-rule="evenodd" d="M24 9c.552 0 1 .448 1 1v4c0 .552-.448 1-1 1s-1-.448-1-1v-4c0-.552.448-1 1-1zM16 9c.552 0 1 .448 1 1v4c0 .552-.448 1-1 1s-1-.448-1-1v-4c0-.552.448-1 1-1zM10 18c0-.552.448-1 1-1h18c.552 0 1 .448 1 1s-.448 1-1 1H11c-.552 0-1-.448-1-1z" clip-rule="evenodd"/>
</svg>
