<svg width="31" height="28" viewBox="0 0 31 28" fill="none" xmlns="http://www.w3.org/2000/svg">
<path fill-rule="evenodd" clip-rule="evenodd" d="M13.3865 0.535891C14.0105 0.184566 14.7146 0 15.4307 0C16.1468 0 16.8508 0.184566 17.4748 0.535891C18.0989 0.887215 18.6218 1.39344 18.9932 2.00572L18.9975 2.01284L30.2908 20.8662L30.303 20.8869C30.6668 21.5169 30.8593 22.2313 30.8614 22.9588C30.8634 23.6864 30.6749 24.4018 30.3146 25.0338C29.9543 25.6659 29.4348 26.1926 28.8078 26.5616C28.1807 26.9306 27.468 27.1289 26.7405 27.1369L26.724 27.137H4.13736L4.12087 27.1369C3.39337 27.1289 2.68064 26.9306 2.0536 26.5616C1.42655 26.1926 0.907043 25.6659 0.546761 25.0338C0.186479 24.4018 -0.00202083 23.6864 1.63385e-05 22.9588C0.00205351 22.2313 0.194557 21.5169 0.558373 20.8869L0.570558 20.8662L11.8639 2.01285L13.1507 2.78366L11.8682 2.00572C12.2396 1.39344 12.7625 0.887215 13.3865 0.535891ZM14.4349 3.55877C14.4343 3.55972 14.4338 3.56066 14.4332 3.5616L3.1516 22.3954C3.0528 22.5698 3.00057 22.7667 3 22.9672C2.99943 23.1709 3.05221 23.3712 3.15309 23.5482C3.25397 23.7252 3.39944 23.8727 3.57501 23.976C3.74868 24.0782 3.94583 24.1336 4.14722 24.137H26.7142C26.9156 24.1336 27.1127 24.0782 27.2864 23.976C27.462 23.8727 27.6074 23.7252 27.7083 23.5482C27.8092 23.3712 27.862 23.1709 27.8614 22.9672C27.8608 22.7667 27.8086 22.5697 27.7098 22.3953L16.4282 3.5616C16.4276 3.56063 16.427 3.55966 16.4264 3.55869C16.3225 3.38856 16.1768 3.24786 16.0031 3.15005C15.8283 3.05168 15.6312 3 15.4307 3C15.2302 3 15.0331 3.05168 14.8583 3.15005C14.6846 3.24788 14.5388 3.3886 14.4349 3.55877Z" fill="#FF445B"/>
<path fill-rule="evenodd" clip-rule="evenodd" d="M15.4297 8.13672C16.2581 8.13672 16.9297 8.80829 16.9297 9.63672V14.9701C16.9297 15.7985 16.2581 16.4701 15.4297 16.4701C14.6013 16.4701 13.9297 15.7985 13.9297 14.9701V9.63672C13.9297 8.80829 14.6013 8.13672 15.4297 8.13672Z" fill="#FF445B"/>
<path fill-rule="evenodd" clip-rule="evenodd" d="M13.9297 20.3037C13.9297 19.4753 14.6013 18.8037 15.4297 18.8037H15.4397C16.2681 18.8037 16.9397 19.4753 16.9397 20.3037C16.9397 21.1321 16.2681 21.8037 15.4397 21.8037H15.4297C14.6013 21.8037 13.9297 21.1321 13.9297 20.3037Z" fill="#FF445B"/>
</svg>
