<svg width="81" height="81" viewBox="0 0 81 81" fill="none" xmlns="http://www.w3.org/2000/svg">
<circle cx="40.5" cy="40.5" r="39.5" fill="#FAFAFA" stroke="#235B4E" stroke-width="2"/>
<g opacity="0.5">
<path d="M61 55.3333V32.6667C60.9994 32.1364 60.7906 31.628 60.4194 31.2531C60.0482 30.8781 59.545 30.6672 59.02 30.6667H53.08V22C53.0794 21.4697 52.8706 20.9614 52.4994 20.5864C52.1282 20.2115 51.625 20.0006 51.1 20H29.98C29.455 20.0006 28.9518 20.2115 28.5806 20.5864C28.2094 20.9614 28.0006 21.4697 28 22V55.3333C28.0014 56.5706 28.4886 57.7567 29.3547 58.6316C30.2209 59.5064 31.3951 59.9986 32.62 60H56.38C57.6049 59.9986 58.7791 59.5064 59.6453 58.6316C60.5114 57.7567 60.9986 56.5706 61 55.3333ZM59.02 32C59.195 32.0002 59.3628 32.0705 59.4865 32.1955C59.6102 32.3204 59.6798 32.4899 59.68 32.6667V55.3333C59.68 56.2174 59.3323 57.0652 58.7135 57.6904C58.0946 58.3155 57.2552 58.6667 56.38 58.6667C55.5048 58.6667 54.6654 58.3155 54.0465 57.6904C53.4277 57.0652 53.08 56.2174 53.08 55.3333V32H59.02ZM32.62 58.6667C31.7451 58.6656 30.9063 58.3141 30.2877 57.6892C29.669 57.0643 29.321 56.2171 29.32 55.3333V22C29.3202 21.8232 29.3898 21.6538 29.5135 21.5288C29.6372 21.4038 29.805 21.3335 29.98 21.3333H51.1C51.275 21.3335 51.4428 21.4038 51.5665 21.5288C51.6902 21.6538 51.7598 21.8232 51.76 22V55.3333C51.7599 55.9548 51.8832 56.5699 52.1224 57.1424C52.3616 57.715 52.7121 58.2332 53.153 58.6667H32.62Z" fill="#222222"/>
<path d="M35.26 46.6667C35.61 46.6663 35.9455 46.5257 36.1929 46.2757C36.4404 46.0257 36.5796 45.6868 36.58 45.3333V42.6667C36.5796 42.3132 36.4404 41.9743 36.1929 41.7243C35.9455 41.4743 35.61 41.3337 35.26 41.3333H32.62C32.27 41.3337 31.9345 41.4743 31.6871 41.7243C31.4396 41.9743 31.3004 42.3132 31.3 42.6667V45.3333C31.3004 45.6868 31.4396 46.0257 31.6871 46.2757C31.9345 46.5257 32.27 46.6663 32.62 46.6667H35.26ZM32.62 42.6667H35.26V45.3333H32.62V42.6667Z" fill="#222222"/>
<path d="M39.22 45.3333H37.9V46.6667H39.22V45.3333Z" fill="#222222"/>
<path d="M47.14 45.3333H40.54V46.6667H47.14V45.3333Z" fill="#222222"/>
<path d="M39.22 42H37.9V43.3333H39.22V42Z" fill="#222222"/>
<path d="M47.14 42H45.82V43.3333H47.14V42Z" fill="#222222"/>
<path d="M44.5 42H40.54V43.3333H44.5V42Z" fill="#222222"/>
<path d="M35.26 26.6667C35.2602 26.4899 35.3298 26.3204 35.4535 26.1955C35.5772 26.0705 35.745 26.0002 35.92 26H37.24V24.6667H35.92C35.395 24.6672 34.8918 24.8781 34.5206 25.2531C34.1494 25.628 33.9406 26.1364 33.94 26.6667V28H35.26V26.6667Z" fill="#222222"/>
<path d="M35.92 38H37.24V36.6667H35.92C35.745 36.6665 35.5772 36.5962 35.4535 36.4712C35.3298 36.3462 35.2602 36.1768 35.26 36V34.6667H33.94V36C33.9406 36.5303 34.1494 37.0386 34.5206 37.4136C34.8918 37.7885 35.395 37.9994 35.92 38Z" fill="#222222"/>
<path d="M47.14 34.6667H45.82V36C45.8198 36.1768 45.7502 36.3462 45.6265 36.4712C45.5028 36.5962 45.335 36.6665 45.16 36.6667H43.84V38H45.16C45.685 37.9994 46.1882 37.7885 46.5594 37.4136C46.9306 37.0386 47.1394 36.5303 47.14 36V34.6667Z" fill="#222222"/>
<path d="M45.82 26.6667V28H47.14V26.6667C47.1394 26.1364 46.9306 25.628 46.5594 25.2531C46.1882 24.8781 45.685 24.6672 45.16 24.6667H43.84V26H45.16C45.335 26.0002 45.5028 26.0705 45.6265 26.1955C45.7502 26.3204 45.8198 26.4899 45.82 26.6667Z" fill="#222222"/>
<path d="M37.24 30.6667C37.2404 31.0202 37.3796 31.3591 37.6271 31.609C37.8745 31.859 38.21 31.9996 38.56 32H39.88V34H38.56V33.3333H37.24V34C37.2404 34.3535 37.3796 34.6924 37.6271 34.9424C37.8745 35.1923 38.21 35.3329 38.56 35.3333H39.88V36.6667H41.2V35.3333H42.52C42.87 35.3329 43.2055 35.1923 43.4529 34.9424C43.7004 34.6924 43.8396 34.3535 43.84 34V32C43.8396 31.6465 43.7004 31.3076 43.4529 31.0576C43.2055 30.8077 42.87 30.6671 42.52 30.6667H41.2V28.6667H42.52V29.3333H43.84V28.6667C43.8396 28.3132 43.7004 27.9743 43.4529 27.7243C43.2055 27.4743 42.87 27.3337 42.52 27.3333H41.2V26H39.88V27.3333H38.56C38.21 27.3337 37.8745 27.4743 37.6271 27.7243C37.3796 27.9743 37.2404 28.3132 37.24 28.6667V30.6667ZM42.52 32V34H41.2V32H42.52ZM38.56 28.6667H39.88V30.6667H38.56V28.6667Z" fill="#222222"/>
<path d="M49.78 45.3333H48.46V46.6667H49.78V45.3333Z" fill="#222222"/>
<path d="M33.28 48.6667H31.96V50H33.28V48.6667Z" fill="#222222"/>
<path d="M47.14 48.6667H34.6V50H47.14V48.6667Z" fill="#222222"/>
<path d="M49.78 48.6667H48.46V50H49.78V48.6667Z" fill="#222222"/>
<path d="M33.28 52H31.96V53.3333H33.28V52Z" fill="#222222"/>
<path d="M47.14 52H34.6V53.3333H47.14V52Z" fill="#222222"/>
<path d="M49.78 52H48.46V53.3333H49.78V52Z" fill="#222222"/>
<path d="M35.26 55.3333H33.94V56.6667H35.26V55.3333Z" fill="#222222"/>
<path d="M45.16 55.3333H36.58V56.6667H45.16V55.3333Z" fill="#222222"/>
<path d="M47.8 55.3333H46.48V56.6667H47.8V55.3333Z" fill="#222222"/>
</g>
</svg>
