<svg xmlns="http://www.w3.org/2000/svg" width="80" height="80" fill="none" viewBox="0 0 80 80">
    <circle cx="40" cy="40" r="39" fill="#FAFAFA" stroke="#235B4E" stroke-width="2"/>
    <path fill="#BC955C" d="M41.27 52.932v7.27c0 .36.29.651.65.651.36 0 .652-.291.652-.65v-7.27c0-.36-.292-.652-.651-.652-.36 0-.652.292-.652.651zM41.92 49.676c-.36 0-.65.291-.65.651 0 .36.29.651.65.651.36 0 .652-.291.652-.65 0-.36-.292-.652-.651-.652z"/>
    <path fill="#000" d="M57.56 30.266l-3.326-3.327v-4.962c0-1.09-.887-1.977-1.976-1.977H24.952C23.875 20 23 20.876 23 21.952V54.7c0 1.076.875 1.952 1.952 1.952h1.104v1.088c0 1.076.875 1.951 1.951 1.951h3.443c.36 0 .651-.291.651-.65 0-.36-.291-.652-.651-.652h-3.443c-.358 0-.649-.291-.649-.65V31.55c0-.36-.291-.652-.651-.652-.36 0-.651.292-.651.651V55.35h-1.104c-.358 0-.65-.291-.65-.65V21.953c0-.358.292-.65.65-.65h27.306c.371 0 .673.303.673.675v3.66l-2.405-2.406c-.122-.122-.287-.191-.46-.191H28.007c-1.076 0-1.952.876-1.952 1.952v3.524c0 .36.292.651.652.651.36 0 .651-.291.651-.651v-3.524c0-.358.291-.65.65-.65h21.406v6.383c0 .36.292.651.652.651l6.382.001V57.74c0 .357-.291.649-.649.649h-3.41c-.36 0-.652.291-.652.651 0 .36.292.651.651.651H55.8c1.076 0 1.952-.875 1.952-1.952V30.726c0-.173-.069-.338-.191-.46zm-6.843-.192v-4.81l4.81 4.81h-4.81z"/>
    <path fill="#000" d="M34.13 35.498h15.58c.36 0 .651-.292.651-.651 0-.36-.291-.652-.651-.652H34.13c-.36 0-.652.292-.652.652 0 .36.292.65.651.65zM34.13 39.342h15.58c.36 0 .651-.292.651-.652 0-.36-.291-.65-.651-.65H34.13c-.36 0-.652.29-.652.65 0 .36.292.652.651.652zM49.71 41.957h-3.078c-.36 0-.652.291-.652.651 0 .36.292.652.652.652h3.078c.36 0 .65-.292.65-.652 0-.36-.29-.651-.65-.651zM34.13 43.26h9.437c.36 0 .65-.292.65-.652 0-.36-.29-.651-.65-.651h-9.438c-.36 0-.65.291-.65.651 0 .36.29.652.65.652z"/>
    <path fill="#BC955C" d="M41.92 46.074c-3.858 0-7.333 2.437-8.646 6.064-.123.338.052.711.39.834.339.122.712-.053.834-.39 1.127-3.114 4.11-5.205 7.423-5.205 4.35 0 7.89 3.54 7.89 7.891s-3.54 7.891-7.89 7.891c-4.352 0-7.892-3.54-7.892-7.891 0-.36-.291-.651-.65-.651-.36 0-.652.291-.652.651 0 5.07 4.124 9.194 9.194 9.194 5.07 0 9.193-4.125 9.193-9.194 0-5.07-4.124-9.194-9.193-9.194z"/>
</svg>
