<svg xmlns="http://www.w3.org/2000/svg" width="30" height="30" fill="none" viewBox="0 0 30 30">
    <path fill="#000" fill-rule="evenodd" d="M6.257 19.157C7.383 18.032 8.91 17.4 10.5 17.4h9.6c1.591 0 3.117.632 4.243 1.757C25.468 20.283 26.1 21.81 26.1 23.4v2.4c0 .663-.537 1.2-1.2 1.2-.663 0-1.2-.537-1.2-1.2v-2.4c0-.955-.38-1.87-1.054-2.546-.675-.675-1.591-1.054-2.546-1.054h-9.6c-.955 0-1.87.38-2.546 1.054C7.28 21.53 6.9 22.445 6.9 23.4v2.4c0 .663-.537 1.2-1.2 1.2-.663 0-1.2-.537-1.2-1.2v-2.4c0-1.591.632-3.117 1.757-4.243zM15.3 5.4c-1.988 0-3.6 1.612-3.6 3.6s1.612 3.6 3.6 3.6 3.6-1.612 3.6-3.6-1.612-3.6-3.6-3.6zM9.3 9c0-3.314 2.686-6 6-6s6 2.686 6 6-2.686 6-6 6-6-2.686-6-6z" clip-rule="evenodd"/>
</svg>
