<svg xmlns="http://www.w3.org/2000/svg" width="20" height="21" fill="none" viewBox="0 0 20 21">
    <circle cx="10" cy="10.422" r="10" fill="#EEE"/>
    <path fill="#BC955C" fill-rule="evenodd" d="M5.636 7.347c-.144 0-.283.049-.385.136-.103.087-.16.204-.16.327v4.627c0 .123.057.24.16.327.102.087.24.136.385.136h.546c.301 0 .545.207.545.463 0 .255-.244.462-.545.462h-.546c-.434 0-.85-.146-1.157-.406-.307-.26-.479-.614-.479-.982V7.81c0-.368.172-.721.48-.982.306-.26.722-.406 1.156-.406h8.728c.434 0 .85.146 1.157.406.307.26.479.614.479.982v4.627c0 .368-.172.721-.48.982-.306.26-.722.406-1.156.406h-.546c-.301 0-.545-.207-.545-.462 0-.256.244-.463.545-.463h.546c.144 0 .283-.049.385-.136.103-.086.16-.204.16-.327V7.81c0-.123-.057-.24-.16-.327-.102-.087-.24-.136-.385-.136H5.636z" clip-rule="evenodd"/>
    <path fill="#BC955C" fill-rule="evenodd" d="M10 11.974c.162 0 .315.061.419.167l2.727 2.776c.136.138.165.33.075.493-.09.162-.282.266-.494.266H7.273c-.212 0-.404-.104-.494-.266-.09-.163-.06-.355.075-.493l2.727-2.776c.104-.106.257-.167.419-.167zm-1.563 2.777h3.126L10 13.16l-1.563 1.59z" clip-rule="evenodd"/>
</svg>
