<svg width="40" height="40" viewBox="0 0 40 40" fill="none" xmlns="http://www.w3.org/2000/svg">
<circle cx="20" cy="20" r="20" fill="#FAFAFA"/>
<path fill-rule="evenodd" clip-rule="evenodd" d="M11.8787 9.87868C12.4413 9.31607 13.2044 9 14 9H21C21.2652 9 21.5196 9.10536 21.7071 9.29289L28.7071 16.2929C28.8946 16.4804 29 16.7348 29 17V28C29 28.7957 28.6839 29.5587 28.1213 30.1213C27.5587 30.6839 26.7957 31 26 31H14C13.2043 31 12.4413 30.6839 11.8787 30.1213C11.3161 29.5587 11 28.7957 11 28V12C11 11.2044 11.3161 10.4413 11.8787 9.87868ZM14 11C13.7348 11 13.4804 11.1054 13.2929 11.2929C13.1054 11.4804 13 11.7348 13 12V28C13 28.2652 13.1054 28.5196 13.2929 28.7071C13.4804 28.8946 13.7348 29 14 29H26C26.2652 29 26.5196 28.8946 26.7071 28.7071C26.8946 28.5196 27 28.2652 27 28V17.4142L20.5858 11H14Z" fill="#235B4E"/>
<path fill-rule="evenodd" clip-rule="evenodd" d="M21 9C21.5523 9 22 9.44772 22 10V16H28C28.5523 16 29 16.4477 29 17C29 17.5523 28.5523 18 28 18H21C20.4477 18 20 17.5523 20 17V10C20 9.44772 20.4477 9 21 9Z" fill="#235B4E"/>
</svg>
