<svg xmlns="http://www.w3.org/2000/svg" width="40" height="40" fill="none" viewBox="0 0 40 40">
    <path fill="#9F2241" fill-rule="evenodd" d="M14.73 17.306c-.307-.32-.307-.838 0-1.157l4.714-4.91c.307-.319.805-.319 1.112 0l4.714 4.91c.307.32.307.837 0 1.157-.307.32-.805.32-1.111 0L20 12.976l-4.159 4.33c-.306.32-.804.32-1.11 0zM14.73 22.694c.307-.32.804-.32 1.111 0L20 27.024l4.159-4.33c.306-.32.804-.32 1.11 0 .308.32.308.838 0 1.157l-4.713 4.91c-.307.319-.805.319-1.112 0l-4.714-4.91c-.307-.32-.307-.837 0-1.157z" clip-rule="evenodd"/>
</svg>
