<svg width="40" height="41" viewBox="0 0 40 41" fill="none" xmlns="http://www.w3.org/2000/svg">
    <circle cx="20" cy="21" r="20" fill="#F9F9F9"/>
    <path fill-rule="evenodd" clip-rule="evenodd" d="M12.5 12.5a1 1 0 0 1 1 1v16a1 1 0 0 0 1 1h12a1 1 0 0 0 1-1 1 1 0 0 1 2 0 3 3 0 0 1-3 3h-12a3 3 0 0 1-3-3v-16a1 1 0 0 1 1-1zM13.5 10.5a1 1 0 0 1 1-1h7a1 1 0 0 1 .707.293l7 7a1 1 0 0 1 .293.707v7a1 1 0 1 1-2 0v-6.586L21.086 11.5H14.5a1 1 0 0 1-1-1z" fill="#235B4E"/>
    <path fill-rule="evenodd" clip-rule="evenodd" d="M21.5 10.5a1 1 0 0 1 1 1v6h6a1 1 0 1 1 0 2h-7a1 1 0 0 1-1-1v-7a1 1 0 0 1 1-1zM8.293 9.293a1 1 0 0 1 1.414 0l22.5 22.5a1 1 0 0 1-1.414 1.414l-22.5-22.5a1 1 0 0 1 0-1.414z" fill="#235B4E"/>
</svg>
