<svg xmlns="http://www.w3.org/2000/svg" width="80" height="80" fill="none" viewBox="0 0 80 80">
    <circle cx="40" cy="40" r="39" fill="#FAFAFA" stroke="#235B4E" stroke-width="2"/>
    <path fill="#222" d="M28.1 63h25.954V23.1h-3.099V20H33.088L25 28.088v31.813h3.1V63zm22.855-38.739h1.937v37.577h-23.63V59.9h21.693V24.26zm-18.207-2.277v5.764h-5.764l5.764-5.764zm-6.586 36.755v-29.83h7.748v-7.747h15.883V58.74h-23.63z"/>
    <path fill="#222" d="M28.68 30.848h9.297v1.162H28.68v-1.162zM28.68 33.945h9.297v1.163H28.68v-1.163zM29 37.047h18.595v1.162H29v-1.162zM28.68 40.145h8.594v1.162H28.68v-1.163z"/>
    <path fill="#BC955C" d="M37.003 52.865C35.673 51.5 35 50.213 35 49.042 35 47.388 36.346 46 38 46c.15 0 .273.164.273.314v1.091c0 .151-.122.273-.273.273-.752 0-1.364.612-1.364 1.364 0 .714.54 1.644 1.56 2.69.103.106.103.275-.001.381-.235.24-.502.49-.817.767-.108.095-.274.09-.375-.015zM39.91 55.263c-.441-.296-1.138-.786-2.09-1.625-.126-.11-.122-.303 0-.41.27-.236.535-.486.787-.744.101-.103.265-.11.374-.014.679.592 1.28 1.06 1.837 1.428.126.083.16.252.077.379l-.606.91c-.084.127-.254.16-.379.076z"/>
    <path fill="#BC955C" d="M38 46v1.678c.751 0 1.363.612 1.363 1.364 0 .714-.539 1.644-1.558 2.69-.624.636-1.753 1.598-2.622 2.165-.127.083-.162.253-.078.38l.605.91c.084.126.252.16.377.077.945-.622 2.14-1.613 2.91-2.4C40.326 51.5 41 50.215 41 49.043 41 47.388 39.654 46 38 46z"/>
    <path fill="#222" d="M39.915 35.11h7.36V26.2h-7.36v8.91zm1.162-7.749h5.036v6.586h-5.036v-6.586z"/>
</svg>
