<svg width="24" height="24" viewBox="0 0 24 24" fill="none" xmlns="http://www.w3.org/2000/svg">
    <path fill-rule="evenodd" clip-rule="evenodd" d="M5.7 4.8a.9.9 0 0 0-.9.9v12.6a.9.9 0 0 0 .9.9h12.6a.9.9 0 0 0 .9-.9V8.773L15.227 4.8H5.7zM3.79 3.79A2.7 2.7 0 0 1 5.7 3h9.9a.9.9 0 0 1 .636.264l4.5 4.5A.9.9 0 0 1 21 8.4v9.9a2.7 2.7 0 0 1-2.7 2.7H5.7A2.7 2.7 0 0 1 3 18.3V5.7a2.7 2.7 0 0 1 .79-1.91z" fill="#fff"/>
    <path fill-rule="evenodd" clip-rule="evenodd" d="M6.6 12.9a.9.9 0 0 1 .9-.9h9a.9.9 0 0 1 .9.9v7.2a.9.9 0 1 1-1.8 0v-6.3H8.4v6.3a.9.9 0 1 1-1.8 0v-7.2zM7.5 3a.9.9 0 0 1 .9.9v3.6h6.3a.9.9 0 1 1 0 1.8H7.5a.9.9 0 0 1-.9-.9V3.9a.9.9 0 0 1 .9-.9z" fill="#fff"/>
</svg>
