<svg width="40" height="40" viewBox="0 0 40 40" fill="none" xmlns="http://www.w3.org/2000/svg">
<path fill-rule="evenodd" clip-rule="evenodd" d="M9.09091 8.72727C8.72925 8.72727 8.3824 8.87094 8.12667 9.12667C7.87094 9.3824 7.72727 9.72925 7.72727 10.0909V29.1818C7.72727 29.5435 7.87094 29.8903 8.12667 30.1461C8.3824 30.4018 8.72925 30.5455 9.09091 30.5455H30.9091C31.2707 30.5455 31.6176 30.4018 31.8733 30.1461C32.1291 29.8903 32.2727 29.5435 32.2727 29.1818V14.1818C32.2727 13.8202 32.1291 13.4733 31.8733 13.2176C31.6176 12.9619 31.2708 12.8182 30.9091 12.8182H18.6364C18.1804 12.8182 17.7547 12.5903 17.5017 12.211L15.1793 8.72727H9.09091ZM6.1982 7.1982C6.96539 6.431 8.00593 6 9.09091 6H15.9091C16.365 6 16.7908 6.22787 17.0437 6.60723L19.3662 10.0909H30.9091C31.9941 10.0909 33.0346 10.5219 33.8018 11.2891C34.569 12.0563 35 13.0968 35 14.1818V29.1818C35 30.2668 34.569 31.3073 33.8018 32.0745C33.0346 32.8417 31.9941 33.2727 30.9091 33.2727H9.09091C8.00593 33.2727 6.96539 32.8417 6.1982 32.0745C5.43101 31.3073 5 30.2668 5 29.1818V10.0909C5 9.00593 5.431 7.96539 6.1982 7.1982Z" fill="#9F2241"/>
</svg>
