<svg xmlns="http://www.w3.org/2000/svg" width="40" height="41" fill="none" viewBox="0 0 40 41">
    <path fill="#fff" stroke="#006455" stroke-linecap="round" stroke-linejoin="round" stroke-width="2" d="M29 23.556c0 .383-.148.75-.41 1.02-.263.272-.619.424-.99.424H16.4c-.371 0-.727-.152-.99-.423-.262-.271-.41-.638-.41-1.021V13.444c0-.383.148-.75.41-1.02.263-.272.619-.424.99-.424h3.5l1.4 2.167h6.3c.371 0 .727.152.99.423.262.27.41.638.41 1.021v7.945z"/>
    <path stroke="#fff" stroke-linecap="round" stroke-linejoin="round" stroke-width="6" d="M25 27.556c0 .383-.148.75-.41 1.02-.263.272-.619.424-.99.424H12.4c-.371 0-.727-.152-.99-.423-.262-.271-.41-.638-.41-1.021V17.444c0-.383.148-.75.41-1.02.263-.272.619-.424.99-.424h3.5l1.4 2.167h6.3c.371 0 .727.152.99.423.262.27.41.638.41 1.021v7.945z"/>
    <path fill="#fff" stroke="#006455" stroke-linecap="round" stroke-linejoin="round" stroke-width="2" d="M25 27.556c0 .383-.148.75-.41 1.02-.263.272-.619.424-.99.424H12.4c-.371 0-.727-.152-.99-.423-.262-.271-.41-.638-.41-1.021V17.444c0-.383.148-.75.41-1.02.263-.272.619-.424.99-.424h3.5l1.4 2.167h6.3c.371 0 .727.152.99.423.262.27.41.638.41 1.021v7.945z"/>
</svg>
