<svg xmlns="http://www.w3.org/2000/svg" width="25" height="21" fill="none" viewBox="0 0 25 21">
    <path stroke="#006455" stroke-linecap="round" stroke-linejoin="round" stroke-width="2" d="M15.023 16.389l-3.666-3.667-3.667 3.667M13.352 19.582l-2-2-2 2"/>
    <path stroke="#006455" stroke-linecap="round" stroke-linejoin="round" stroke-width="2" d="M19.493 15.582c.797-.56 1.395-1.36 1.706-2.283.312-.923.321-1.921.027-2.85s-.877-1.74-1.663-2.315-1.735-.885-2.71-.884h-1.155c-.275-1.075-.791-2.072-1.508-2.919-.718-.846-1.617-1.518-2.632-1.967-1.015-.448-2.118-.66-3.226-.62-1.109.04-2.194.33-3.174.85S3.329 3.85 2.674 4.746c-.654.896-1.097 1.928-1.295 3.02-.198 1.091-.145 2.213.153 3.282.3 1.068.836 2.055 1.571 2.885"/>
</svg>
