<?xml version="1.0" encoding="UTF-8" standalone="no"?>
<svg
   width="40"
   height="40"
   fill="none"
   viewBox="0 0 40 40"
   xmlns="http://www.w3.org/2000/svg">
  <path
     fill="#9f2241"
     fill-rule="evenodd"
     d="m 19.925847,11.043386 c -4.97,0 -9,4.03 -9,9 0,4.97 4.03,9 9,9 4.97,0 9,-4.03 9,-9 0,-4.97 -4.03,-9 -9,-9 z m -10.9999992,9 c 0,-6.075 4.9249992,-10.9999992 10.9999992,-10.9999992 6.075,0 11,4.9249992 11,10.9999992 0,6.075 -4.925,11 -11,11 -6.075,0 -10.9999992,-4.925 -10.9999992,-11 z"
     clip-rule="evenodd"
     id="path175" />
  <path
     fill="#9f2241"
     fill-rule="evenodd"
     d="m 19.925847,13.043386 c 0.552,0 1,0.448 1,1 v 5.382 l 3.447,1.724 c 0.494,0.247 0.694,0.847 0.447,1.341 -0.247,0.494 -0.847,0.694 -1.341,0.447 l -4,-2 c -0.339,-0.169 -0.553,-0.514 -0.553,-0.894 v -6 c 0,-0.552 0.448,-1 1,-1 z"
     clip-rule="evenodd"
     id="path177" />
</svg>
