<svg width="24" height="24" viewBox="0 0 24 24" fill="none" xmlns="http://www.w3.org/2000/svg">
<path fill-rule="evenodd" clip-rule="evenodd" d="M22.8 14.4C22.1373 14.4 21.6 14.9373 21.6 15.6V20.4C21.6 20.7183 21.4736 21.0235 21.2485 21.2485C21.0235 21.4736 20.7183 21.6 20.4 21.6L3.6 21.6C3.28174 21.6 2.97652 21.4736 2.75147 21.2485C2.52643 21.0235 2.4 20.7183 2.4 20.4L2.4 15.6C2.4 14.9373 1.86274 14.4 1.2 14.4C0.53726 14.4 4.77567e-07 14.9373 4.19628e-07 15.6L0 20.4C-8.34695e-08 21.3548 0.379285 22.2705 1.05442 22.9456C1.72955 23.6207 2.64522 24 3.6 24L20.4 24C21.3548 24 22.2705 23.6207 22.9456 22.9456C23.6207 22.2705 24 21.3548 24 20.4V15.6C24 14.9373 23.4627 14.4 22.8 14.4Z" fill="#9F2241"/>
<path fill-rule="evenodd" clip-rule="evenodd" d="M18.8485 8.75148C18.3799 8.28285 17.6201 8.28285 17.1515 8.75148L12 13.9029L6.84853 8.75148C6.3799 8.28285 5.6201 8.28285 5.15147 8.75148C4.68284 9.2201 4.68284 9.9799 5.15147 10.4485L11.1515 16.4485C11.6201 16.9172 12.3799 16.9172 12.8485 16.4485L18.8485 10.4485C19.3172 9.9799 19.3172 9.22011 18.8485 8.75148Z" fill="#9F2241"/>
<path fill-rule="evenodd" clip-rule="evenodd" d="M12 5.72205e-06C11.3373 5.72205e-06 10.8 0.537264 10.8 1.20001L10.8 15.6C10.8 16.2627 11.3373 16.8 12 16.8C12.6627 16.8 13.2 16.2627 13.2 15.6L13.2 1.20001C13.2 0.537264 12.6627 5.72205e-06 12 5.72205e-06Z" fill="#9F2241"/>
</svg>
