<svg xmlns="http://www.w3.org/2000/svg" width="20" height="21" fill="none" viewBox="0 0 20 21">
    <circle cx="10" cy="10.422" r="10" fill="#EEE"/>
    <path fill="#BC955C" fill-rule="evenodd" d="M13.895 5.521c-.132 0-.262.026-.384.077-.122.05-.233.124-.326.218l-7.319 7.318-.533 1.955 1.955-.533 7.318-7.319c.094-.093.168-.204.218-.326.05-.122.076-.252.076-.384s-.026-.263-.076-.385-.124-.233-.218-.326c-.093-.094-.204-.168-.326-.218-.122-.05-.253-.077-.385-.077zm-.805-.939c.255-.106.529-.16.805-.16.277 0 .55.054.806.16.255.106.487.26.683.456.195.196.35.428.456.683.106.255.16.53.16.806s-.054.55-.16.805c-.106.255-.261.487-.456.683l-7.422 7.421c-.068.068-.152.117-.244.142l-3.024.825c-.19.051-.393-.003-.533-.142-.14-.14-.194-.343-.142-.534l.825-3.023c.025-.092.074-.177.142-.244l7.421-7.422c.196-.195.428-.35.683-.456z" clip-rule="evenodd"/>
</svg>
