<svg xmlns="http://www.w3.org/2000/svg" width="30" height="30" fill="none" viewBox="0 0 30 30">
    <mask id="qyp4xd6pia" width="23" height="24" x="3" y="3" maskUnits="userSpaceOnUse">
        <path fill="#fff" fill-rule="evenodd" d="M8.487 8.381c.426.426.426 1.117 0 1.543-1.22 1.22-2.051 2.775-2.388 4.467-.336 1.693-.163 3.447.497 5.042.661 1.594 1.78 2.957 3.215 3.915 1.435.959 3.122 1.47 4.848 1.47s3.413-.511 4.848-1.47c1.435-.958 2.554-2.321 3.215-3.915.66-1.595.833-3.349.497-5.042-.337-1.692-1.168-3.247-2.388-4.467-.426-.426-.426-1.117 0-1.543.427-.426 1.117-.426 1.543 0 1.526 1.526 2.564 3.47 2.985 5.585.42 2.116.204 4.309-.622 6.301-.825 1.993-2.224 3.697-4.017 4.895C18.925 26.36 16.817 27 14.66 27c-2.158 0-4.267-.64-6.061-1.838-1.794-1.198-3.192-2.902-4.018-4.895-.826-1.992-1.042-4.185-.622-6.3.421-2.117 1.46-4.06 2.985-5.586.426-.426 1.117-.426 1.543 0z" clip-rule="evenodd"/>
        <path fill="#fff" fill-rule="evenodd" d="M14.665 3c.602 0 1.09.488 1.09 1.09v10.908c0 .603-.488 1.09-1.09 1.09-.603 0-1.091-.488-1.091-1.09V4.091c0-.603.488-1.091 1.09-1.091z" clip-rule="evenodd"/>
    </mask>
    <g mask="url(#qyp4xd6pia)">
        <path fill="#fff" d="M0 0H30V30H0z"/>
    </g>
</svg>
