<svg xmlns="http://www.w3.org/2000/svg" width="125" height="125" fill="none" viewBox="0 0 125 125">
    <path fill="#CCC" d="M24.049 49.57v43.786l44.817-25.873-.003-39.807-33.323 19.24-1.151-3.319-10.34 5.972z"/>
    <path fill="#006455" d="M24.049 49.57v43.786l44.817-25.873-.003-39.807-33.323 19.24-1.151-3.319-10.34 5.972z" opacity=".35"/>
    <path fill="#fff" d="M24.049 93.356l2.297-39.806 44.817-25.874-2.297 39.807-44.817 25.873z"/>
    <path fill="#CCC" d="M24.049 93.357l3.445-39.142 44.817-25.877-3.445 39.145-44.817 25.874z"/>
    <path fill="#CCC" d="M24.049 93.357l3.445-39.142 44.817-25.877-3.445 39.145-44.817 25.874z" opacity=".5"/>
    <path fill="#CCC" d="M30.943 53.55v43.79L75.76 71.463V31.656l-33.325 19.24-1.149-3.318-10.343 5.972z"/>
    <path fill="#006455" d="M30.943 53.55v43.79L75.76 71.463V31.656l-33.325 19.24-1.149-3.318-10.343 5.972z" opacity=".35"/>
    <path fill="#F2F2F2" d="M30.943 97.34l2.297-39.81 44.817-25.874-2.297 39.807L30.943 97.34z"/>
    <path fill="#CCC" d="M30.943 97.34l3.446-39.145 44.817-25.877-3.446 39.145L30.943 97.34z"/>
    <path fill="#CCC" d="M30.943 97.34l3.446-39.145 44.817-25.877-3.446 39.145L30.943 97.34z" opacity=".5"/>
    <path fill="#E0E0E0" d="M68.854 111.272c-8.046-4.645-15.508-9.695-18.914-15.619l10.354-5.977 8.56 21.596z"/>
    <path fill="#CCC" d="M38.986 58.194v43.787l44.817-25.873V36.3L50.478 55.54l-1.149-3.319-10.343 5.972z"/>
    <path fill="#006455" d="M38.986 58.194v43.787l44.817-25.873V36.3L50.478 55.54l-1.149-3.319-10.343 5.972z" opacity=".2"/>
    <path fill="#fff" d="M51.898 71.14c-.114 0-.13-.13-.13-.206V33.59c.009-.145.051-.285.124-.411.072-.126.173-.233.294-.313l32.347-18.671c.044-.028.095-.044.147-.046.113 0 .13.13.13.207V51.7c-.009.145-.051.286-.124.412-.072.127-.173.234-.295.315L52.045 71.098c-.045.026-.096.04-.147.042z"/>
    <path fill="#CCC" d="M84.663 14.28c.002.02.002.042 0 .062v37.343c-.01.12-.045.237-.105.342-.06.105-.144.195-.243.263L51.968 70.962l-.056.025c-.004-.02-.004-.041 0-.062V33.582c.01-.12.046-.236.106-.34.06-.104.143-.194.242-.262l32.346-18.672c.018-.012.038-.02.06-.025l-.003-.003zm.02-.28c-.077.002-.152.025-.218.065L52.118 32.736c-.142.094-.26.22-.345.367-.085.147-.135.312-.144.482v37.343c0 .22.11.348.283.348.077-.002.152-.025.218-.065l32.346-18.672c.143-.092.262-.218.347-.365.085-.148.134-.313.143-.483V14.348c0-.22-.11-.35-.283-.348z"/>
    <path fill="#fff" d="M84.663 14.28c.002.02.002.042 0 .062v37.343c-.01.12-.045.237-.105.342-.06.105-.144.195-.243.263L51.968 70.962l-.056.025c-.004-.02-.004-.041 0-.062V33.582c.01-.12.046-.236.106-.34.06-.104.143-.194.242-.262l32.346-18.672c.018-.012.038-.02.06-.025l-.003-.003zm.02-.28c-.077.002-.152.025-.218.065L52.118 32.736c-.142.094-.26.22-.345.367-.085.147-.135.312-.144.482v37.343c0 .22.11.348.283.348.077-.002.152-.025.218-.065l32.346-18.672c.143-.092.262-.218.347-.365.085-.148.134-.313.143-.483V14.348c0-.22-.11-.35-.283-.348z" opacity=".7"/>
    <path fill="#006455" d="M55.074 35.009l11.492-6.634v13.268l-11.492 6.634V35.009z"/>
    <path fill="#fff" d="M55.074 35.009l11.492-6.634v13.268l-11.492 6.634V35.009z" opacity=".8"/>
    <path fill="#fff" d="M64.843 31.682v3.988l-.362.201v-1.219c0-.673-.546-.902-1.225-.512l-4.869 2.815c-.676.39-1.225 1.253-1.225 1.926v1.22l-.36.215v-3.98l8.04-4.654z"/>
    <path fill="#fff" d="M62.631 41.838c-.588.34-1.066-.017-1.066-.8v-6.386l-1.48.804v6.436c0 .78-.478 1.697-1.066 2.028l-1.07.617v.424l5.746-3.318v-.422l-1.064.617z"/>
    <path fill="#455A64" d="M68.856 27.72c0 .368.33.472.735.24l11.18-6.464c.198-.112.368-.27.496-.458.127-.189.21-.405.24-.631 0-.365-.331-.472-.736-.238L69.6 26.62c-.202.113-.375.27-.504.462-.13.191-.212.41-.24.639zM68.856 31.68c0 .368.33.476.735.24l11.172-6.45c.198-.112.368-.268.495-.457.128-.19.21-.405.24-.631 0-.365-.33-.473-.735-.238l-11.172 6.45c-.198.112-.367.269-.495.457-.128.189-.21.404-.24.63zM68.856 35.67c0 .368.33.476.735.241l11.172-6.45c.198-.112.367-.269.495-.457.127-.189.21-.404.24-.63 0-.367-.33-.475-.735-.24l-11.172 6.45c-.198.112-.367.269-.495.457-.128.189-.21.404-.24.63zM68.856 39.651c0 .368.33.475.735.24l11.172-6.45c.198-.112.367-.268.495-.457.127-.188.21-.404.24-.629 0-.368-.33-.475-.735-.24l-11.172 6.45c-.198.112-.367.268-.495.457-.128.188-.21.404-.24.629zM55.074 51.594c0 .368.328.476.736.24l24.96-14.427c.198-.112.368-.268.496-.457.127-.188.21-.404.24-.63 0-.367-.332-.472-.736-.24L55.81 50.508c-.199.112-.368.268-.496.456-.128.189-.21.405-.24.63zM55.074 55.575c0 .368.328.475.736.24l24.96-14.41c.198-.113.368-.27.496-.459.127-.189.21-.405.24-.63 0-.366-.332-.473-.736-.238l-24.96 14.41c-.199.112-.368.268-.496.457-.128.188-.21.404-.24.63zM55.074 59.558c0 .365.328.473.736.238l24.96-14.411c.198-.113.368-.27.496-.458.127-.19.21-.405.24-.631 0-.365-.332-.473-.736-.238l-24.96 14.41c-.199.113-.369.27-.497.459-.127.189-.21.405-.239.631z"/>
    <path fill="#006455" d="M38.986 101.982L47.03 66.82l44.817-25.877-8.043 35.165-44.817 25.874z"/>
    <path fill="#CCC" d="M49.951 69.573v26.08l10.343-5.972V63.603l-10.343 5.97z"/>
    <path fill="#000" d="M49.951 69.573v26.08l10.343-5.972V63.603l-10.343 5.97z" opacity=".2"/>
    <path fill="#fff" d="M68.875 111.103c-.88-.657-9.361-7.138-13.673-16.408-4.588-9.857-4.583-21.354-4.583-25.68v-.135l30.746-17.75c0 4.366 0 15.88 4.608 25.77 4.212 9.053 12.368 15.452 13.661 16.43l-30.76 17.773z"/>
    <path fill="#CCC" d="M81.224 51.386c0 4.549.087 15.842 4.622 25.585C89.917 85.713 97.657 92 99.38 93.326l-30.496 17.607c-1.191-.897-9.353-7.27-13.551-16.286-4.583-9.828-4.583-21.303-4.583-25.623v-.053l30.462-17.588.012.003zm.271-.492L50.467 68.81c0 4.07-.085 15.898 4.597 25.956 4.608 9.87 13.791 16.507 13.791 16.507l31.037-17.92s-9.194-6.636-13.788-16.506c-4.685-10.057-4.597-21.885-4.597-25.956l-.012.003z"/>
    <path fill="#fff" d="M81.224 51.386c0 4.549.087 15.842 4.622 25.585C89.917 85.713 97.657 92 99.38 93.326l-30.496 17.607c-1.191-.897-9.353-7.27-13.551-16.286-4.583-9.828-4.583-21.303-4.583-25.623v-.053l30.462-17.588.012.003zm.271-.492L50.467 68.81c0 4.07-.085 15.898 4.597 25.956 4.608 9.87 13.791 16.507 13.791 16.507l31.037-17.92s-9.194-6.636-13.788-16.506c-4.685-10.057-4.597-21.885-4.597-25.956l-.012.003z" opacity=".7"/>
    <path fill="#455A64" d="M77.995 56.901l-9.811 5.658c-.197.108-.364.262-.488.449-.124.186-.202.4-.225.623.014.36.356.461.76.227l9.815-5.658c.194-.107.36-.26.483-.443.123-.184.201-.395.227-.615-.017-.374-.354-.476-.761-.24zM78.204 60.762l-9.81 5.658c-.194.105-.359.257-.479.442-.12.184-.19.397-.206.617.031.347.388.44.792.206l9.814-5.658c.193-.104.356-.255.475-.44.118-.185.187-.396.201-.615-.028-.351-.38-.436-.787-.21zM78.599 64.518l-9.814 5.658c-.405.235-.699.701-.65 1.038.047.337.418.424.825.19l9.814-5.658c.404-.235.693-.7.642-1.036-.05-.336-.413-.427-.817-.192zM79.187 68.158l-9.814 5.658c-.405.234-.685.693-.617 1.021.068.328.453.402.849.167l9.81-5.658c.408-.235.68-.69.612-1.019-.068-.328-.422-.404-.84-.17zM79.984 71.677l-9.814 5.658c-.405.235-.668.682-.566.996.102.314.49.385.894.15l9.814-5.658c.407-.235.662-.68.566-.996-.097-.317-.49-.385-.894-.15zM81.02 75.07L57.104 88.878c-.405.235-.65.67-.54.973.11.303.531.36.936.125l23.916-13.809c.408-.234.642-.667.532-.973-.11-.305-.537-.36-.928-.124zM82.278 78.31L58.365 92.117c-.407.235-.63.659-.495.948.136.288.566.333.979.099l23.916-13.809c.407-.235.625-.659.49-.947-.136-.29-.57-.332-.977-.1zM83.849 81.395L59.932 95.203c-.407.235-.608.648-.447.922.162.275.623.303 1.03.068l23.9-13.808c.404-.232.6-.642.438-.917-.161-.274-.608-.308-1.004-.073zM85.679 84.314L61.766 98.12c-.408.234-.589.639-.405.896.184.258.668.283 1.075.046l23.913-13.809c.408-.234.583-.633.4-.894-.185-.26-.663-.28-1.07-.045zM87.767 87.09L63.85 100.895c-.405.235-.566.628-.362.875.203.246.704.257 1.111.022l23.917-13.814c.404-.235.565-.622.356-.868-.21-.246-.699-.263-1.106-.02zM90.072 89.733L66.164 103.54c-.407.234-.566.619-.328.848.237.229.741.235 1.146 0l23.916-13.808c.407-.235.549-.614.322-.849-.226-.234-.735-.229-1.148.003zM92.618 92.258l-23.916 13.805c-.405.235-.538.611-.283.835.255.223.775.215 1.183-.02L93.498 93.07c.404-.235.532-.603.283-.83-.25-.226-.767-.217-1.163.018z"/>
    <path fill="#006455" d="M64.628 64.621l-11.282 6.507c.124 4.088.591 9.983 2.3 15.921l11.284-6.506c-1.711-5.938-2.178-11.837-2.302-15.922z"/>
    <path fill="#fff" d="M64.628 64.621l-11.282 6.507c.124 4.088.591 9.983 2.3 15.921l11.284-6.506c-1.711-5.938-2.178-11.837-2.302-15.922z" opacity=".8"/>
    <path fill="#CCC" d="M57.946 70.228c.015-.263-.026-.528-.12-.774-.095-.247-.242-.471-.43-.657l-4.05 2.337c.034 1.08.09 2.288.19 3.59.526.06 1.06-.038 1.53-.283 1.592-.73 2.88-2.623 2.88-4.213z"/>
    <path fill="#fff" d="M57.946 70.228c.015-.263-.026-.528-.12-.774-.095-.247-.242-.471-.43-.657l-4.05 2.337c.034 1.08.09 2.288.19 3.59.526.06 1.06-.038 1.53-.283 1.592-.73 2.88-2.623 2.88-4.213z" opacity=".6"/>
    <path fill="#CCC" d="M65.971 76.64c-.752-.948-2.283-3.876-2.936-5.151-.026-.05-.066-.093-.116-.12-.05-.027-.106-.039-.162-.034-.057.005-.11.027-.154.063-.044.036-.075.084-.092.139-.707 2.416-1.117 4.91-1.222 7.426-.942-.748-1.752-1.65-2.396-2.665-.027-.04-.066-.07-.11-.089-.044-.018-.093-.023-.14-.015-.047.008-.091.03-.127.062-.035.033-.06.075-.073.121-1.233 4.75-.614 9.423-.614 9.423l9.101-5.256c-.379-1.313-.693-2.62-.959-3.904z"/>
    <path fill="#fff" d="M65.971 76.64c-.752-.948-2.283-3.876-2.936-5.151-.026-.05-.066-.093-.116-.12-.05-.027-.106-.039-.162-.034-.057.005-.11.027-.154.063-.044.036-.075.084-.092.139-.707 2.416-1.117 4.91-1.222 7.426-.942-.748-1.752-1.65-2.396-2.665-.027-.04-.066-.07-.11-.089-.044-.018-.093-.023-.14-.015-.047.008-.091.03-.127.062-.035.033-.06.075-.073.121-1.233 4.75-.614 9.423-.614 9.423l9.101-5.256c-.379-1.313-.693-2.62-.959-3.904z" opacity=".6"/>
    <circle cx="62.5" cy="62.5" r="60" stroke="#006455" stroke-width="5"/>
</svg>
