<svg xmlns="http://www.w3.org/2000/svg" width="125" height="125" fill="none" viewBox="0 0 125 125">
    <path fill="url(#paint0_linear)" d="M43.248 42.133l9.718-6.283L122 79.503 69.022 107 .232 69.915l11.986-7.74c-.212-.159-.413-.328-.614-.497-.106-.084-.223-.169-.329-.264-.318-.274-.604-.57-.89-.876l-.254-.254c-.287-.306-.54-.644-.806-.971-.074-.095-.148-.18-.222-.275-.244-.338-.477-.697-.71-1.056-.075-.105-.149-.21-.212-.327-.212-.349-.424-.729-.626-1.109-.084-.148-.159-.274-.243-.422-.18-.349-.36-.718-.54-1.088-.096-.2-.202-.401-.298-.612-.265-.56 33.807-13.105 36.774-12.291z" opacity=".5"/>
    <path fill="#fff" stroke="#CCC" stroke-width=".2" d="M52.97 30.117L121.808 79.5l-52.778 27.383L.19 57.5l52.778-27.383z"/>
    <path fill="#006455" d="M14.89 58.785l38.289-19.873-2.088-1.5-38.3 19.873 2.098 1.5zM20.623 62.893l38.29-19.862-1.294-.93L19.33 61.976l1.293.918zM24.077 65.374l38.3-19.863-1.293-.929-38.29 19.873 1.283.919zM27.544 67.866l38.29-19.873-1.283-.919-38.29 19.863 1.283.929zM34.464 72.829l38.29-19.873-1.283-.919L33.18 71.9l1.283.929zM37.93 75.311L76.219 55.45l-1.282-.93-38.3 19.874 1.293.918z"/>
    <path fill="#1D1D1B" d="M65.017 65.532l14.667-7.603L78.39 57l-14.657 7.613 1.283.92z"/>
    <path fill="#006455" d="M44.849 80.274l38.289-19.862-1.282-.93-38.29 19.873 1.283.92zM48.314 82.755l38.29-19.863-1.293-.93-38.29 19.874 1.293.919zM60.746 80.59L90.07 65.374l-1.293-.919-29.324 15.206 1.293.929zM83.372 81.678l17.084-8.859-1.293-.919-17.073 8.86 1.282.918zM86.838 84.17l17.073-8.86-1.283-.93-17.083 8.86 1.293.93z"/>
    <path fill="#1D71B8" d="M61.806 96.355c-4.175-2.999-3.857-7.36.71-9.725 4.568-2.365 11.679-1.858 15.854 1.13 4.176 2.999 3.858 7.36-.71 9.725-4.567 2.376-11.678 1.87-15.854-1.13zm.562-.285c3.889 2.788 10.523 3.263 14.783 1.056s4.557-6.272.657-9.07C73.92 85.268 67.285 84.793 63.025 87s-4.557 6.272-.657 9.07z"/>
    <path fill="#1D71B8" d="M63.015 95.732c-3.56-2.556-3.296-6.283.604-8.3 3.9-2.028 9.972-1.584 13.533.971 3.561 2.556 3.296 6.283-.604 8.3-3.9 2.017-9.972 1.584-13.533-.971zm.37-.19c3.382 2.418 9.125 2.83 12.824.918 3.688-1.911 3.953-5.448.572-7.867-3.38-2.418-9.124-2.83-12.823-.918-3.688 1.911-3.953 5.438-.572 7.867z"/>
    <path fill="#1D71B8" d="M65.876 94.244c-2.12-1.52-1.961-3.738.36-4.942 2.32-1.204 5.934-.95 8.065.58 2.12 1.521 1.96 3.739-.36 4.943-2.332 1.203-5.946.95-8.066-.581zm.37-.19c1.94 1.383 5.236 1.626 7.345.528 2.12-1.098 2.267-3.126.328-4.51-1.94-1.383-5.235-1.625-7.344-.527-2.12 1.098-2.268 3.125-.329 4.509zM64.35 89.83s-1.484-.687-1.389-.771l1.209.56-.764-.877c-.02-.021-.031-.042.085-.127 0 0 1.484.687 1.389.771l-1.208-.56s.763.898.784.993c-.01 0-.022.01-.106.01zM63.978 90.431c-.042.032-.095.053-.159.074-.063.011-.127.022-.2.022-.075 0-.16-.022-.255-.053l-.763-.222c-.096-.032-.17-.063-.223-.095-.053-.032-.095-.074-.116-.116-.022-.042-.032-.085-.022-.127.011-.042.022-.084.053-.127.032-.042.064-.084.107-.116.042-.032.095-.053.158-.074.064-.01.128-.02.202-.02.074 0 .159.02.254.041l.763.222c.096.032.17.063.223.095.053.032.095.074.116.116.022.043.032.085.022.127-.011.042-.022.085-.053.127-.032.053-.064.095-.106.126zm-.55-.063c.127.042.233.042.317.032.085-.021.149-.064.191-.127.042-.063.042-.127.01-.18-.031-.052-.116-.094-.243-.137l-.763-.221c-.127-.032-.233-.043-.318-.032-.085.021-.148.063-.19.127-.043.063-.043.126-.011.18.031.052.116.094.243.136l.763.222zM62.081 90.443l-.085.264s1.664.264 1.632.37l-1.664-.265s-.084.264-.243.232c.01 0 .201-.633.36-.601zM63.565 91.414l-.403.053-.01.443s.402.095.35.201c0 0-1.781-.433-1.781-.56 0 0 1.801-.243 1.886-.18.01.011 0 .022-.042.043zm-.551.074l-1.07.137 1.059.254.01-.391zM63.596 92.353l-.795.063.064.2.858.19c.021 0 .043.011 0 .117l-.848-.19c0 .031-.01.074-.02.105-.011.032-.033.064-.075.085-.032.021-.074.042-.127.063-.053.021-.117.032-.202.032-.095.01-.18 0-.254-.01-.074-.011-.127-.032-.18-.064-.053-.032-.085-.063-.117-.106-.032-.042-.053-.084-.063-.137l-.085-.285c0-.032.01-.042.053-.042-.01.01 1.76-.127 1.79-.021zm-1.6.348c.02.074.063.127.137.17.075.041.17.052.297.041.127-.01.223-.042.265-.084.042-.053.053-.106.032-.18l-.074-.221-.72.052.063.222zM64.073 93.399s-.615.127-.636.137c0 0-.752.528-.88.454l.7-.475-1.07-.095c-.043 0-.064-.01 0-.106 0 0 1.176.117 1.197.106.01.01.625-.116.689-.021zM64.784 94.201l-.55.254.232.19c.053.042.085.084.106.116.022.042.043.084.032.127 0 .042-.021.084-.064.116-.042.042-.095.074-.2.126-.086.032-.16.064-.234.074-.074.01-.138.01-.201 0-.064-.01-.127-.031-.18-.052l-.16-.096-.307-.242c-.032-.021-.032-.043 0-.064.01-.01 1.41-.644 1.526-.549zm-1.091.782c.074.063.159.095.244.105.095.01.19-.01.328-.063.106-.053.17-.095.18-.159.01-.052-.021-.116-.095-.18l-.233-.19-.657.297.233.19zM65.939 95.385c.085-.064.127-.117.117-.18-.011-.053-.064-.116-.149-.158-.095-.053-.19-.074-.275-.074-.096 0-.18.031-.265.095 0 0-.838.591-.965.517l.827-.591c.064-.042.127-.085.201-.095.064-.021.138-.032.202-.032.063 0 .137.01.201.032.064.021.127.042.19.074.064.031.107.063.15.105.042.043.063.074.073.117.01.042 0 .084-.02.126-.022.043-.064.095-.128.138 0 0-.827.59-.964.517l.805-.591zM66.745 95.342l.445.158c.063.021.127.053.17.085.052.031.084.063.105.105.022.043.032.074.022.127-.011.042-.032.095-.096.169-.032.032-.064.063-.095.084-.032.022-.075.043-.106.053-.032.01-.074.021-.117.021h-.127c.042.032.074.085.074.138 0 .052-.021.105-.074.169-.042.052-.085.084-.138.105-.053.021-.106.032-.17.032-.063 0-.116 0-.18-.021-.063-.01-.127-.032-.19-.053 0 0-.382-.137-.424-.2-.01-.011.805-.962.9-.972zm.01.116l-.37.433.338.127c.106.031.202.052.276.042.085-.01.159-.053.244-.148.063-.074.074-.137.053-.19-.032-.053-.096-.095-.202-.137l-.339-.127zm-.72.855l.296.106c.053.021.096.032.138.042.043.01.085.01.127.01.043 0 .075-.01.106-.02.032-.011.064-.043.096-.074.053-.064.074-.127.042-.17-.032-.042-.095-.084-.201-.126l-.308-.106-.296.338zM68.747 96.017l-.72-.159s-.467.993-.636.95c0 0 .487-1.045.582-1.066.011 0 .817.18.774.275zM69.214 96.018s-.265 1.077-.435 1.056c0 0 .265-1.077.435-1.056zM70.643 96.99c0 .042-.01.073-.042.105-.021.032-.064.063-.106.085-.043.02-.106.042-.17.052-.063.01-.148.01-.233.01-.074 0-.148-.01-.212-.03-.063-.011-.127-.043-.18-.064-.053-.032-.095-.064-.117-.116-.031-.043-.042-.095-.042-.159v-.507c0-.063.01-.116.042-.158.032-.042.064-.074.117-.106.053-.02.106-.042.17-.052.063-.01.137-.01.212-.01.084 0 .159.01.233.03.063.022.127.043.17.064.042.032.084.064.105.095.021.032.032.074-.053.17-.053 0-.085-.022-.106-.117-.01-.021-.021-.042-.053-.063-.021-.021-.053-.043-.106-.053-.042-.01-.106-.021-.19-.032-.128-.01-.223.01-.297.042-.064.043-.096.095-.096.18v.507c0 .084.032.147.096.19.063.042.159.063.286.074.074 0 .138 0 .19-.01.043-.011.085-.033.107-.043.02-.021.042-.042.074-.116.032-.01.042-.021.201.031zM75.605 94.496s1.42.74 1.314.813l-1.155-.602s.678.908.583 1.035c0 0-1.42-.739-1.314-.813l1.155.602s-.678-.919-.689-1.014c.01-.02.032-.02.106-.02zM76.039 93.916c.042-.031.095-.053.159-.063.063-.01.127-.021.212-.01.074.01.159.02.254.052l.742.243c.095.032.17.063.222.105.053.032.085.074.106.117.022.042.022.084.01.126-.01.043-.03.085-.063.127-.031.042-.074.074-.116.106-.043.031-.106.053-.16.063-.063.01-.126.021-.211.01-.074-.01-.16-.02-.255-.052l-.741-.243c-.096-.032-.17-.063-.223-.106-.053-.031-.085-.074-.106-.116-.021-.042-.021-.084-.01-.127.01-.042.031-.084.063-.126.032-.043.074-.074.117-.106zm.55.074c-.126-.042-.232-.053-.317-.042-.085.021-.16.053-.202.116-.052.063-.063.127-.031.18.031.052.106.105.233.147l.742.243c.127.043.233.053.318.043.084-.011.159-.053.2-.117.054-.063.065-.126.033-.18-.032-.052-.106-.105-.233-.147l-.742-.243zM77.946 93.968l.106-.264s-1.642-.327-1.6-.432l1.643.327s.106-.254.265-.222c0 .01-.255.623-.414.591zM76.547 92.945l.413-.042.053-.444s-.392-.105-.339-.211c0 0 1.749.496 1.728.623 0 0-1.823.18-1.908.106.01 0 .01-.01.053-.032zm.572-.053l1.081-.095-1.038-.296-.043.391zM76.61 92.015l.806-.031-.042-.212-.838-.221c-.02-.011-.042-.011.01-.117l.828.222c0-.032.01-.074.031-.105.01-.032.043-.064.075-.085.031-.021.084-.042.137-.063.053-.01.127-.021.212-.032.096 0 .18 0 .255.021.074.021.127.043.18.074.042.032.085.064.106.106.02.042.042.084.053.137l.063.285c0 .032-.01.042-.053.042-.02.022-1.79.085-1.823-.02zm1.643-.285c-.01-.074-.053-.127-.116-.169-.064-.042-.16-.063-.297-.053-.127.01-.223.032-.265.074-.043.043-.064.106-.043.18l.043.222.731-.032-.053-.222zM76.24 90.96s.636-.106.647-.117c0 0 .805-.496.922-.411l-.753.443 1.07.137c.043 0 .064.022-.01.106 0 0-1.166-.158-1.187-.158 0-.011-.636.105-.689 0zM75.615 90.137l.583-.222-.222-.2c-.043-.043-.075-.085-.096-.127-.021-.043-.032-.085-.021-.127.01-.042.032-.074.074-.116.043-.043.106-.074.212-.117.085-.031.16-.052.233-.063.074-.01.149-.01.212.01.064.011.127.032.18.064.053.032.106.063.149.106l.275.253c.022.032.022.042-.01.063 0 0-1.473.57-1.569.476zm1.166-.74c-.064-.063-.148-.105-.233-.116-.096-.01-.19 0-.329.053-.116.042-.18.095-.19.148-.022.053.01.116.074.18l.222.2.69-.264-.234-.2zM74.566 88.922c-.095.053-.137.116-.137.17 0 .052.053.115.137.168.085.053.18.085.276.085.095 0 .19-.022.286-.085 0 0 .89-.56 1.017-.475l-.89.56c-.074.042-.138.073-.212.095-.063.02-.138.02-.201.02-.064 0-.127-.02-.19-.041-.064-.022-.128-.053-.181-.085-.053-.032-.106-.074-.138-.106-.032-.042-.053-.073-.063-.116-.011-.042 0-.084.031-.126.032-.043.075-.085.149-.127 0 0 .89-.56 1.017-.475l-.9.538zM73.729 88.912l-.424-.17c-.064-.02-.117-.052-.159-.084-.042-.032-.074-.063-.095-.105-.021-.043-.021-.074-.01-.127.01-.042.042-.095.116-.17.032-.03.074-.062.106-.084.031-.02.074-.031.116-.042.043-.01.075-.01.117-.01.042 0 .085 0 .127.01-.042-.042-.064-.084-.064-.137 0-.053.032-.106.085-.158.043-.043.096-.085.149-.106.053-.021.106-.032.17-.032.063 0 .116.01.18.021l.19.064s.371.148.403.21c.01 0-.901.92-1.007.92zm.816-.93l-.286-.116c-.043-.02-.096-.031-.138-.042-.042-.01-.085-.021-.127-.01-.042 0-.074.01-.117.02-.031.011-.074.032-.095.064-.064.063-.085.116-.064.169.032.042.096.095.191.137l.297.116.339-.338zm-.805.824l.413-.412-.329-.137c-.106-.042-.19-.053-.275-.053-.085.01-.16.042-.255.137-.074.074-.095.127-.063.19.021.053.085.106.19.138l.319.137zM71.811 88.182l.71.18s.562-.962.731-.92c0 0-.593 1.015-.688 1.036-.011 0-.806-.212-.753-.296zM71.344 88.16s.37-1.066.54-1.034c0 0-.37 1.066-.54 1.034zM70.009 87.137c0-.032.021-.074.053-.095.032-.032.064-.053.117-.074.053-.021.106-.032.18-.042.074-.01.148-.01.233 0 .074.01.148.021.212.032.063.02.116.042.17.073.042.032.084.074.105.117.022.042.032.095.032.158l-.053.496c-.01.064-.032.116-.063.159-.032.042-.075.074-.128.095-.053.02-.116.042-.18.042-.063.01-.138.01-.212 0-.084-.01-.159-.021-.233-.042-.063-.021-.127-.043-.17-.074-.042-.032-.074-.064-.095-.095-.021-.032-.032-.074.064-.17.053 0 .085.022.095.117.01.021.021.042.043.063.02.021.053.043.095.064.042.02.106.031.18.031.127.011.223 0 .297-.031.074-.032.106-.095.116-.18l.053-.496c.011-.085-.02-.148-.074-.19-.063-.042-.148-.074-.275-.085-.075-.01-.149-.01-.191 0-.053.01-.085.021-.117.043-.031.02-.053.042-.084.116-.011.02-.011.031-.17-.032z"/>
    <path fill="#1D71B8" d="M66.618 93.864c-1.748-1.257-1.61-3.084.297-4.077 1.907-.992 4.885-.78 6.634.476 1.749 1.256 1.61 3.083-.297 4.076-1.907.992-4.885.781-6.634-.475zm.371-.19c1.558 1.119 4.218 1.309 5.924.422 1.706-.887 1.823-2.513.265-3.633-1.558-1.119-4.218-1.309-5.924-.422-1.706.876-1.823 2.513-.265 3.632zM66.84 87.961l-.69.18c-.063.02-.116.01-.17-.032-.031-.021-.042-.042-.052-.074 0-.031.01-.053.085-.084l.72-.159-.54-.359c-.032-.02-.043-.053-.043-.074.01-.02.021-.042.053-.063.032-.021.064-.021.106-.021.043 0 .074.01.117.032l.498.38s.37-.412.403-.433c.042-.021.074-.032.127-.021.042.01.085.02.138.147l-.403.391.774.116c.042.01.063.022.084.032.032.021.043.053.032.085-.01.031-.032.052-.063.063-.032.021-.075.021-.107.01l-.773-.147s.116.485.074.56c-.032.02-.074.02-.116.02-.053 0-.085-.01-.16-.084l-.095-.465zM73.072 96.397l-.69.18c-.063.02-.116.01-.169-.032-.032-.022-.042-.043-.053-.074 0-.032.01-.053.085-.085l.72-.158-.54-.36c-.032-.02-.042-.052-.042-.073.01-.021.02-.042.053-.063.031-.022.063-.022.106-.022.042 0 .074.011.116.032l.498.38s.371-.412.403-.433c.042-.02.074-.031.127-.02.043.01.085.02.138.147l-.403.39.763.149c.043.01.064.02.085.031.032.021.042.053.032.085-.01.031-.032.052-.064.063-.031.021-.063.021-.106.01l-.773-.147s.116.486.074.56c-.032.02-.074.02-.117.02-.053 0-.084-.01-.159-.084l-.084-.496zM83.085 81.752c1.643.644 3.19 1.383 4.822 2.049 2.723 1.098 5.987 2.09 9.188 1.69 1.23-.16 2.554-.497 3.211-1.194.594-.623.509-1.415-.52-1.932-2.522-1.257-5.945-.454-8.276.306-.138.042-.021.19.117.137 1.324-.433 2.755-.834 4.292-.919 1.494-.084 4.175.159 4.493 1.363.276 1.024-1.314 1.72-2.692 1.974-1.505.275-3.168.233-4.726-.042-3.519-.634-6.327-2.175-9.38-3.4-.444-.18-.9-.349-1.356-.496 1.569-.085 3.031-.465 3.985-1.257.095-.074-.117-.169-.212-.095-.954.802-2.522 1.183-4.154 1.214-.954-.317-1.94-.591-2.957-.845-.9-.221-1.802-.454-2.702-.675-.562-.138-1.103-.254-1.696-.19-.064.01-.117.042-.095.084.318.623 1.77.877 2.638 1.098 1.103.285 2.258.539 3.434.634.435.032.88.053 1.314.042.435.137.859.285 1.272.454zm-1.717-.602c-.286-.01-.572-.02-.848-.053-1.017-.095-2.013-.274-2.978-.517-.455-.116-.911-.243-1.356-.37-.509-.147-1.198-.285-1.452-.633.911-.053 1.929.317 2.776.528 1.293.327 2.597.655 3.858 1.045z"/>
    <path fill="#1D71B8" d="M69.563 89.355c1.06-1.436 3.709-2.059 6.2-1.478-.287.443-.17.93.328 1.341.042.042.159.042.201 0 .043-.063.096-.116.043-.19-.096-.127-.901-.644-.032-.655.858-.01 1.812.17 2.66.264.116.01.159-.074.095-.127-.37-.316-.774-.633-1.123-.95-.255-.232-.329-.591.339-.507.254.032.508.064.763.106.36.074.7.158 1.038.264.51.327 1.092.591 1.77.781.117.032.223-.063.127-.116-.54-.327-1.133-.602-1.812-.813-.063-.042-.127-.095-.19-.137-.213-.17-1.22-.95-.16-1.035.308-.021.626-.021.933.01.859.106 1.685.307 2.48.56.466.18.943.36 1.43.528.138.053.276-.063.128-.127-.445-.19-.912-.359-1.4-.517-2.69-1.045-5.15-2.323-7.3-3.79 1.016.21 1.907.601 2.807.97.922.38 1.866.73 2.84 1.046.89.285 1.802.56 2.735.802.636.159 1.356.391 2.035.38.307 0 .614-.063.858-.168.456.01.869-.043 1.176-.212 1.103-.622-.254-1.288-1.155-1.678-.773-.338-1.6-.697-2.469-.94-.487-.138-.954-.211-1.378-.021-.127.053.043.18.17.116.689-.306 1.929.306 2.533.549.667.264 1.43.538 1.981.887.34.211.721.549.36.834-.232.18-.55.264-.91.285.285-.222.35-.528-.107-.834-.985-.665-2.289-1.299-3.656-1.594-.466-.106-2.999-.539-2.639.21.18.37.721.655 1.187.909.647.348 1.346.644 2.099.887.572.19 1.526.475 2.395.57-.72.137-1.516-.084-2.205-.264-.646-.169-1.282-.338-1.907-.528-1.378-.412-2.713-.887-3.985-1.415-.996-.412-1.971-.824-3.137-.993-.106-.02-.17.074-.095.127 1.897 1.33 4.048 2.503 6.4 3.506l-.264-.063c-.668-.138-1.78-.37-2.395-.095-.647.285-.127.77.297 1.108-.552-.158-1.293-.327-1.77-.253-.382.063-.594.253-.403.507.286.38.763.728 1.187 1.066-.54-.063-1.081-.116-1.621-.18-.403-.041-.785-.105-1.209.043.011-.148.075-.285.18-.422.032-.043.011-.095-.063-.117-2.67-.665-5.51 0-6.645 1.542-.053.053.191.116.255.021zm15.684-4.129c-1.23-.348-2.65-.876-3.476-1.562-.18-.148-.551-.518.159-.539.17-.01.34 0 .509 0 .36.021.71.053 1.06.127.593.116 1.165.285 1.695.496.689.275 3.232 1.362 2.236 1.88-.074 0-.148-.01-.222-.01-.668-.085-1.336-.222-1.96-.391z"/>
    <path fill="#CCC" d="M121.217 66.883L82.945 56.108l.699-2.54 38.271 10.775c.141.039.223.185.185.328l-.558 2.027c-.039.142-.183.227-.325.185z"/>
    <path fill="#EEE" d="M120.323 67.09l-22.172-6.243c-.135-.037-.215-.178-.175-.314l.796-2.904c.037-.135.177-.215.312-.175l22.172 6.243c.135.037.215.178.176.315l-.797 2.903c-.04.136-.177.212-.312.175z"/>
    <path fill="#006455" d="M120.323 67.09l-22.172-6.243c-.135-.037-.215-.178-.175-.314l.796-2.904c.037-.135.177-.215.312-.175l22.172 6.243c.135.037.215.178.176.315l-.797 2.903c-.04.136-.177.212-.312.175z" opacity=".2"/>
    <path fill="#EEE" d="M82.912 56.656l-2.458-.69.98-3.572 2.458.69c.246.07.388.326.322.57l-.734 2.679c-.068.248-.322.392-.569.323z"/>
    <path fill="#CCC" d="M79.417 56.686l-.385-.11 1.5-5.456.385.11c.55.153.873.729.722 1.28l-.948 3.453c-.153.556-.724.88-1.274.723zM81.694 45.097l-14.422-4.06c-.29-.082-.462-.386-.381-.677l1.483-5.397c.08-.291.381-.463.671-.381l14.422 4.06c.29.082.462.386.38.677l-1.482 5.397c-.08.294-.381.463-.671.38z"/>
    <path fill="#006455" d="M81.694 45.097l-14.422-4.06c-.29-.082-.462-.386-.381-.677l1.483-5.397c.08-.291.381-.463.671-.381l14.422 4.06c.29.082.462.386.38.677l-1.482 5.397c-.08.294-.381.463-.671.38z" opacity=".5"/>
    <path fill="#CCC" d="M82.336 44.825l-15.474-4.356c-.234-.067-.369-.31-.306-.541l.451-1.64c.066-.235.307-.37.537-.306l15.474 4.356c.234.067.368.31.305.54l-.451 1.641c-.063.232-.303.37-.536.306z"/>
    <path fill="#EEE" d="M81.746 44.958l-5.052-1.42-4.342-1.222-5.052-1.42c.25.778.015 1.632-.597 2.169l5.053 1.42 4.342 1.221 5.052 1.421c-.247-.78-.015-1.632.596-2.169z"/>
    <path fill="#CCC" d="M76.957 62.345l-14.422-4.06c-.29-.082-.59.09-.671.381l-1.483 5.397c-.08.291.092.595.381.677l14.422 4.06c.29.082.59-.09.671-.381l1.483-5.397c.078-.29-.091-.595-.381-.677z"/>
    <path fill="#006455" d="M76.957 62.345l-14.422-4.06c-.29-.082-.59.09-.671.381l-1.483 5.397c-.08.291.092.595.381.677l14.422 4.06c.29.082.59-.09.671-.381l1.483-5.397c.078-.29-.091-.595-.381-.677z" opacity=".5"/>
    <path fill="#CCC" d="M77.365 62.917l-15.474-4.356c-.234-.066-.474.072-.536.306l-.452 1.64c-.065.235.073.477.306.54l15.474 4.357c.234.066.474-.071.536-.306l.452-1.64c.066-.232-.072-.474-.306-.54z"/>
    <path fill="#EEE" d="M78.157 60.034c-.08.291-.381.464-.671.382l-14.422-4.06c-.29-.083-.462-.386-.381-.678l.618-2.248 15.474 4.356-.618 2.248z"/>
    <path fill="#828282" d="M80.025 53.235l1.177-5.93-14.621-4.382-3.49 11.279 15.473 4.353.387-1.405 1.074-3.915z"/>
    <path fill="#CCC" d="M80.025 53.235l1.177-5.93-14.621-4.382-3.49 11.279 15.473 4.353.387-1.405 1.074-3.915z" opacity=".5"/>
    <path fill="#EEE" d="M76.93 62.495l-5.053-1.421-4.342-1.221-5.052-1.421c.611-.537.846-1.39.596-2.17l5.053 1.421 4.341 1.221 5.053 1.421c-.615.538-.847 1.39-.597 2.17z"/>
    <circle cx="62.5" cy="62.5" r="60" stroke="#006455" stroke-width="5"/>
    <defs>
        <linearGradient id="paint0_linear" x1="122" x2=".234" y1="71.425" y2="71.425" gradientUnits="userSpaceOnUse">
            <stop/>
            <stop offset="1" stop-color="#fff"/>
        </linearGradient>
    </defs>
</svg>
