<svg xmlns="http://www.w3.org/2000/svg" width="40" height="40" fill="none" viewBox="0 0 40 40">
    <path fill="#000" stroke="#000" stroke-width=".5" d="M27.043 29.542c-3.032 0-5.5-2.468-5.5-5.5s2.468-5.5 5.5-5.5 5.5 2.468 5.5 5.5-2.468 5.5-5.5 5.5zm0-10.154c-2.566 0-4.654 2.089-4.654 4.654s2.088 4.654 4.654 4.654c2.567 0 4.654-2.089 4.654-4.654s-2.087-4.654-4.654-4.654z"/>
    <path fill="#000" stroke="#000" stroke-width=".4" d="M26.1 26.335h0l-1.54-1.54c-.227-.227-.227-.598 0-.826.229-.228.6-.228.828 0l1.096 1.097 2.28-2.607h.001l.15.131c.14-.16.384-.175.544-.035.16.14.175.38.036.54l-3.395 3.24zm0 0c.11.108.258.17.413.17h.024l-.437-.17z"/>
    <path fill="#000" stroke="#000" stroke-width=".8" d="M20.17 27.709h-6.417c-1.264 0-2.292-1.028-2.292-2.292V13.501c0-1.264 1.028-2.292 2.292-2.292h1.833c.253 0 .458.206.458.458 0 .253-.205.459-.458.459h-1.833c-.758 0-1.375.617-1.375 1.375v11.916c0 .758.617 1.375 1.375 1.375h6.416c.253 0 .459.206.459.459 0 .252-.206.458-.459.458zM26.586 16.709c-.253 0-.458-.206-.458-.458V13.5c0-.758-.617-1.375-1.375-1.375h-1.834c-.252 0-.458-.206-.458-.459 0-.252.206-.458.458-.458h1.834c1.263 0 2.291 1.028 2.291 2.292v2.75c0 .252-.205.458-.458.458z"/>
    <path fill="#000" stroke="#000" stroke-width=".8" d="M22.004 13.959h-5.5c-.758 0-1.375-.617-1.375-1.375v-1.833c0-.253.206-.459.458-.459h1.421c.214-1.045 1.139-1.833 2.246-1.833s2.032.788 2.246 1.833h1.42c.253 0 .459.206.459.459v1.833c0 .758-.617 1.375-1.375 1.375zm-5.958-2.75v1.375c0 .252.205.458.458.458h5.5c.253 0 .458-.206.458-.458v-1.375h-1.375c-.252 0-.458-.206-.458-.458 0-.758-.617-1.375-1.375-1.375s-1.375.617-1.375 1.375c0 .252-.206.458-.458.458h-1.375z"/>
    <path fill="#000" d="M19.044 22.459h-4.166c-.23 0-.417-.224-.417-.5s.187-.5.417-.5h4.166c.23 0 .417.224.417.5s-.187.5-.417.5zM15.291 18.459h7.47c.22 0 .432-.105.587-.293.156-.187.243-.442.243-.707 0-.265-.087-.52-.243-.707-.155-.188-.366-.293-.587-.293h-7.47c-.22 0-.431.105-.587.293-.156.187-.243.442-.243.707 0 .265.087.52.243.707.156.188.367.293.587.293z"/>
    <path fill="#000" d="M15.006 22.894h4.91c.144 0 .283-.106.385-.293.103-.188.16-.442.16-.707 0-.266-.057-.52-.16-.708-.102-.187-.24-.292-.385-.292h-4.91c-.144 0-.283.105-.385.292-.103.188-.16.442-.16.708 0 .265.057.52.16.707.102.187.24.293.385.293z"/>
</svg>
