<svg width="80" height="80" viewBox="0 0 80 80" fill="none" xmlns="http://www.w3.org/2000/svg">
<circle cx="40" cy="40" r="39" fill="#FAFAFA" stroke="#235B4E" stroke-width="2"/>
<path d="M49.8585 49.6745L45.4798 48.0931C44.6363 47.5802 44.0848 46.6966 43.9845 45.7243C47.1076 44.3113 49.3741 41.3325 49.7749 37.7973C51.2559 37.0391 52.2058 35.4959 52.2058 33.8283V26.3989C52.2058 22.8705 49.3313 20 45.798 20H34.4257C30.8923 20 28.0178 22.8705 28.0178 26.3989V34.2639C28.0178 35.7005 28.774 37.0097 30.0048 37.7316C30.3882 41.3272 32.7012 44.3552 35.8869 45.7611C35.7766 46.7188 35.2281 47.5866 34.3952 48.093L30.0166 49.6744C26.4178 50.9741 24 54.4146 24 58.2358V59.2188C24 59.6502 24.3498 60 24.7812 60H55.0938C55.5252 60 55.875 59.6502 55.875 59.2188V58.2358C55.875 54.4146 53.4572 50.9741 49.8585 49.6745ZM31.5107 36.6728V32.5052C32.8575 32.4852 34.1498 32.072 35.254 31.3048C36.0405 30.7583 36.6941 30.061 37.1816 29.2544C38.3329 30.2778 39.7003 31.0252 41.1904 31.4386C41.6059 31.5538 42.0366 31.3105 42.1521 30.8947C42.2675 30.4789 42.0239 30.0484 41.6082 29.933C40.0431 29.4987 38.6375 28.6279 37.5433 27.4147C37.362 27.2136 37.089 27.121 36.823 27.1694C36.5566 27.218 36.3344 27.401 36.2356 27.6531C35.4527 29.6526 33.5581 30.9445 31.4086 30.9445C31.1809 30.9445 30.9531 30.8935 30.7295 30.8935C30.2981 30.8935 29.9483 31.2433 29.9483 31.6748V35.5582C29.712 35.177 29.5804 34.7316 29.5804 34.2639V26.3989C29.5803 23.7321 31.7539 21.5625 34.4257 21.5625H45.7979C48.4696 21.5625 50.6433 23.7321 50.6433 26.3989V33.8283C50.6433 34.5811 50.3443 35.2945 49.8391 35.8253V29.1867C49.8391 28.7552 49.4892 28.4055 49.0578 28.4055C48.6748 28.4055 48.3566 28.6814 48.29 29.0452C47.5957 29.5028 47.0889 29.6877 46.1952 29.9349C45.7795 30.0499 45.5355 30.4803 45.6505 30.8962C45.7463 31.2423 46.0605 31.4694 46.403 31.4694C46.472 31.4694 46.542 31.4602 46.6118 31.4409C47.2545 31.2632 47.7656 31.0961 48.2766 30.8497V36.6729C48.2766 41.2873 44.5159 45.0413 39.8936 45.0413C35.2712 45.0413 31.5107 41.2872 31.5107 36.6728ZM54.3125 58.4375H25.5625V58.2358C25.5625 55.0707 27.5657 52.2207 30.5472 51.144L34.9954 49.5376C35.0392 49.5218 35.0815 49.5021 35.1217 49.4788C35.3565 49.3427 35.5766 49.1875 35.7809 49.0162L37.8658 52.3659C38.0139 52.6037 38.2688 52.7344 38.5298 52.7344C38.6708 52.7344 38.8134 52.6963 38.9419 52.6162C39.3081 52.3883 39.4203 51.9065 39.1923 51.5402L36.838 47.7573C37.1005 47.3028 37.2871 46.8048 37.3869 46.2839C38.188 46.4923 39.028 46.6037 39.8936 46.6037C40.7894 46.6037 41.6577 46.4841 42.4839 46.2613C42.5822 46.7882 42.7691 47.2921 43.0337 47.7516L40.6102 51.5313C40.3773 51.8945 40.4829 52.3778 40.8462 52.6107C40.9767 52.6945 41.1227 52.7344 41.2671 52.7344C41.5245 52.7344 41.7764 52.6074 41.9255 52.3748L44.0845 49.0079C44.2916 49.1824 44.5149 49.3405 44.7534 49.4788C44.7938 49.5021 44.836 49.5218 44.8798 49.5376L49.328 51.144C52.3093 52.2208 54.3125 55.0707 54.3125 58.2358V58.4375Z" fill="black"/>
<path d="M38.7415 54.1959L38.7415 54.1959L38.7313 54.2119C38.2908 54.9076 38.4982 55.8284 39.1955 56.2686L38.7415 54.1959ZM38.7415 54.1959L38.7422 54.1949M38.7415 54.1959L38.7422 54.1949M38.7422 54.1949C39.1827 53.4988 40.1055 53.2906 40.8042 53.7312L38.7422 54.1949ZM41.2577 55.8051L41.2584 55.804L41.2686 55.788C41.7092 55.0924 41.5019 54.1718 40.8044 53.7313L41.2577 55.8051ZM41.2577 55.8051C40.974 56.2534 40.4899 56.5 39.9926 56.5C39.7201 56.5 39.4445 56.4256 39.1956 56.2687L41.2577 55.8051Z" stroke="#BC955C"/>
<path d="M43.9056 30.2442L43.873 30.2441C43.8714 30.2441 43.8697 30.2441 43.8681 30.2441C43.4389 30.2441 43.0896 30.5908 43.0869 31.0205C43.0843 31.452 43.432 31.804 43.8634 31.8066L43.9056 31.8067C44.337 31.8067 44.6869 31.457 44.6869 31.0255C44.6869 30.594 44.337 30.2442 43.9056 30.2442Z" fill="#BC955C"/>
</svg>
