<svg width="80" height="80" viewBox="0 0 80 80" fill="none" xmlns="http://www.w3.org/2000/svg">
<circle cx="40" cy="40" r="39" fill="#FAFAFA" stroke="#235B4E" stroke-width="2"/>
<g clip-path="url(#clip0)">
<mask id="path-2-inside-1" fill="white">
<path d="M57.3749 45.9793C57.7202 45.9793 57.9997 45.6995 57.9997 45.3542V32.0424C57.9997 30.0482 56.5934 28.3771 54.7208 27.9665V20.6761C54.7208 20.3311 54.441 20.0513 54.096 20.0513H28.036C27.6909 20.0513 27.4112 20.3311 27.4112 20.6761V23.634H24.9631C24.6181 23.634 24.3383 23.9138 24.3383 24.2591V33.3442C22.9546 34.0244 22 35.4484 22 37.0915V55.8266C22 58.1278 23.8723 60.0001 26.1734 60.0001H53.8266C56.1277 60.0001 58 58.1278 58 55.8266V47.8541C58 47.5091 57.7202 47.2293 57.3749 47.2293C57.0299 47.2293 56.7501 47.5091 56.7501 47.8541V55.8266C56.7501 57.4386 55.4386 58.7501 53.8266 58.7501H26.1734C24.5614 58.7501 23.2499 57.4386 23.2499 55.8266V37.0915C23.2499 35.4792 24.5614 34.1677 26.1734 34.1677H36.3404C37.7973 34.1677 39.1247 33.428 39.8906 32.1887L40.9308 30.5054C41.4675 29.6371 42.3971 29.1189 43.4179 29.1189H53.8266C55.4386 29.1189 56.7501 30.4304 56.7501 32.0424V45.3545C56.7501 45.6995 57.0299 45.9793 57.3749 45.9793ZM39.8677 29.8483L38.8275 31.5316C38.2908 32.3996 37.3612 32.9181 36.3404 32.9181H26.1734C25.9747 32.9181 25.7796 32.933 25.5882 32.9598V24.8839H30.0655C30.4109 24.8839 30.6903 24.6041 30.6903 24.2591C30.6903 23.9138 30.4109 23.634 30.0655 23.634H28.6611V21.3012H53.4709V27.869H51.648V24.2591C51.648 23.9138 51.3682 23.634 51.0229 23.634H32.5654C32.2201 23.634 31.9406 23.9138 31.9406 24.2591C31.9406 24.6041 32.2201 24.8839 32.5654 24.8839H50.398V27.869H43.4179C41.961 27.869 40.6336 28.6087 39.8677 29.8483Z"/>
</mask>
<path d="M57.3749 45.9793C57.7202 45.9793 57.9997 45.6995 57.9997 45.3542V32.0424C57.9997 30.0482 56.5934 28.3771 54.7208 27.9665V20.6761C54.7208 20.3311 54.441 20.0513 54.096 20.0513H28.036C27.6909 20.0513 27.4112 20.3311 27.4112 20.6761V23.634H24.9631C24.6181 23.634 24.3383 23.9138 24.3383 24.2591V33.3442C22.9546 34.0244 22 35.4484 22 37.0915V55.8266C22 58.1278 23.8723 60.0001 26.1734 60.0001H53.8266C56.1277 60.0001 58 58.1278 58 55.8266V47.8541C58 47.5091 57.7202 47.2293 57.3749 47.2293C57.0299 47.2293 56.7501 47.5091 56.7501 47.8541V55.8266C56.7501 57.4386 55.4386 58.7501 53.8266 58.7501H26.1734C24.5614 58.7501 23.2499 57.4386 23.2499 55.8266V37.0915C23.2499 35.4792 24.5614 34.1677 26.1734 34.1677H36.3404C37.7973 34.1677 39.1247 33.428 39.8906 32.1887L40.9308 30.5054C41.4675 29.6371 42.3971 29.1189 43.4179 29.1189H53.8266C55.4386 29.1189 56.7501 30.4304 56.7501 32.0424V45.3545C56.7501 45.6995 57.0299 45.9793 57.3749 45.9793ZM39.8677 29.8483L38.8275 31.5316C38.2908 32.3996 37.3612 32.9181 36.3404 32.9181H26.1734C25.9747 32.9181 25.7796 32.933 25.5882 32.9598V24.8839H30.0655C30.4109 24.8839 30.6903 24.6041 30.6903 24.2591C30.6903 23.9138 30.4109 23.634 30.0655 23.634H28.6611V21.3012H53.4709V27.869H51.648V24.2591C51.648 23.9138 51.3682 23.634 51.0229 23.634H32.5654C32.2201 23.634 31.9406 23.9138 31.9406 24.2591C31.9406 24.6041 32.2201 24.8839 32.5654 24.8839H50.398V27.869H43.4179C41.961 27.869 40.6336 28.6087 39.8677 29.8483Z" fill="#222222"/>
<path d="M54.7208 27.9665H53.1208V29.2538L54.3782 29.5294L54.7208 27.9665ZM27.4112 23.634V25.234H29.0112V23.634H27.4112ZM24.3383 33.3442L25.0442 34.78L25.9383 34.3405V33.3442H24.3383ZM39.8906 32.1887L41.2516 33.0299L41.2517 33.0298L39.8906 32.1887ZM40.9308 30.5054L39.5698 29.6642L39.5697 29.6643L40.9308 30.5054ZM38.8275 31.5316L40.1884 32.3731L40.1886 32.3727L38.8275 31.5316ZM25.5882 32.9598H23.9882V34.7997L25.8103 34.5444L25.5882 32.9598ZM25.5882 24.8839V23.2839H23.9882V24.8839H25.5882ZM28.6611 23.634H27.0611V25.234H28.6611V23.634ZM28.6611 21.3012V19.7012H27.0611V21.3012H28.6611ZM53.4709 21.3012H55.0709V19.7012H53.4709V21.3012ZM53.4709 27.869V29.469H55.0709V27.869H53.4709ZM51.648 27.869H50.048V29.469H51.648V27.869ZM50.398 24.8839H51.998V23.2839H50.398V24.8839ZM50.398 27.869V29.469H51.998V27.869H50.398ZM57.3749 47.5793C58.6049 47.5793 59.5997 46.5822 59.5997 45.3542H56.3997C56.3997 44.8169 56.8355 44.3793 57.3749 44.3793V47.5793ZM59.5997 45.3542V32.0424H56.3997V45.3542H59.5997ZM59.5997 32.0424C59.5997 29.2789 57.6529 26.9714 55.0635 26.4037L54.3782 29.5294C55.534 29.7828 56.3997 30.8175 56.3997 32.0424H59.5997ZM56.3208 27.9665V20.6761H53.1208V27.9665H56.3208ZM56.3208 20.6761C56.3208 19.4474 55.3247 18.4513 54.096 18.4513V21.6513C53.5574 21.6513 53.1208 21.2147 53.1208 20.6761H56.3208ZM54.096 18.4513H28.036V21.6513H54.096V18.4513ZM28.036 18.4513C26.8073 18.4513 25.8112 19.4474 25.8112 20.6761H29.0112C29.0112 21.2147 28.5746 21.6513 28.036 21.6513V18.4513ZM25.8112 20.6761V23.634H29.0112V20.6761H25.8112ZM27.4112 22.034H24.9631V25.234H27.4112V22.034ZM24.9631 22.034C23.7339 22.034 22.7383 23.0307 22.7383 24.2591H25.9383C25.9383 24.797 25.5023 25.234 24.9631 25.234V22.034ZM22.7383 24.2591V33.3442H25.9383V24.2591H22.7383ZM23.6324 31.9083C21.7243 32.8464 20.4 34.8134 20.4 37.0915H23.6C23.6 36.0834 24.1849 35.2025 25.0442 34.78L23.6324 31.9083ZM20.4 37.0915V55.8266H23.6V37.0915H20.4ZM20.4 55.8266C20.4 59.0114 22.9886 61.6001 26.1734 61.6001V58.4001C24.756 58.4001 23.6 57.2441 23.6 55.8266H20.4ZM26.1734 61.6001H53.8266V58.4001H26.1734V61.6001ZM53.8266 61.6001C57.0114 61.6001 59.6 59.0114 59.6 55.8266H56.4C56.4 57.2441 55.244 58.4001 53.8266 58.4001V61.6001ZM59.6 55.8266V47.8541H56.4V55.8266H59.6ZM59.6 47.8541C59.6 46.6249 58.6034 45.6293 57.3749 45.6293V48.8293C56.8371 48.8293 56.4 48.3932 56.4 47.8541H59.6ZM57.3749 45.6293C56.1462 45.6293 55.1501 46.6254 55.1501 47.8541H58.3501C58.3501 48.3927 57.9135 48.8293 57.3749 48.8293V45.6293ZM55.1501 47.8541V55.8266H58.3501V47.8541H55.1501ZM55.1501 55.8266C55.1501 56.555 54.5549 57.1501 53.8266 57.1501V60.3501C56.3222 60.3501 58.3501 58.3223 58.3501 55.8266H55.1501ZM53.8266 57.1501H26.1734V60.3501H53.8266V57.1501ZM26.1734 57.1501C25.4451 57.1501 24.8499 56.555 24.8499 55.8266H21.6499C21.6499 58.3223 23.6778 60.3501 26.1734 60.3501V57.1501ZM24.8499 55.8266V37.0915H21.6499V55.8266H24.8499ZM24.8499 37.0915C24.8499 36.3627 25.4452 35.7677 26.1734 35.7677V32.5677C23.6776 32.5677 21.6499 34.5956 21.6499 37.0915H24.8499ZM26.1734 35.7677H36.3404V32.5677H26.1734V35.7677ZM36.3404 35.7677C38.3516 35.7677 40.194 34.7411 41.2516 33.0299L38.5296 31.3475C38.0553 32.1149 37.243 32.5677 36.3404 32.5677V35.7677ZM41.2517 33.0298L42.2919 31.3465L39.5697 29.6643L38.5295 31.3476L41.2517 33.0298ZM42.2918 31.3466C42.5369 30.9501 42.9515 30.7189 43.4179 30.7189V27.5189C41.8427 27.5189 40.3981 28.3241 39.5698 29.6642L42.2918 31.3466ZM43.4179 30.7189H53.8266V27.5189H43.4179V30.7189ZM53.8266 30.7189C54.5549 30.7189 55.1501 31.3141 55.1501 32.0424H58.3501C58.3501 29.5468 56.3222 27.5189 53.8266 27.5189V30.7189ZM55.1501 32.0424V45.3545H58.3501V32.0424H55.1501ZM55.1501 45.3545C55.1501 46.5832 56.1462 47.5793 57.3749 47.5793V44.3793C57.9135 44.3793 58.3501 44.8159 58.3501 45.3545H55.1501ZM38.5066 29.0072L37.4664 30.6905L40.1886 32.3727L41.2288 30.6894L38.5066 29.0072ZM37.4666 30.6902C37.2213 31.0869 36.8065 31.3181 36.3404 31.3181V34.5181C37.9158 34.5181 39.3602 33.7124 40.1884 32.3731L37.4666 30.6902ZM36.3404 31.3181H26.1734V34.5181H36.3404V31.3181ZM26.1734 31.3181C25.8943 31.3181 25.6249 31.3391 25.3662 31.3753L25.8103 34.5444C25.9344 34.527 26.0551 34.5181 26.1734 34.5181V31.3181ZM27.1882 32.9598V24.8839H23.9882V32.9598H27.1882ZM25.5882 26.4839H30.0655V23.2839H25.5882V26.4839ZM30.0655 26.4839C31.295 26.4839 32.2903 25.4873 32.2903 24.2591H29.0903C29.0903 23.721 29.5267 23.2839 30.0655 23.2839V26.4839ZM32.2903 24.2591C32.2903 23.0312 31.2955 22.034 30.0655 22.034V25.234C29.5262 25.234 29.0903 24.7964 29.0903 24.2591H32.2903ZM30.0655 22.034H28.6611V25.234H30.0655V22.034ZM30.2611 23.634V21.3012H27.0611V23.634H30.2611ZM28.6611 22.9012H53.4709V19.7012H28.6611V22.9012ZM51.8709 21.3012V27.869H55.0709V21.3012H51.8709ZM53.4709 26.269H51.648V29.469H53.4709V26.269ZM53.248 27.869V24.2591H50.048V27.869H53.248ZM53.248 24.2591C53.248 23.0302 52.2518 22.034 51.0229 22.034V25.234C50.4845 25.234 50.048 24.7975 50.048 24.2591H53.248ZM51.0229 22.034H32.5654V25.234H51.0229V22.034ZM32.5654 22.034C31.3354 22.034 30.3406 23.0312 30.3406 24.2591H33.5406C33.5406 24.7964 33.1047 25.234 32.5654 25.234V22.034ZM30.3406 24.2591C30.3406 25.4873 31.3359 26.4839 32.5654 26.4839V23.2839C33.1042 23.2839 33.5406 23.721 33.5406 24.2591H30.3406ZM32.5654 26.4839H50.398V23.2839H32.5654V26.4839ZM48.798 24.8839V27.869H51.998V24.8839H48.798ZM50.398 26.269H43.4179V29.469H50.398V26.269ZM43.4179 26.269C41.4067 26.269 39.5642 27.2957 38.5066 29.0072L41.2288 30.6893C41.7031 29.9218 42.5153 29.469 43.4179 29.469V26.269Z" fill="black" mask="url(#path-2-inside-1)"/>
<path d="M29.2183 37.8037C27.6054 37.8037 26.293 39.1161 26.293 40.7293V43.1317C26.293 44.7449 27.6054 46.0573 29.2183 46.0573H39.9272C41.5405 46.0573 42.8529 44.7449 42.8529 43.1317V40.7293C42.8529 39.1161 41.5405 37.8037 39.9272 37.8037H29.2183ZM41.6029 40.7293V43.1317C41.6029 44.0558 40.8513 44.8074 39.9272 44.8074H29.2183C28.2945 44.8074 27.5426 44.0558 27.5426 43.1317V40.7293C27.5426 39.8052 28.2945 39.0536 29.2183 39.0536H39.9272C40.8513 39.0536 41.6029 39.8052 41.6029 40.7293Z" fill="#222222"/>
<path d="M38.7254 42.541H30.4188C30.0737 42.541 29.7939 42.8208 29.7939 43.1661C29.7939 43.5111 30.0737 43.7909 30.4188 43.7909H38.7254C39.0707 43.7909 39.3502 43.5111 39.3502 43.1661C39.3502 42.8208 39.0707 42.541 38.7254 42.541Z" fill="#BC955C"/>
<path d="M38.7254 40.0713H30.4188C30.0737 40.0713 29.7939 40.3511 29.7939 40.6964C29.7939 41.0414 30.0737 41.3212 30.4188 41.3212H38.7254C39.0707 41.3212 39.3502 41.0414 39.3502 40.6964C39.3502 40.3511 39.0707 40.0713 38.7254 40.0713Z" fill="#BC955C"/>
</g>
<defs>
<clipPath id="clip0">
<rect width="40" height="40" fill="white" transform="translate(20 20)"/>
</clipPath>
</defs>
</svg>
