<svg width="80" height="80" viewBox="0 0 80 80" fill="none" xmlns="http://www.w3.org/2000/svg">
<circle cx="40" cy="40" r="39" fill="#FAFAFA" stroke="#235B4E" stroke-width="2"/>
<g clip-path="url(#clip0)">
<path d="M44.6136 48.2568H42.4209C42.0973 48.2568 41.835 48.5192 41.835 48.8428C41.835 49.1664 42.0973 49.4287 42.4209 49.4287H44.6136C44.9372 49.4287 45.1996 49.1664 45.1996 48.8428C45.1996 48.5192 44.9372 48.2568 44.6136 48.2568Z" fill="#BC955C"/>
<path d="M57.5191 41.9837L54.3284 40.753L52.7016 39.1262C52.5971 39.0218 52.4625 38.9652 52.325 38.9564V37.6619C53.0918 36.8444 53.6375 35.8092 53.8578 34.6429C53.9945 34.6491 54.1325 34.6381 54.2687 34.6103C55.0483 34.4506 55.6142 33.7273 55.6142 32.8904V32.4631C55.6142 31.979 55.4179 31.5346 55.0982 31.2169C55.6156 28.4028 55.1894 26.1095 53.8602 24.5746C52.5745 23.09 50.5031 22.3804 47.8702 22.5228C45.4377 22.6543 43.8673 23.7735 43.3698 24.1829C43.0975 24.2153 42.6336 24.3109 42.1641 24.5926C41.5133 24.9831 40.7376 25.8033 40.7376 27.4934C40.7376 28.9678 40.9732 30.1988 41.1438 30.8971C40.5719 31.1757 40.1894 31.7795 40.1894 32.4697V32.8903C40.1894 33.7272 40.7552 34.4506 41.5348 34.6102C41.671 34.6381 41.8091 34.649 41.9458 34.6428C42.166 35.8091 42.7119 36.8443 43.4785 37.6618V38.9563C43.341 38.9651 43.2063 39.0217 43.1019 39.1261L41.4751 40.7529L38.2844 41.9836C38.0084 42.09 37.7447 42.2281 37.5008 42.3938C37.2332 42.5757 37.1636 42.94 37.3454 43.2077C37.4588 43.3746 37.6431 43.4644 37.8306 43.4644C37.944 43.4644 38.0585 43.4315 38.1594 43.3631C38.3294 43.2475 38.5134 43.1513 38.7061 43.0769L41.6673 41.9347L43.9314 45.3309C44.212 45.7519 44.6619 46.022 45.1654 46.0719C45.2214 46.0774 45.2774 46.0801 45.333 46.0801C45.6245 46.0801 45.9073 46.0035 46.1577 45.8619L45.6718 56.8828C45.6575 57.2061 45.9081 57.4798 46.2314 57.494C46.2402 57.4944 46.2489 57.4946 46.2577 57.4946C46.5694 57.4946 46.8288 57.2489 46.8426 56.9344L47.2935 46.7046H48.5099L48.9609 56.9344C48.9747 57.2489 49.2341 57.4946 49.5458 57.4946C49.5546 57.4946 49.5633 57.4944 49.5721 57.494C49.8953 57.4798 50.1459 57.2061 50.1317 56.8828L49.6458 45.8619C49.8961 46.0035 50.1788 46.0801 50.4704 46.0801C50.526 46.0801 50.5821 46.0774 50.6381 46.0719C51.1416 46.022 51.5914 45.7519 51.8721 45.3309L54.1361 41.9347L57.0973 43.0769C57.5126 43.2371 57.8701 43.4926 58.1512 43.8115L56.1254 45.8373C55.3934 46.5693 54.9904 47.5424 54.9904 48.5774V56.9087C54.9904 57.2323 55.2527 57.4946 55.5763 57.4946C55.8999 57.4946 56.1622 57.2323 56.1622 56.9087V48.5774C56.1622 47.8555 56.4434 47.1766 56.954 46.666L58.7319 44.888C58.8033 45.15 58.8367 45.4254 58.8254 45.7069L58.3716 56.8849C58.3585 57.2083 58.61 57.481 58.9333 57.4942C58.9414 57.4946 58.9494 57.4947 58.9575 57.4947C59.2701 57.4947 59.5297 57.2478 59.5425 56.9326L59.9965 45.7543C60.0629 44.0961 59.0674 42.5809 57.5191 41.9837ZM43.0928 34.4013C42.9894 33.8387 42.4685 33.4298 41.9062 33.4714C41.8618 33.4746 41.816 33.4715 41.7699 33.4621C41.5369 33.4145 41.3612 33.1686 41.3612 32.8904V32.4696C41.3612 32.1978 41.5429 31.953 41.7747 31.9123C41.9703 31.8779 42.1576 31.9497 42.2762 32.1043C42.3837 32.2445 42.5273 32.3449 42.6911 32.3942C42.9311 32.4667 43.1957 32.4242 43.3991 32.2806C43.7655 32.0219 44.0888 31.7059 44.36 31.3412C44.5531 31.0815 44.4991 30.7145 44.2395 30.5214C43.9797 30.3283 43.6127 30.3823 43.4196 30.642C43.2844 30.8238 43.1316 30.9889 42.9634 31.135C42.7776 30.9761 42.5605 30.8613 42.328 30.7957C42.1774 30.219 41.9094 28.9834 41.9094 27.4933C41.9094 26.5958 42.1861 25.9653 42.7316 25.6192C43.1573 25.3491 43.6079 25.3383 43.6076 25.3383C43.7573 25.3383 43.9031 25.2793 44.0119 25.1764C44.0262 25.1629 45.4666 23.8262 47.9333 23.6929C50.1913 23.571 51.9344 24.141 52.9742 25.3416C54.0221 26.5518 54.3711 28.4097 53.9925 30.7351C53.8356 30.7295 53.6638 30.7414 53.4928 30.7699L52.9423 29.4479C52.83 29.1782 52.5357 29.0326 52.2531 29.1062C52.1986 29.1205 46.7876 30.4922 44.5187 27.6675C44.3162 27.4152 43.9474 27.3749 43.695 27.5776C43.4427 27.7802 43.4024 28.149 43.6052 28.4013C45.922 31.2859 50.5192 30.6584 52.0496 30.3523L52.4753 31.3746C52.6583 31.8141 53.1266 32.0541 53.5882 31.9452C53.7776 31.9006 53.9586 31.8996 54.0266 31.9131C54.2636 31.9602 54.4422 32.1966 54.4422 32.463V32.8903C54.4422 33.1686 54.2665 33.4144 54.0336 33.462C53.9875 33.4715 53.9415 33.4746 53.8972 33.4713C53.335 33.4304 52.8141 33.8385 52.7107 34.4013C52.2844 36.7219 50.262 38.4063 47.9017 38.4063C45.5415 38.4063 43.5191 36.7219 43.0928 34.4013ZM45.6921 44.7588C45.5435 44.9074 45.3708 44.9147 45.2809 44.9058C45.1912 44.8969 45.0231 44.8558 44.9066 44.681L42.6257 41.2597L43.543 40.3425L47.0445 43.4064L45.6921 44.7588ZM47.3452 45.5328L47.3806 44.7275L47.9017 44.2065L48.4227 44.7275L48.4581 45.5328H47.3452ZM47.9017 42.5992L44.6504 39.7543V38.6328C45.5957 39.234 46.7141 39.5782 47.9017 39.5782C49.0893 39.5782 50.2078 39.234 51.1532 38.6328V39.7543L47.9017 42.5992ZM50.8971 44.681C50.7804 44.8559 50.6124 44.8969 50.5227 44.9058C50.4328 44.9147 50.26 44.9074 50.1114 44.7587L48.759 43.4063L52.2606 40.3424L53.1778 41.2597L50.8971 44.681Z" fill="black"/>
<path d="M38.5817 45.0547L35.7206 43.8058L34.1566 42.2418C34.0518 42.137 33.9171 42.0807 33.78 42.072V41.1502C35.1167 40.2718 36.0948 38.8749 36.4091 37.2103C36.563 37.2171 36.7184 37.2024 36.8715 37.1662C37.6213 36.9888 38.1654 36.2702 38.1654 35.4577V35.0306C38.1654 34.437 37.8709 33.903 37.4146 33.5897C37.5488 33.058 37.6172 32.514 37.6172 31.9664C37.6172 29.5389 36.305 27.4008 34.3271 26.1731C34.306 24.1471 32.5767 22.5049 30.4531 22.5049C28.3294 22.5049 26.6001 24.1471 26.579 26.1731C24.6012 27.4008 23.289 29.539 23.289 31.9664C23.289 32.5123 23.3569 33.0548 23.4904 33.585C23.0343 33.8967 22.7408 34.4332 22.7408 35.037V35.4577C22.7408 36.2702 23.2849 36.9888 24.0347 37.1662C24.1878 37.2024 24.3431 37.2171 24.4971 37.2103C24.8114 38.8749 25.7896 40.2718 27.1263 41.1502V42.072C26.9891 42.0807 26.8545 42.137 26.7497 42.2418L25.1857 43.8058L22.3247 45.0547C20.869 45.6901 19.9361 47.1833 20.0034 48.7702L20.3494 56.9338C20.3628 57.2486 20.6222 57.4949 20.9344 57.4949C20.9428 57.4949 20.9512 57.4948 20.9597 57.4944C21.283 57.4807 21.534 57.2075 21.5203 56.8842L21.1742 48.7205C21.1519 48.1945 21.2887 47.6841 21.5457 47.2448L23.0836 49.0903C23.5696 49.6735 23.8372 50.4127 23.8372 51.1718V56.909C23.8372 57.2326 24.0995 57.4949 24.4231 57.4949C24.7467 57.4949 25.0091 57.2326 25.0091 56.909V51.1718C25.0091 50.1391 24.6449 49.1335 23.9838 48.3401L22.3489 46.3782C22.4879 46.2824 22.6356 46.1976 22.7935 46.1286L25.2869 45.0402L27.049 47.9003C27.223 48.1827 27.5106 48.3742 27.8383 48.4258C27.8972 48.4351 27.9563 48.4396 28.0151 48.4396C28.283 48.4396 28.5439 48.3447 28.7508 48.1681L29.8674 47.2154V56.9089C29.8674 57.2325 30.1297 57.4949 30.4533 57.4949C30.7769 57.4949 31.0392 57.2325 31.0392 56.9089V47.2155L32.1557 48.1683C32.3626 48.3448 32.6235 48.4398 32.8914 48.4398C32.9502 48.4398 33.0093 48.4351 33.0682 48.4259C33.3959 48.3744 33.6835 48.1829 33.8575 47.9005L35.6196 45.0403L38.113 46.1287C38.2708 46.1976 38.4186 46.2825 38.5576 46.3783L36.9227 48.3402C36.2616 49.1335 35.8975 50.1392 35.8975 51.1719V56.9091C35.8975 57.2327 36.1598 57.495 36.4834 57.495C36.807 57.495 37.0693 57.2327 37.0693 56.9091V51.1719C37.0693 50.4128 37.337 49.6736 37.8229 49.0904L39.3608 47.2449C39.6179 47.6842 39.7546 48.1946 39.7323 48.7206L39.3863 56.8842C39.3726 57.2075 39.6236 57.4807 39.9469 57.4945C39.9554 57.4949 39.9637 57.495 39.9722 57.495C40.2843 57.495 40.5438 57.2488 40.5572 56.9338L40.9032 48.7703C40.9704 47.1833 40.0375 45.6901 38.5817 45.0547ZM30.4532 23.6768C31.6998 23.6768 32.7515 24.472 33.0625 25.5495C32.2536 25.2442 31.3735 25.0763 30.4532 25.0763C29.533 25.0763 28.6528 25.2442 27.8439 25.5495C28.1549 24.472 29.2066 23.6768 30.4532 23.6768ZM25.6442 36.9688C25.5409 36.406 25.0191 35.9973 24.4577 36.0388C24.408 36.0424 24.3566 36.0381 24.3047 36.0258C24.0812 35.9729 23.9127 35.7287 23.9127 35.4577V35.037C23.9127 34.7652 24.0944 34.5203 24.3262 34.4796C24.5218 34.4452 24.7091 34.5171 24.8275 34.6716C24.9351 34.8119 25.0786 34.9122 25.2426 34.9617C25.4825 35.0342 25.7473 34.9917 25.9505 34.848C26.3114 34.5933 26.6305 34.2828 26.8989 33.9253C27.0932 33.6666 27.0409 33.2992 26.7822 33.105C26.5234 32.9107 26.1561 32.963 25.9618 33.2217C25.8289 33.3987 25.6793 33.5595 25.5148 33.7024C25.2641 33.4881 24.9566 33.3538 24.6305 33.3131C24.5183 32.8718 24.4609 32.4205 24.4609 31.9665C24.4609 28.8135 27.149 26.2483 30.4532 26.2483C33.7574 26.2483 36.4455 28.8134 36.4455 31.9665C36.4455 32.4196 36.3884 32.87 36.2765 33.3105C36.1223 33.3228 35.9656 33.3481 35.8205 33.3857L35.38 33.0235C35.1587 32.8415 34.8801 32.7504 34.5982 32.7672C33.7369 32.818 29.3261 32.9345 27.0631 30.2262C26.8556 29.978 26.4862 29.9448 26.2378 30.1523C25.9895 30.3598 25.9564 30.7294 26.1639 30.9777C27.28 32.3134 28.917 33.2166 31.0292 33.6622C32.6465 34.0034 34.0842 33.9702 34.6475 33.9381L35.3346 34.5032C35.5238 34.6588 35.789 34.6807 36.0008 34.5574C36.1002 34.5033 36.433 34.4516 36.5782 34.4806C36.8152 34.5277 36.9938 34.7641 36.9938 35.0306V35.4577C36.9938 35.7288 36.8253 35.973 36.6018 36.0258C36.55 36.0381 36.4986 36.0425 36.4488 36.0388C35.8877 35.998 35.3656 36.406 35.2622 36.9687C34.836 39.2894 32.8135 40.9738 30.4533 40.9738C28.093 40.9738 26.0705 39.2894 25.6442 36.9688ZM28.0236 47.2482L26.2612 44.3875L27.1641 43.4847L29.5905 45.9111L28.0236 47.2482ZM30.4532 45.1165L28.2982 42.9615V41.7493C28.9709 42.0054 29.6979 42.1457 30.4532 42.1457C31.2085 42.1457 31.9355 42.0054 32.6082 41.7494V42.9615L30.4532 45.1165ZM32.8828 47.2482L31.316 45.9111L33.7424 43.4847L34.6452 44.3875L32.8828 47.2482Z" fill="black"/>
<path d="M28.2608 50.8413H26.6162C26.2926 50.8413 26.0303 51.1037 26.0303 51.4272C26.0303 51.7508 26.2926 52.0132 26.6162 52.0132H28.2608C28.5843 52.0132 28.8467 51.7508 28.8467 51.4272C28.8467 51.1037 28.5843 50.8413 28.2608 50.8413Z" fill="#BC955C"/>
</g>
<defs>
<clipPath id="clip0">
<rect width="40" height="40" fill="white" transform="translate(20 20)"/>
</clipPath>
</defs>
</svg>
