<svg width="80" height="80" viewBox="0 0 80 80" fill="none" xmlns="http://www.w3.org/2000/svg">
<circle cx="40" cy="40" r="39" fill="#FAFAFA" stroke="#235B4E" stroke-width="2"/>
<path d="M22.849 29.1353C21.9049 29.1353 21.0256 29.7863 21.0256 30.7298V51.2295C21.0256 52.1729 21.9049 52.71 22.849 52.71H57.6068C58.5509 52.71 58.9744 52.1729 58.9744 51.2295V30.7298C58.9744 29.7863 58.5509 29.1353 57.6068 29.1353H50.5712C50.3433 28.6798 50.4763 28.3002 50.5712 28.1104H57.6068C59.1803 28.1104 60 29.1573 60 30.7298V51.1725C60 52.745 59.1803 53.735 57.6068 53.735H22.849C21.2755 53.735 20 52.8019 20 51.2295V30.7298C20 29.1573 21.2755 28.1104 22.849 28.1104H30.3989C30.7407 28.5659 30.5413 28.9455 30.3989 29.1353H22.849Z" fill="#222222"/>
<path d="M24.103 31.1851C23.2558 31.1851 23.0774 31.4176 23.0774 32.2101V49.5802C23.0774 50.3727 23.7613 50.6599 24.6086 50.6599H55.8015C56.6487 50.6599 56.9235 50.3249 56.9235 49.5324V32.3605C56.9235 31.5679 56.6487 31.1851 55.8015 31.1851H50.2883C50.0837 30.8025 50.2031 30.3196 50.2883 30.1602H55.8015C57.2136 30.1602 57.9492 31.0396 57.9492 32.3605V49.5324C57.9492 50.8532 57.2136 51.6848 55.8015 51.6848H24.6086C23.1965 51.6848 22.0518 50.9011 22.0518 49.5802V32.2101C22.0518 30.8893 22.691 30.1602 24.103 30.1602H30.4091C30.7159 30.5428 30.537 31.0257 30.4091 31.1851H24.103Z" fill="#222222"/>
<rect x="35.8848" y="53.21" width="9.25641" height="4.12493" stroke="#222222"/>
<path d="M32.2305 57.4248H48.7946C50.0304 57.4248 51.0568 58.3215 51.2586 59.4998H29.7665C29.9683 58.3215 30.9946 57.4248 32.2305 57.4248Z" stroke="#222222"/>
<path d="M33.333 28.6226H36.9228" stroke="#222222" stroke-miterlimit="10" stroke-linecap="round" stroke-linejoin="round"/>
<rect x="38.9746" y="28.1099" width="2.05128" height="1.02564" rx="0.512821" fill="#222222"/>
<rect x="42.0508" y="28.1099" width="1.02499" height="1.02499" rx="0.512493" fill="#222222"/>
<path d="M33.333 31.6978H36.9226" stroke="#222222" stroke-miterlimit="10" stroke-linecap="round" stroke-linejoin="round"/>
<rect x="42.0508" y="31.1855" width="1.02499" height="1.02499" rx="0.512493" fill="#222222"/>
<rect x="38.9746" y="31.1855" width="2.05128" height="1.02564" rx="0.512821" fill="#222222"/>
<path d="M33.334 25.5479H42.5648" stroke="#222222" stroke-miterlimit="10" stroke-linecap="round" stroke-linejoin="round"/>
<path d="M33.334 42.3081H42.5648" stroke="#222222" stroke-miterlimit="10" stroke-linecap="round" stroke-linejoin="round"/>
<path d="M40.5738 39.9153L40.5742 39.915L40.5692 39.9099C40.5155 39.8562 40.4553 39.8229 40.3891 39.8229C40.324 39.8229 40.2647 39.8552 40.2117 39.9073L40.0215 40.05L40.0212 40.0496L40.0161 40.0546C39.9627 40.1081 39.9204 40.1769 39.906 40.249C39.8912 40.3229 39.906 40.401 39.9679 40.463C40.0214 40.5164 40.0901 40.5587 40.1623 40.5731C40.2337 40.5874 40.3092 40.5741 40.3701 40.5171L40.4342 40.4851C40.5789 40.5763 40.7275 40.6223 40.9197 40.6223C41.2188 40.6223 41.5238 40.5227 41.7288 40.2681C42.0802 39.915 42.1782 39.3642 41.9794 38.8663C41.7813 38.3225 41.286 37.8727 40.7332 37.8215C40.1312 37.7221 39.5326 38.0729 39.2828 38.6214C39.2319 38.7235 39.2068 38.8248 39.1885 38.9165C39.1835 38.9415 39.1791 38.9653 39.1748 38.9882C39.163 39.0517 39.1526 39.1074 39.1358 39.1577L39.1333 39.1654V39.1735C39.1333 39.2586 39.0889 39.3951 39.0421 39.4888L39.041 39.4882L39.0383 39.499C39.0168 39.5851 38.9619 39.6739 38.8947 39.7411C38.8259 39.8099 38.7536 39.847 38.7009 39.847C38.6206 39.847 38.5431 39.8071 38.5045 39.73L38.4996 39.7201L38.491 39.7133C38.2621 39.5302 38.033 39.3029 37.8463 39.074C37.9315 38.9429 37.9782 38.8466 38.0243 38.7086C38.3657 37.8781 38.365 36.9048 38.3168 36.085C38.3166 35.79 38.2551 35.5507 38.1396 35.3774C38.0231 35.2026 37.8535 35.0982 37.6464 35.0722C37.2765 35.0196 36.9216 35.2853 36.7723 35.7813C36.3857 36.8459 36.5256 38.1 37.0965 39.0723C36.479 39.8112 35.4515 40.1789 34.5172 39.9933C34.4367 39.9671 34.3531 39.9664 34.2809 39.9953C34.2068 40.025 34.1481 40.0845 34.1194 40.1706C34.0904 40.2577 34.1044 40.3352 34.151 40.3973C34.1956 40.4568 34.2664 40.4974 34.344 40.5233L34.3439 40.5236L34.3492 40.5247C35.4592 40.766 36.6137 40.3427 37.3955 39.5385C37.5843 39.7675 37.8133 39.9938 38.0426 40.1772L38.0425 40.1774L38.0461 40.1798L38.0485 40.1814C38.1919 40.277 38.3427 40.3775 38.5441 40.4279L38.544 40.4283L38.5507 40.4291C38.785 40.4551 38.9914 40.3635 39.15 40.224C39.3078 40.0851 39.4213 39.8964 39.4722 39.7189C39.4971 39.644 39.5096 39.5815 39.5216 39.5217L39.5217 39.521C39.5338 39.4607 39.5453 39.4031 39.5683 39.334C39.5937 39.2579 39.6063 39.1823 39.6182 39.111L39.6185 39.1094C39.6305 39.0372 39.6419 38.9693 39.6642 38.9019C39.7994 38.589 40.161 38.4055 40.5276 38.4514C40.8935 38.4971 41.214 38.772 41.3053 39.1374L41.3053 39.1374L41.3058 39.139C41.3988 39.4646 41.3498 39.7785 41.1774 39.9545C41.1144 39.9946 40.9948 40.0279 40.8715 40.0279C40.7447 40.0279 40.6321 39.9929 40.5738 39.9153ZM37.4008 38.4786C37.056 37.69 36.9792 36.7791 37.2531 35.9576L37.2532 35.9576L37.2541 35.9539C37.2765 35.8643 37.3217 35.7738 37.3723 35.7065C37.3975 35.6728 37.423 35.6464 37.4461 35.6289C37.4702 35.6107 37.4867 35.6059 37.495 35.6059C37.512 35.6059 37.529 35.6136 37.5473 35.6362C37.5663 35.6599 37.5836 35.6966 37.5978 35.7449C37.6261 35.8409 37.638 35.9682 37.638 36.0865H37.6379L37.6381 36.0896C37.6862 36.8596 37.6855 37.7179 37.4008 38.4786Z" fill="#BC955C" stroke="#BC955C" stroke-width="0.1"/>
<path d="M50.1282 24.5246V30.6853H46V24.5246C46 23.3846 46.9241 22.4604 48.0641 22.4604C49.2041 22.4604 50.1282 23.3846 50.1282 24.5246Z" stroke="#222222"/>
<path d="M48.1897 22.4229H34.6543C32.9974 22.4229 31.6543 23.766 31.6543 25.4228V33.2352V45.0225H45.9684V30.2852" stroke="#222222"/>
</svg>
