<svg width="80" height="80" viewBox="0 0 80 80" fill="none" xmlns="http://www.w3.org/2000/svg">
<circle cx="40" cy="40" r="39" fill="#FAFAFA" stroke="#235B4E" stroke-width="2"/>
<g clip-path="url(#clip0)">
<path d="M25.7657 42.9819C26.1055 42.9819 26.3809 42.7064 26.3809 42.3666V26.7471C26.3809 26.6296 26.4764 26.534 26.5939 26.5338H26.5941H56.4255H56.4259C56.5434 26.5339 56.639 26.6295 56.639 26.7471V34.1635C56.639 34.5033 56.9145 34.7788 57.2542 34.7788C57.594 34.7788 57.8695 34.5033 57.8695 34.1635V26.7471C57.8695 26.1711 57.5296 25.6743 57.0406 25.4428V24.0956C57.0406 23.5196 56.7008 23.0229 56.2119 22.7913V21.4439C56.212 20.6477 55.5643 20 54.7681 20H28.2513C27.4551 20 26.8074 20.6477 26.8074 21.4439V22.7913C26.3185 23.0229 25.9787 23.5196 25.9787 24.0956V25.443C25.49 25.6746 25.1504 26.1713 25.1504 26.7471V42.3666C25.1505 42.7064 25.4259 42.9819 25.7657 42.9819ZM27.2093 24.0956C27.2093 23.9779 27.305 23.8821 27.4227 23.8821H55.5969C55.7146 23.8821 55.8103 23.9779 55.8103 24.0956V25.3033H27.2093V24.0956ZM28.038 21.4439C28.038 21.3262 28.1337 21.2305 28.2514 21.2305H54.7682C54.8859 21.2305 54.9816 21.3262 54.9816 21.4439V22.6517H28.038V21.4439Z" fill="black"/>
<path d="M48.8893 40.7125C47.3957 39.2189 45.4101 38.3965 43.2979 38.3965C41.1858 38.3965 39.2001 39.219 37.7066 40.7125C36.2132 42.2059 35.3906 44.1917 35.3906 46.3038C35.3906 48.4159 36.2132 50.4017 37.7066 51.8951C39.2001 53.3886 41.1858 54.2111 43.2979 54.2111C45.4101 54.2111 47.3958 53.3886 48.8893 51.8951C50.3827 50.4017 51.2053 48.4159 51.2053 46.3038C51.2053 44.1917 50.3827 42.2059 48.8893 40.7125ZM48.0192 51.0251C46.758 52.2862 45.0814 52.9807 43.2979 52.9807C41.5143 52.9807 39.8377 52.2862 38.5766 51.0251C37.3155 49.764 36.6209 48.0873 36.6209 46.3038C36.6209 44.5203 37.3155 42.8436 38.5766 41.5825C39.8377 40.3214 41.5143 39.6269 43.2979 39.6269C45.0814 39.6269 46.758 40.3214 48.0192 41.5825C49.2802 42.8436 49.9748 44.5203 49.9748 46.3038C49.9748 48.0873 49.2802 49.764 48.0192 51.0251Z" fill="#BC955C"/>
<path d="M62.3291 60.9498L59.5261 58.1468V50.6124C59.5261 50.2727 59.2506 49.9972 58.9108 49.9972H57.869V37.0346C57.869 36.6949 57.5936 36.4194 57.2538 36.4194C56.914 36.4194 56.6386 36.6949 56.6386 37.0346V49.9972H53.1882C54.5836 46.2433 53.7757 41.8493 50.7636 38.8372C47.1119 35.1855 41.4292 34.7734 37.3184 37.5997V28.5703C37.3184 28.2305 37.043 27.9551 36.7032 27.9551H28.4167C28.0769 27.9551 27.8015 28.2305 27.8015 28.5703V38.8455C27.8015 39.1853 28.0769 39.4608 28.4167 39.4608H35.2556C32.7207 42.4354 32.1044 46.4948 33.4063 49.9972H26.3805V45.2377C26.3805 44.898 26.1051 44.6225 25.7653 44.6225C25.4255 44.6225 25.1501 44.898 25.1501 45.2377V49.9972H24.1074C23.9434 49.9972 23.7861 50.0627 23.6705 50.1792C23.555 50.2957 23.4908 50.4536 23.4922 50.6177L23.5841 61.39C23.587 61.7278 23.8615 62 24.1993 62H27.8546C28.1944 62 28.4699 61.7246 28.4699 61.3848C28.4699 61.045 28.1944 60.7695 27.8546 60.7695H24.8094L24.728 51.2277H33.9557C34.4373 52.1426 35.0623 53.0013 35.8309 53.7699C37.8893 55.8284 40.5933 56.8576 43.2973 56.8576C44.9992 56.8576 46.701 56.4495 48.2419 55.634L50.0107 57.4027C50.126 57.5182 50.2825 57.583 50.4457 57.583C50.6089 57.583 50.7654 57.5182 50.8807 57.4027L51.1488 57.1346L52.3881 58.3739L52.12 58.642C51.8798 58.8823 51.8798 59.2718 52.12 59.512L53.3775 60.7695H30.7257C30.386 60.7695 30.1105 61.045 30.1105 61.3848C30.1105 61.7246 30.386 62 30.7257 62H54.8626C54.8631 62 54.8634 61.9999 54.864 61.9999C55.021 61.9996 55.178 61.9396 55.2978 61.8198C55.538 61.5795 55.538 61.19 55.2978 60.9498L53.4252 59.0772L56.0708 56.4316L61.4591 61.8199C61.5792 61.94 61.7367 62.0001 61.8941 62.0001C62.0515 62.0001 62.209 61.94 62.3291 61.8199C62.5694 61.5796 62.5694 61.19 62.3291 60.9498ZM29.0319 29.1855H36.0879V38.2303H29.0319V29.1855ZM36.7009 52.8999C33.0637 49.2627 33.0637 43.3445 36.7009 39.7073C38.5195 37.8887 40.9083 36.9794 43.2972 36.9794C45.686 36.9794 48.0748 37.8887 49.8935 39.7073C53.5307 43.3445 53.5307 49.2627 49.8935 52.8999C46.2562 56.537 40.3381 56.537 36.7009 52.8999ZM49.3234 54.9753C49.83 54.623 50.3123 54.2212 50.7636 53.7699C51.2148 53.3186 51.6166 52.8363 51.969 52.3298L53.0914 53.452L50.4458 56.0976L49.3234 54.9753ZM52.0189 56.2646L53.2582 55.0253L54.4976 56.2646L53.2582 57.504L52.0189 56.2646ZM55.6357 55.1264L55.3677 55.3945L54.1283 54.1552L54.3964 53.887C54.5118 53.7717 54.5766 53.6152 54.5766 53.452C54.5766 53.2889 54.5118 53.1324 54.3964 53.017L52.6277 51.2483C52.6313 51.2414 52.6351 51.2346 52.6388 51.2277H58.2957V56.9163L56.5058 55.1264C56.2656 54.8862 55.876 54.8862 55.6357 55.1264Z" fill="black"/>
<path d="M54.601 27.9551H39.5195C39.1798 27.9551 38.9043 28.2305 38.9043 28.5703C38.9043 28.9101 39.1798 29.1855 39.5195 29.1855H54.601C54.9408 29.1855 55.2162 28.9101 55.2162 28.5703C55.2162 28.2305 54.9408 27.9551 54.601 27.9551Z" fill="#222222"/>
<path d="M55.2162 31.2217C55.2162 30.8819 54.9408 30.6064 54.601 30.6064H39.5195C39.1798 30.6064 38.9043 30.8819 38.9043 31.2217C38.9043 31.5615 39.1798 31.8369 39.5195 31.8369H54.601C54.9408 31.8369 55.2162 31.5615 55.2162 31.2217Z" fill="#222222"/>
<path d="M39.5195 33.2578C39.1798 33.2578 38.9043 33.5333 38.9043 33.873C38.9043 34.2128 39.1798 34.4883 39.5195 34.4883H49.6291C49.9688 34.4883 50.2443 34.2128 50.2443 33.873C50.2443 33.5333 49.9688 33.2578 49.6291 33.2578H39.5195Z" fill="#222222"/>
</g>
<defs>
<clipPath id="clip0">
<rect width="40" height="40" fill="white" transform="translate(20 20)"/>
</clipPath>
</defs>
</svg>
