<svg width="80" height="80" viewBox="0 0 80 80" fill="none" xmlns="http://www.w3.org/2000/svg">
<circle cx="40" cy="40" r="39" fill="#FAFAFA" stroke="#235B4E" stroke-width="2"/>
<path d="M60.7742 34.8387C60.0871 34.8387 59.4149 35.0665 58.856 35.4839H56.2581V20H29.1613C26.3154 20 24 22.3154 24 25.1613V55.4839C24 57.9741 26.0259 60 28.5161 60H56.2581V58.7097C54.4795 58.7097 53.0323 57.2625 53.0323 55.4839C53.0323 53.7053 54.4795 52.2581 56.2581 52.2581V40.6452H58.856C59.4149 41.0626 60.0871 41.2903 60.7742 41.2903C62.5528 41.2903 64 39.8431 64 38.0645C64 36.2859 62.5528 34.8387 60.7742 34.8387ZM52.1839 53.5484H30.4516V54.8387H51.7936C51.7634 55.0504 51.7419 55.2646 51.7419 55.4839C51.7419 55.7031 51.7634 55.9173 51.7936 56.129H48.5161V57.4194H52.1839C52.4142 57.902 52.7226 58.3398 53.1006 58.7097H28.5161C27.4665 58.7097 26.5413 58.1981 25.9522 57.4194H47.2258V56.129H25.3555C25.313 55.9205 25.2903 55.7044 25.2903 55.4839C25.2903 55.2634 25.313 55.0473 25.3555 54.8387H29.1613V53.5484H25.9522C26.5413 52.7697 27.4665 52.2581 28.5161 52.2581H53.1C52.7226 52.6279 52.4142 53.0658 52.1839 53.5484V53.5484ZM54.9677 50.9677H29.1613V31.6129H27.871V51.0194C26.8664 51.164 25.9682 51.6362 25.2903 52.3296V25.1613C25.2903 23.4794 26.3696 22.0489 27.871 21.5162V30.3226H29.1613V21.2903H54.9677V35.4839H52.3871V23.871H31.7419V38.0645H36.2581V41.9355C35.5464 41.9355 34.9677 42.5142 34.9677 43.2258V44.5161C34.9677 45.2278 35.5464 45.8065 36.2581 45.8065H46.5806C47.2923 45.8065 47.871 45.2278 47.871 44.5161V43.2258C47.871 42.5142 47.2923 41.9355 46.5806 41.9355V40.6452H54.9677V50.9677ZM36.2581 32.9032V31.6129H46.5806L46.5813 32.9032H36.2581ZM46.5806 43.2258L46.5813 44.5161H36.2581V43.2258H46.5806ZM37.5484 41.9355V34.1935H45.2903V41.9355H37.5484ZM46.5806 34.1935C47.2923 34.1935 47.871 33.6149 47.871 32.9032V31.6129C47.871 30.9013 47.2923 30.3226 46.5806 30.3226H36.2581C35.5464 30.3226 34.9677 30.9013 34.9677 31.6129V32.9032C34.9677 33.6149 35.5464 34.1935 36.2581 34.1935V36.7742H33.0323V25.1613H51.0968V35.4839H46.5806V34.1935ZM60.7742 40C60.187 40 59.762 39.7354 59.5078 39.5142L59.3257 39.3548H46.5806V36.7742H59.3257L59.5078 36.6148C59.762 36.3936 60.187 36.129 60.7742 36.129C61.8412 36.129 62.7097 36.9975 62.7097 38.0645C62.7097 39.1315 61.8412 40 60.7742 40Z" fill="black"/>
<path d="M52.3867 47.0967H53.677V48.387H52.3867V47.0967Z" fill="#BC955C"/>
<path d="M49.8066 47.0967H51.097V48.387H49.8066V47.0967Z" fill="#BC955C"/>
<path d="M35.6133 47.0967H48.5165V48.387H35.6133V47.0967Z" fill="#BC955C"/>
<path d="M33.0322 47.0967H34.3225V48.387H33.0322V47.0967Z" fill="#BC955C"/>
<path d="M30.4521 47.0967H31.7425V48.387H30.4521V47.0967Z" fill="#BC955C"/>
</svg>
