<svg xmlns="http://www.w3.org/2000/svg" width="40" height="40" fill="none" viewBox="0 0 40 40">
    <path stroke="#006455" stroke-linecap="round" stroke-linejoin="round" stroke-width="2" d="M22 10h-8c-.53 0-1.04.21-1.414.586C12.21 10.96 12 11.47 12 12v16c0 .53.21 1.04.586 1.414.375.375.884.586 1.414.586h12c.53 0 1.04-.21 1.414-.586C27.79 29.04 28 28.53 28 28V16l-6-6z"/>
    <path stroke="#fff" stroke-linecap="round" stroke-linejoin="round" stroke-width="2" d="M21.833 9.917H10"/>
    <mask id="uj5bkcwq4a" width="9" height="12" x="7" y="4" fill="#000" maskUnits="userSpaceOnUse">
        <path fill="#fff" d="M7 4H16V16H7z"/>
        <path d="M12.917 12.833L10 9.917 12.917 7"/>
    </mask>
    <path fill="#fff" d="M11.149 14.601c.976.976 2.56.976 3.535 0 .977-.976.977-2.56 0-3.535L11.15 14.6zM10 9.917L8.232 8.149c-.976.976-.976 2.56 0 3.535L10 9.917zm4.684-1.15c.977-.976.977-2.558 0-3.535-.976-.976-2.559-.976-3.535 0l3.535 3.536zm0 2.299l-2.916-2.917-3.536 3.535 2.917 2.917 3.535-3.535zm-2.916.618l2.916-2.916-3.535-3.536L8.232 8.15l3.536 3.535z" mask="url(#uj5bkcwq4a)"/>
    <path stroke="#fff" stroke-linecap="round" stroke-linejoin="round" stroke-width="2" d="M18.003 29.916h11.833"/>
    <mask id="309igh120b" width="9" height="12" x="23.836" y="23.833" fill="#000" maskUnits="userSpaceOnUse">
        <path fill="#fff" d="M23.836 23.833H32.836V35.833H23.836z"/>
        <path d="M26.92 27l2.916 2.916-2.917 2.917"/>
    </mask>
    <path fill="#fff" d="M28.687 25.232c-.976-.976-2.56-.976-3.536 0s-.976 2.56 0 3.535l3.536-3.535zm1.149 4.684l1.768 1.768c.976-.976.976-2.56 0-3.535l-1.768 1.767zm-4.684 1.15c-.977.976-.977 2.558 0 3.535.976.976 2.559.976 3.535 0l-3.536-3.536zm0-2.299l2.916 2.917 3.536-3.535-2.917-2.917-3.536 3.535zm2.916-.618l-2.917 2.916 3.536 3.536 2.917-2.917-3.536-3.535z" mask="url(#309igh120b)"/>
    <path stroke="#006455" stroke-linecap="round" stroke-linejoin="round" stroke-width="2" d="M21.833 9.917H10M12.917 12.833L10 9.917 12.917 7M18.003 29.916h11.833M26.92 27l2.916 2.916-2.917 2.917M22 10v6h6M24 21h-8M24 25h-8M18 17h-2"/>
</svg>
