<svg xmlns="http://www.w3.org/2000/svg" width="40" height="40" fill="none" viewBox="0 0 40 40">
    <path stroke="#222" stroke-linecap="round" stroke-linejoin="round" stroke-width="2" d="M24.023 25.389l-3.666-3.667-3.667 3.667M22.352 28.582l-2-2-2 2"/>
    <path stroke="#222" stroke-linecap="round" stroke-linejoin="round" stroke-width="2" d="M28.493 24.582c.797-.56 1.395-1.36 1.706-2.283.312-.923.321-1.921.027-2.85s-.877-1.74-1.663-2.315-1.735-.885-2.71-.884h-1.155c-.275-1.075-.791-2.072-1.509-2.919-.717-.846-1.616-1.518-2.631-1.967-1.015-.448-2.118-.66-3.227-.62-1.108.04-2.193.33-3.173.85s-1.829 1.256-2.484 2.151c-.654.896-1.097 1.928-1.295 3.02-.197 1.091-.145 2.213.154 3.282.298 1.068.835 2.055 1.57 2.885"/>
</svg>
