<svg xmlns="http://www.w3.org/2000/svg" width="40" height="40" fill="none" viewBox="0 0 40 40">
    <path fill="#006455" stroke="#006455" d="M20.84 24.5h-6.546c-.004 0-.014 0-.031-.01-.019-.011-.048-.034-.08-.077-.065-.09-.117-.238-.117-.413s.052-.323.118-.413c.031-.043.06-.066.079-.076.018-.01.027-.011.03-.011h6.546c.004 0 .013 0 .031.01.019.011.047.034.079.077.066.09.117.238.117.413s-.051.323-.117.413c-.032.043-.06.066-.079.076-.018.01-.027.011-.03.011zM21.748 14.5h-7.363c-.049 0-.121-.023-.192-.11-.073-.09-.127-.229-.127-.39 0-.162.054-.3.127-.39.071-.087.143-.11.192-.11h7.363c.049 0 .12.023.192.11.073.09.126.229.126.39 0 .162-.053.3-.126.39-.071.087-.143.11-.192.11zM18.948 19.5h-4.763l-.02-.032c-.054-.099-.099-.267-.099-.468s.045-.37.1-.468c.006-.013.013-.023.019-.032h4.763l.02.032c.053.099.098.267.098.468s-.045.37-.098.468l-.02.032z"/>
    <path fill="#006455" stroke="#006455" stroke-linecap="round" stroke-linejoin="round" stroke-width="1.5" d="M30.362 14.949c.278-.156.606-.195.913-.109.307.086.567.291.723.569.156.278.195.606.108.913-.086.307-.29.567-.568.723L24.9 20.77l-2.335-.068 1.159-2.028 6.638-3.724z"/>
    <path fill="#006455" d="M25.847 13.726l-.78.625.78-.625zm-3.48-4.35l.78-.625-.78.624zm2.7 5.624c0 .552.447 1 1 1 .552 0 1-.448 1-1h-2zm2 8c0-.552-.448-1-1-1-.553 0-1 .448-1 1h2zm-16.5-13v18h2V10h-2zm2 20h12.5v-2h-12.5v2zm14.061-16.899l-3.48-4.35L21.585 10l3.48 4.35 1.562-1.249zM21.586 8h-9.02v2h9.02V8zm5.48 7v-.65h-2V15h2zm0 13v-.875h-2V28h2zm0-.875V23h-2v4.125h2zM23.148 8.751c-.38-.475-.955-.751-1.562-.751v2l1.562-1.25zm1.918 5.6h2c0-.454-.154-.895-.438-1.25l-1.562 1.25zm0 15.649c1.105 0 2-.895 2-2h-2v2zm-14.5-2c0 1.105.896 2 2 2v-2h-2zm2-18V8c-1.104 0-2 .895-2 2h2z"/>
</svg>
