<svg xmlns="http://www.w3.org/2000/svg" width="40" height="40" fill="none" viewBox="0 0 40 40">
    <path fill="#000" d="M14.294 25h6.545c.193 0 .378-.105.514-.293.137-.187.213-.442.213-.707 0-.265-.076-.52-.213-.707-.136-.188-.321-.293-.514-.293h-6.545c-.193 0-.378.105-.515.293-.136.187-.213.442-.213.707 0 .265.077.52.213.707.137.188.322.293.515.293zM14.385 15h7.363c.217 0 .425-.105.579-.293.153-.187.24-.442.24-.707 0-.265-.087-.52-.24-.707-.154-.188-.362-.293-.579-.293h-7.363c-.217 0-.425.105-.579.293-.153.187-.24.442-.24.707 0 .265.087.52.24.707.154.188.362.293.579.293zM14.112 20h4.909c.145 0 .283-.105.386-.293.102-.187.16-.442.16-.707 0-.265-.058-.52-.16-.707-.103-.188-.241-.293-.386-.293h-4.91c-.144 0-.283.105-.385.293-.102.187-.16.442-.16.707 0 .265.058.52.16.707.102.188.241.293.386.293z"/>
    <path stroke="#000" stroke-linecap="round" stroke-linejoin="round" stroke-width="1.5" d="M30.362 14.949c.278-.156.606-.195.913-.109.307.086.567.291.723.569.156.278.195.606.108.913-.086.307-.29.567-.568.723L24.9 20.77l-2.335-.068 1.159-2.028 6.638-3.724z"/>
    <path fill="#000" d="M25.066 15c0 .552.448 1 1 1 .553 0 1-.448 1-1h-2zm2 8c0-.552-.447-1-1-1-.552 0-1 .448-1 1h2zm-4.7-13.625l-.78.625.78-.625zm3.481 4.351l-.78.625.78-.625zM10.567 10v18h2V10h-2zm2 20h12.5v-2h-12.5v2zm14.061-16.899l-3.48-4.35L21.585 10l3.48 4.35 1.562-1.249zM21.586 8h-9.02v2h9.02V8zm5.48 7v-.65h-2V15h2zm0 13v-.875h-2V28h2zm-1-.875h1v-.001-.002-.002-.002-.002-.002-.001-.002-.001-.002-.001-.002-.002-.002-.002-.001-.002-.003-.002-.002-.002-.003-.002-.003-.002-.003-.003-.002-.003-.003-.003-.003-.003-.003-.004-.003-.003-.004-.003-.004-.004-.003-.004-.004-.004-.004-.004V27v-.004-.004-.005-.004-.004-.005-.004-.005-.004-.005-.005-.005-.004-.005-.005-.005-.005-.006-.005-.005-.005-.006-.005-.006-.005-.006-.006-.005-.006-.006-.006-.006-.006-.005-.007-.006-.006-.006-.006-.007-.006-.007-.006-.007-.006-.007-.006-.007-.007-.007-.007-.007-.007-.007-.007-.007-.007-.007-.008-.007-.007-.008-.007-.008-.007-.008-.007-.008-.008-.007-.008-.008-.008-.008-.008-.008-.008-.008-.008-.008-.008-.008-.009-.008-.008-.009-.008-.009-.008-.009-.008-.009-.009-.008-.01-.008-.009-.008-.01-.008-.01-.008-.01-.008-.01-.009-.009-.009-.009-.01-.009-.009-.01-.008-.01-.01-.009-.01-.009-.01-.009-.01-.01-.009-.01-.01-.009-.01-.01-.01-.01-.01-.01-.009-.01-.01-.01-.01-.01-.01-.01-.01-.01-.01-.01-.011-.01-.01-.011-.01-.01-.011-.01-.01-.011-.01-.011-.01-.011-.01-.011-.01-.011-.01-.011-.01-.011-.011-.01-.011-.011-.01-.012-.01-.011-.01-.012-.01-.011-.011-.011-.01-.012-.01-.011-.011-.011-.011-.011-.011-.011-.011-.01-.012-.01-.012-.01-.012-.011-.011-.011-.011-.011-.011-.011-.011-.011-.012-.01-.012-.01-.012-.011-.011-.011-.011-.011-.012-.01-.012-.011-.011-.011-.011-.012-.01-.012-.011-.011-.011-.011-.012-.01-.012-.011-.011-.011-.011-.012-.01-.012-.01-.012-.011-.011-.011-.011-.012-.01-.012-.01-.012-.01-.012-.01-.012-.011-.011-.011-.011-.011-.011-.011-.011-.01-.012-.01-.012-.01-.012-.01-.011-.011-.011-.011-.01-.012-.01-.011-.011-.01-.012-.01-.011-.01-.011-.011-.01-.011-.011-.01-.011-.01-.011-.01-.011-.01-.011-.01-.011-.01-.011-.01-.011-.01-.01-.01-.011-.01-.01-.011-.01-.01-.01-.01-.01-.01-.01-.01-.01-.01-.01-.01-.01-.01-.01-.01-.01-.01-.01-.01-.009-.01-.01-.009-.01-.009-.01-.009-.01-.009-.01-.009-.009-.01-.009-.009-.009-.01-.008-.01-.008-.01-.009-.009-.009-.008-.01-.008-.009-.009-.008-.01-.008-.008-.009-.009-.008-.008-.009-.008-.009-.008-.008-.009-.008-.008-.008-.008-.008-.008-.008-.008-.008-.008-.007-.008-.008-.008-.007-.008-.007-.008-.007-.008-.007-.007-.007-.008-.007-.007-.007-.007-.007-.007-.007-.007-.006-.007-.007-.006-.007-.007-.006-.006-.007-.006-.006-.007-.006-.006-.006-.006-.006-.006-.006-.006-.005-.006-.006-.005-.006-.005-.006-.005-.006-.005-.005-.005-.005-.005-.005-.005-.005-.005-.005-.004-.005-.004-.005-.004-.005V23h-2V27.125h1zm-1 0h1-1 2-2zM23.148 8.751c-.38-.475-.955-.751-1.562-.751v2l1.562-1.25zm1.918 5.6h2c0-.454-.154-.895-.438-1.25l-1.562 1.25zm0 15.649c1.105 0 2-.895 2-2h-2v2zm-14.5-2c0 1.105.896 2 2 2v-2h-2zm2-18V8c-1.104 0-2 .895-2 2h2z"/>
</svg>
