<svg xmlns="http://www.w3.org/2000/svg" width="80" height="80" fill="none" viewBox="0 0 80 80">
    <circle cx="40" cy="40" r="39" fill="#FAFAFA" stroke="#235B4E" stroke-width="2"/>
    <path fill="#000" d="M57.154 34.513c-.071-.071-.144-.14-.217-.21v-2.25c0-2.24-1.821-4.061-4.06-4.061h-7.123V25.95c0-2.179-1.772-3.951-3.95-3.951h-6.67c-2.178 0-3.95 1.772-3.95 3.95v2.042H24.06c-2.24 0-4.061 1.821-4.061 4.06v18.074c0 2.24 1.822 4.061 4.06 4.061h8.478c.324 0 .586-.262.586-.586 0-.324-.262-.586-.586-.586h-8.477c-1.593 0-2.89-1.296-2.89-2.889v-11.82c1.148 1.702 3.035 2.865 5.198 3.026v2.133c0 1.218.99 2.21 2.21 2.21 1.218 0 2.209-.992 2.209-2.21V41.35h9.791v.028c0 1.995.598 3.898 1.709 5.505l-1.244 1.244c-.434-.123-.921-.014-1.262.327l-4.778 4.778c-.946.946-.946 2.485 0 3.43.948.948 2.482.949 3.43 0l4.778-4.778c.342-.34.45-.828.327-1.262l1.245-1.245c3.293 2.268 7.681 2.275 10.982.019v.73c0 1.592-1.296 2.888-2.89 2.888h-9.254c-.324 0-.586.263-.586.586 0 .324.262.586.586.586h9.255c2.239 0 4.06-1.822 4.06-4.06v-1.673c.073-.069.146-.138.217-.21 3.794-3.794 3.795-9.936 0-13.73zm-24.799-8.562c0-1.532 1.247-2.78 2.78-2.78h6.668c1.533 0 2.78 1.248 2.78 2.78v2.04h-1.25v-2.04c0-.843-.687-1.53-1.53-1.53h-6.669c-.843 0-1.53.687-1.53 1.53v2.04h-1.249v-2.04zm2.422 2.04v-2.04c0-.197.16-.357.357-.357h6.67c.196 0 .356.16.356.357v2.04h-7.383zm-5.16 13.673H27.54v-1.973c0-.572.465-1.037 1.037-1.037.573 0 1.038.465 1.038 1.037v1.973zm-1.039 2.839c-.572 0-1.037-.466-1.037-1.038v-.63h2.075v.63c0 .572-.465 1.038-1.038 1.038zm2.21-4.324v-.488c0-1.218-.991-2.21-2.21-2.21-1.218 0-2.21.992-2.21 2.21v.464c-2.908-.26-5.196-2.71-5.196-5.686v-2.417c0-1.593 1.296-2.889 2.889-2.889h28.816c1.593 0 2.889 1.296 2.889 2.89v1.306c-3.706-2.542-8.925-2.265-12.343 1.154-1.548 1.548-2.51 3.527-2.771 5.666h-9.864zm6.818 15.656c-.49.49-1.284.49-1.774 0-.236-.237-.367-.552-.367-.887 0-.335.13-.65.367-.886l3.31-3.31 1.774 1.773-3.31 3.31zm4.778-4.778l-.64.64-1.773-1.774.64-.64c.022-.022.051-.033.08-.033.03 0 .06.011.082.033l1.61 1.611c.045.045.045.118 0 .163zm.442-1.378l-.838-.838 1.029-1.029c.13.148.265.292.406.433.14.14.285.275.432.405l-1.029 1.03zm1.425-2.263c-1.612-1.613-2.5-3.757-2.5-6.037s.888-4.425 2.5-6.037c3.337-3.337 8.738-3.337 12.074 0 3.337 3.336 3.337 8.737 0 12.074-3.336 3.337-8.737 3.337-12.074 0z"/>
    <path fill="#BC955C" d="M56.716 42.183c-.316-.069-.628.132-.697.448-.238 1.097-.786 2.098-1.583 2.895-2.292 2.292-6.003 2.293-8.295 0-2.287-2.287-2.287-6.008 0-8.295 2.292-2.292 6.002-2.292 8.295 0 .796.797 1.344 1.797 1.583 2.892.069.316.38.517.697.448.316-.07.516-.381.447-.697-.286-1.316-.943-2.516-1.898-3.471-2.75-2.75-7.202-2.75-9.953 0-2.744 2.744-2.744 7.208 0 9.952 2.744 2.744 7.209 2.744 9.953 0 .956-.957 1.613-2.158 1.9-3.475.068-.316-.133-.628-.449-.697z"/>
</svg>
