<svg width="40" height="40" viewBox="0 0 40 40" fill="none" xmlns="http://www.w3.org/2000/svg">
<path fill-rule="evenodd" clip-rule="evenodd" d="M19.1435 12.3014C14.5044 12.3014 10.7437 16.0622 10.7437 20.7014C10.7437 25.3406 14.5044 29.1015 19.1435 29.1015C23.7826 29.1015 27.5434 25.3406 27.5434 20.7014C27.5434 16.0622 23.7826 12.3014 19.1435 12.3014ZM8.34375 20.7014C8.34375 14.7367 13.179 9.90137 19.1435 9.90137C25.1081 9.90137 29.9433 14.7367 29.9433 20.7014C29.9433 26.6661 25.1081 31.5015 19.1435 31.5015C13.179 31.5015 8.34375 26.6661 8.34375 20.7014Z" fill="#9F2241"/>
<path fill-rule="evenodd" clip-rule="evenodd" d="M25.0754 26.6328C25.544 26.1642 26.3038 26.1642 26.7724 26.6328L31.9923 31.8528C32.4609 32.3215 32.4609 33.0813 31.9923 33.5499C31.5237 34.0185 30.7639 34.0185 30.2953 33.5499L25.0754 28.3299C24.6067 27.8612 24.6067 27.1014 25.0754 26.6328Z" fill="#9F2241"/>
</svg>
