<svg xmlns="http://www.w3.org/2000/svg" width="100" height="100" fill="none" viewBox="0 0 100 100">
    <circle cx="50" cy="50" r="48" stroke="#DDC9A3" stroke-width="4"/>
    <path fill="#006455" fill-rule="evenodd" d="M59.99 27.58c-4.835-2.155-10.236-2.688-15.4-1.522-5.162 1.166-9.81 3.97-13.249 7.994-3.439 4.024-5.485 9.051-5.833 14.333-.348 5.282 1.02 10.534 3.9 14.975 2.882 4.44 7.12 7.83 12.086 9.664 4.965 1.835 10.39 2.015 15.465.514 5.076-1.5 9.531-4.602 12.7-8.841 3.17-4.24 4.883-9.39 4.886-14.683v-2.508c0-1.506 1.221-2.727 2.728-2.727C78.779 44.78 80 46 80 47.506v2.51c-.004 6.469-2.099 12.765-5.972 17.947-3.874 5.181-9.318 8.972-15.522 10.806-6.204 1.834-12.834 1.614-18.903-.628-6.068-2.242-11.249-6.386-14.77-11.813-3.521-5.427-5.194-11.847-4.768-18.302.426-6.455 2.927-12.6 7.13-17.518 4.203-4.917 9.883-8.345 16.194-9.77 6.31-1.426 12.912-.774 18.821 1.86 1.376.612 1.994 2.225 1.381 3.6-.613 1.376-2.225 1.994-3.601 1.381z" clip-rule="evenodd"/>
    <path fill="#006455" fill-rule="evenodd" d="M79.21 26.268c1.067 1.064 1.067 2.79.003 3.857l-27.273 27.3c-.511.511-1.205.8-1.929.8-.723 0-1.417-.288-1.929-.8L39.9 49.245c-1.065-1.065-1.065-2.792 0-3.857 1.065-1.065 2.792-1.065 3.857 0l6.253 6.252 25.344-25.37c1.064-1.065 2.791-1.066 3.857-.001z" clip-rule="evenodd"/>
</svg>
