<svg width="22" height="24" viewBox="0 0 22 24" fill="none" xmlns="http://www.w3.org/2000/svg">
<path fill-rule="evenodd" clip-rule="evenodd" d="M0.5 6.03409C0.5 5.45043 0.973153 4.97727 1.55682 4.97727H20.5795C21.1632 4.97727 21.6364 5.45043 21.6364 6.03409C21.6364 6.61776 21.1632 7.09091 20.5795 7.09091H1.55682C0.973153 7.09091 0.5 6.61776 0.5 6.03409Z" fill="#CCCCCC"/>
<path fill-rule="evenodd" clip-rule="evenodd" d="M8.95454 2.86364C8.67426 2.86364 8.40545 2.97498 8.20726 3.17317C8.00907 3.37136 7.89773 3.64017 7.89773 3.92045V4.97727H14.2386V3.92045C14.2386 3.64017 14.1273 3.37136 13.9291 3.17317C13.7309 2.97498 13.4621 2.86364 13.1818 2.86364H8.95454ZM16.3523 4.97727V3.92045C16.3523 3.0796 16.0182 2.27318 15.4237 1.6786C14.8291 1.08403 14.0227 0.75 13.1818 0.75H8.95454C8.11369 0.75 7.30727 1.08403 6.71269 1.6786C6.11812 2.27318 5.78409 3.0796 5.78409 3.92045V4.97727H3.67045C3.08679 4.97727 2.61364 5.45043 2.61364 6.03409V20.8295C2.61364 21.6704 2.94766 22.4768 3.54224 23.0714C4.13682 23.666 4.94323 24 5.78409 24H16.3523C17.1931 24 17.9995 23.666 18.5941 23.0714C19.1887 22.4768 19.5227 21.6704 19.5227 20.8295V6.03409C19.5227 5.45043 19.0496 4.97727 18.4659 4.97727H16.3523ZM4.72727 7.09091V20.8295C4.72727 21.1098 4.83861 21.3786 5.03681 21.5768C5.235 21.775 5.5038 21.8864 5.78409 21.8864H16.3523C16.6326 21.8864 16.9014 21.775 17.0996 21.5768C17.2977 21.3786 17.4091 21.1098 17.4091 20.8295V7.09091H4.72727Z" fill="#CCCCCC"/>
<path fill-rule="evenodd" clip-rule="evenodd" d="M8.95454 10.2614C9.53821 10.2614 10.0114 10.7345 10.0114 11.3182V17.6591C10.0114 18.2428 9.53821 18.7159 8.95454 18.7159C8.37088 18.7159 7.89773 18.2428 7.89773 17.6591V11.3182C7.89773 10.7345 8.37088 10.2614 8.95454 10.2614Z" fill="#CCCCCC"/>
<path fill-rule="evenodd" clip-rule="evenodd" d="M13.1818 10.2614C13.7655 10.2614 14.2386 10.7345 14.2386 11.3182V17.6591C14.2386 18.2428 13.7655 18.7159 13.1818 18.7159C12.5982 18.7159 12.125 18.2428 12.125 17.6591V11.3182C12.125 10.7345 12.5982 10.2614 13.1818 10.2614Z" fill="#CCCCCC"/>
</svg>
