<svg width="40" height="41" viewBox="0 0 40 41" fill="none" xmlns="http://www.w3.org/2000/svg">
    <circle cx="20" cy="20.561" r="20" fill="#F9F9F9"/>
    <path d="M25 29.56v-2a4 4 0 0 0-4-4h-8a4 4 0 0 0-4 4v2M17 19.56a4 4 0 1 0 0-8 4 4 0 0 0 0 8zM31 29.56v-2.044c0-.906-.296-1.786-.839-2.502A3.995 3.995 0 0 0 28 23.561M24 11.56a3.983 3.983 0 0 1 2.162 1.469c.543.724.838 1.615.838 2.531 0 .917-.295 1.808-.838 2.532A3.982 3.982 0 0 1 24 19.561" stroke="#235B4E" stroke-width="2" stroke-linecap="round" stroke-linejoin="round"/>
</svg>
