<svg xmlns="http://www.w3.org/2000/svg" width="40.686275482177734" height="40.607845306396484" fill="none"><rect id="backgroundrect" width="100%" height="100%" x="0" y="0" fill="none" stroke="none" class="" style=""/>
    
    
<g class="currentLayer" style=""><title>Layer 1</title><path stroke="#006455" stroke-linecap="round" stroke-linejoin="round" stroke-width="2" d="M22.866136966228485,25.53932708644867 l-3.6660000000000004,-3.6670000000000007 l-3.6670000000000007,3.6670000000000007 M21.195136966228485,28.73232708644867 l-2,-2 l-2,2 " id="svg_1" class=""/><path stroke="#006455" stroke-linecap="round" stroke-linejoin="round" stroke-width="2" d="M29.572138058242857,28.000301796852227 c0.951892392873764,-0.6922036933898957 1.6661102735996258,-1.6810661125183106 2.037551345348358,-2.821966128587723 c0.372635416030884,-1.1409000160694123 0.38338451457023737,-2.3745058839321143 0.03224729561805738,-3.5228223681449893 s-1.047439935445786,-2.1507757616043093 -1.9861945412158974,-2.8615206253528593 s-2.072187329530716,-1.0939290511608128 -3.2366730046272276,-1.0926929731369022 h-1.3794676458835604 c-0.32844467759132456,-1.3287838757038117 -0.9447263271808626,-2.561153665542603 -1.801071177482605,-3.608111751794815 c-0.8575391945838948,-1.0457220082283023 -1.9312547042369843,-1.876366440296173 -3.143514150619507,-2.4313654730319976 c-1.2122594463825225,-0.5537629547119128 -2.529621189594269,-0.8158114957809454 -3.8529546542167665,-0.7663683748245246 c-1.3245278089046488,0.049443120956421005 -2.620391355037689,0.40790574789047335 -3.7908487515449525,1.0506663203239446 S10.26675708156592,13.498634420333975 9.484461576757491,14.606160329757802 c-0.7811011605262761,1.1075259094238286 -1.3101956775188448,2.383158430099487 -1.5466758453846001,3.732955632209779 c-0.2364801678657534,1.34856112408638 -0.17317992091178863,2.7354406669139872 0.1827346751689915,4.0568080744743344 c0.3583032846450808,1.320131329536438 0.9984718198776245,2.5401403391361237 1.8763148672580727,3.5660850989818575 " class="" id="svg_3"/></g></svg>