<svg xmlns="http://www.w3.org/2000/svg" width="16" height="16" fill="none" viewBox="0 0 16 16">
    <path fill="#CCC" fill-rule="evenodd" d="M8.05 3.334l5.304 5.791c.245-.36.47-.737.676-1.126-.067-.126-.155-.286-.265-.47-.281-.477-.699-1.11-1.24-1.74-1.086-1.263-2.601-2.437-4.475-2.455zM14.727 8l.547-.298c.089.193.086.422-.008.612-.39.798-.857 1.55-1.391 2.242-.11.143-.27.229-.441.237-.172.008-.338-.063-.459-.195l-6.685-7.3c-.157-.171-.217-.422-.156-.654.061-.233.233-.411.449-.466.466-.12.944-.18 1.423-.178v.667V2c2.383 0 4.213 1.484 5.41 2.877.604.703 1.066 1.404 1.376 1.928.155.263.274.483.355.639l.092.184.025.052.007.015.002.004.001.003-.547.298zM4.004 3.51c.244-.203.587-.178.803.059L7.14 6.113l.005.004L9.73 8.94l.004.005 2.332 2.544c.125.136.19.324.178.516-.012.192-.1.369-.24.485-1.148.955-2.546 1.484-3.99 1.51h-.01c-2.383 0-4.214-1.484-5.41-2.877-.605-.703-1.066-1.404-1.377-1.928-.155-.263-.274-.483-.354-.639L.77 8.372.747 8.32.74 8.305l-.002-.004-.001-.002L1.283 8l-.547.298c-.088-.194-.085-.422.009-.613.8-1.63 1.912-3.053 3.26-4.175zM1.981 8.002c.067.126.155.285.264.47.282.476.7 1.108 1.24 1.739C4.58 11.483 6.109 12.665 8 12.667c.945-.018 1.865-.299 2.677-.81l-1.42-1.548c-.096.067-.198.126-.303.177-.3.146-.623.224-.951.23-.329.007-.655-.06-.959-.193-.304-.135-.58-.334-.813-.587-.232-.254-.415-.555-.538-.887-.123-.332-.183-.688-.178-1.046.006-.358.078-.711.212-1.038.046-.115.1-.226.161-.332L4.331 4.934c-.94.867-1.735 1.905-2.35 3.068zM6.8 7.628c-.04.128-.06.263-.063.398-.002.18.028.357.09.523.06.166.152.317.268.444.116.126.255.226.407.293.152.067.315.1.479.097.124-.002.248-.025.365-.068L6.8 7.628z" clip-rule="evenodd"/>
    <path fill="#CCC" fill-rule="evenodd" d="M.85.195c.24-.26.626-.26.865 0L15.16 14.862c.238.26.238.682 0 .943-.24.26-.626.26-.865 0L.851 1.138C.612.878.612.456.85.195z" clip-rule="evenodd"/>
</svg>
