<svg xmlns="http://www.w3.org/2000/svg" width="20" height="20" fill="none"><rect id="backgroundrect" width="100%" height="100%" x="0" y="0" fill="none" stroke="none"/>
    
    
<g class="currentLayer" style=""><title>Layer 1</title><path fill="#9f2241" fill-rule="evenodd" d="M9 2C5.134 2 2 5.134 2 9s3.134 7 7 7 7-3.134 7-7-3.134-7-7-7zM0 9c0-4.97 4.03-9 9-9s9 4.03 9 9-4.03 9-9 9-9-4.03-9-9z" clip-rule="evenodd" id="svg_1" class="" fill-opacity="1"/><path fill="#9f2241" fill-rule="evenodd" d="M13.941 13.943c.39-.39 1.024-.39 1.414 0l4.35 4.35c.391.39.391 1.024 0 1.415-.39.39-1.023.39-1.414 0l-4.35-4.35c-.39-.391-.39-1.024 0-1.415z" clip-rule="evenodd" id="svg_2" class="" fill-opacity="1"/></g></svg>